<?xml version="1.0" standalone="no"?>
<!DOCTYPE svg PUBLIC "-//W3C//DTD SVG 1.1//EN" "http://www.w3.org/Graphics/SVG/1.1/DTD/svg11.dtd" >
<svg xmlns="http://www.w3.org/2000/svg" xmlns:xlink="http://www.w3.org/1999/xlink" version="1.1">
<metadata>
Created by FontForge 20170924 at Sun May 17 13:01:23 2020
 By www-data
Copyright 2020 The Grenze Gotisch Project Authors (https://github.com/Omnibus-Type/Grenze-Gotisch)
</metadata>
<defs>
<font id="GrenzeGotisch-Regular" horiz-adv-x="0" >
  <font-face 
    font-family="Grenze Gotisch"
    font-weight="400"
    font-stretch="normal"
    units-per-em="1000"
    panose-1="0 0 0 0 0 0 0 0 0 0"
    ascent="800"
    descent="-200"
    x-height="448"
    cap-height="611.5"
    bbox="-582 -271 1208 984"
    underline-thickness="44"
    underline-position="-182"
    unicode-range="U+0009-FEFF"
  />
<missing-glyph horiz-adv-x="527" 
d="M387 600h83v-600h-83v600zM140 0h-83v600h83v-600zM470 600v-73h-413v73h413zM470 73v-73h-413v73h413z" />
    <glyph glyph-name="f_f" unicode="ff" horiz-adv-x="515" 
d="M22 399v28l47 22v42q0 15 15 41t36 52t41.5 44t32.5 18q5 0 21 -1t35 -2t32 -3q7 -4 14.5 -14.5t7.5 -15.5q0 -1 -2.5 -7.5t-6 -15t-6.5 -16t-5 -11.5q-8 2 -23 6t-31.5 7.5t-30 6t-19.5 2.5q-4 0 -8.5 -8t-7.5 -21t-3 -27l-1 -78h163v43q0 15 15 41t36 52t41.5 44
t32.5 18q5 0 21 -1t35 -2t32 -3q7 -4 14.5 -14.5t7.5 -15.5q0 -1 -2.5 -7.5t-6 -15t-6.5 -16t-5 -11.5q-8 2 -23 6t-31.5 7.5t-30 6t-19.5 2.5q-4 0 -8.5 -8t-7.5 -21t-3 -27l-1 -78h95v-63l-95 9l-3 -423l11 -99q-16 -8 -29.5 -13t-22.5 -7.5t-13 -2.5q-3 0 -11 7t-15.5 15
t-7.5 11v512h-163l-3 -423l11 -99q-16 -8 -29.5 -13t-22.5 -7.5t-13 -2.5q-3 0 -11 7t-15.5 15t-7.5 11v515z" />
    <glyph glyph-name="f_f_i" unicode="ffi" horiz-adv-x="721" 
d="M22 399v28l47 22v42q0 15 15 41t36 52t41.5 44t32.5 18q5 0 21 -1t35 -2t32 -3q7 -4 14.5 -14.5t7.5 -15.5q0 -1 -2.5 -7.5t-6 -15t-6.5 -16t-5 -11.5q-11 3 -32.5 8t-42.5 9.5t-29 4.5q-4 0 -8.5 -8t-7.5 -21t-3 -27l-1 -78h163v43q0 12 10 31.5t25 40.5t32.5 40t33 31
t24.5 12q4 0 18 -0.5t32 -1.5t35 -2t27 -2q7 -4 14.5 -14.5t7.5 -15.5q0 -2 -4 -12.5t-9 -21.5t-7 -16q-8 2 -26.5 6t-39.5 7.5t-38.5 6t-23.5 2.5q-4 0 -8.5 -8t-7.5 -21t-3 -27v-78h197q4 0 13.5 -7.5t18 -16t8.5 -13.5v-357l35 -10v-37l-11.5 -2.5t-27.5 -5.5t-29.5 -5.5
t-16.5 -2.5t-13 8t-18.5 17t-8.5 12v366h-148l-3 -423l11 -99q-16 -8 -29.5 -13t-22.5 -7.5t-13 -2.5q-3 0 -11 7t-15.5 15t-7.5 11v512h-163l-3 -423l11 -99q-16 -8 -29.5 -13t-22.5 -7.5t-13 -2.5q-3 0 -11 7t-15.5 15t-7.5 11v515z" />
    <glyph glyph-name="f_f_l" unicode="ffl" horiz-adv-x="742" 
d="M22 399v28l47 22v42q0 15 15 41t36 52t41.5 44t32.5 18q5 0 21 -1t35 -2t32 -3q7 -4 14.5 -14.5t7.5 -15.5q0 -1 -2.5 -7.5t-6 -15t-6.5 -16t-5 -11.5q-8 2 -23 6t-31.5 7.5t-30 6t-19.5 2.5q-4 0 -8.5 -8t-7.5 -21t-3 -27l-1 -78h163v43q0 15 15 41t36 52t41.5 44
t32.5 18q14 0 42 -3t61.5 -8t66 -10t55.5 -10v-556l34 -15v-37l-12.5 -2.5t-29.5 -5.5t-31.5 -5.5t-17.5 -2.5t-11 7t-15 15t-7 11v538q-13 3 -35.5 6.5t-46.5 6.5t-42.5 5t-24.5 2q-4 0 -8.5 -8t-7.5 -21t-3 -27l-1 -78h83v-64l-82 10l-3 -423l11 -99q-16 -8 -29.5 -13
t-22.5 -7.5t-13 -2.5q-3 0 -11 7t-15.5 15t-7.5 11v512h-164l-3 -423l11 -99q-16 -8 -29.5 -13t-22.5 -7.5t-13 -2.5q-3 0 -11 7t-15.5 15t-7.5 11v515z" />
    <glyph glyph-name="fi" unicode="fi" horiz-adv-x="467" 
d="M22 399v28l47 22v42q0 12 10 31.5t25 40.5t32.5 40t33 31t24.5 12q4 0 18 -0.5t32 -1.5t35 -2t27 -2q7 -4 14.5 -14.5t7.5 -15.5q0 -2 -4 -12.5t-9 -21.5t-7 -16q-8 2 -26.5 6t-39.5 7.5t-38.5 6t-23.5 2.5q-4 0 -8.5 -8t-7.5 -21t-3 -27v-78h197q4 0 13.5 -7.5t18 -16
t8.5 -13.5v-357l35 -10v-37l-11.5 -2.5t-27.5 -5.5t-29.5 -5.5t-16.5 -2.5t-13 8t-18.5 17t-8.5 12v366h-148l-3 -423l11 -99q-16 -8 -29.5 -13t-22.5 -7.5t-13 -2.5q-3 0 -11 7t-15.5 15t-7.5 11v515z" />
    <glyph glyph-name="fl" unicode="fl" horiz-adv-x="488" 
d="M22 399v28l47 22v42q0 15 15 41t36 52t41.5 44t32.5 18t34 -2t49.5 -6t56 -8t52.5 -9q5 -1 12.5 -7.5t14 -14t6.5 -11.5v-529l34 -15v-37l-12.5 -2.5t-29.5 -5.5t-31.5 -5.5t-17.5 -2.5t-11 7t-15 15t-7 11v538q-13 3 -35.5 6.5t-46.5 6.5t-42.5 5t-24.5 2q-4 0 -8.5 -8
t-7.5 -21t-3 -27l-1 -78h83v-64l-83 10l-3 -423l11 -99q-16 -8 -29.5 -13t-22.5 -7.5t-13 -2.5q-3 0 -11 7t-15.5 15t-7.5 11v515z" />
    <glyph glyph-name=".notdef" horiz-adv-x="527" 
d="M387 600h83v-600h-83v600zM140 0h-83v600h83v-600zM470 600v-73h-413v73h413zM470 73v-73h-413v73h413z" />
    <glyph glyph-name="A" unicode="A" horiz-adv-x="594" 
d="M90 421q11 21 22 37.5t23.5 33t28.5 37.5h27q-3 -20 -5 -51.5t-3 -83.5t-1 -133.5v-201.5l86 -15l-19 -37q-10 -1 -30 -4t-41 -5.5t-36.5 -4.5t-18.5 -2t-11 7t-15.5 15t-7.5 11q2 39 5.5 75.5t3.5 91.5q0 42 -3 82.5t-5 78t0 69.5zM242 293l192 6v-53l-192 6v41z
M289 525v-424q0 -6 -5 -21.5t-16 -35.5h-31v481h52zM48 546l7 74q55 -4 118.5 -10.5t124 -14t106.5 -14.5t66 -13q2 -1 7.5 -5.5t11 -10t9.5 -11t4 -7.5v-474l62 -15v-39q-12 -2 -31 -4.5t-39 -5t-35 -4t-18 -1.5t-11 7.5t-14.5 15.5t-6.5 11v464l-223 26l-33 -2l-2 6z" />
    <glyph glyph-name="Aacute" unicode="&#xc1;" horiz-adv-x="594" 
d="M90 421q11 21 22 37.5t23.5 33t28.5 37.5h27q-3 -20 -5 -51.5t-3 -83.5t-1 -133.5v-201.5l86 -15l-19 -37q-10 -1 -30 -4t-41 -5.5t-36.5 -4.5t-18.5 -2t-11 7t-15.5 15t-7.5 11q2 39 5.5 75.5t3.5 91.5q0 42 -3 82.5t-5 78t0 69.5zM242 293l192 6v-53l-192 6v41z
M289 525v-424q0 -6 -5 -21.5t-16 -35.5h-31v481h52zM48 546l7 74q55 -4 118.5 -10.5t124 -14t106.5 -14.5t66 -13q2 -1 7.5 -5.5t11 -10t9.5 -11t4 -7.5v-474l62 -15v-39q-12 -2 -31 -4.5t-39 -5t-35 -4t-18 -1.5t-11 7.5t-14.5 15.5t-6.5 11v464l-223 26l-33 -2l-2 6z
M248 660l-15 36l163 94l40 -60l-4 -26q-25 -6 -57 -14t-64.5 -15.5t-62.5 -14.5z" />
    <glyph glyph-name="Abreve" unicode="&#x102;" horiz-adv-x="594" 
d="M90 421q11 21 22 37.5t23.5 33t28.5 37.5h27q-3 -20 -5 -51.5t-3 -83.5t-1 -133.5v-201.5l86 -15l-19 -37q-10 -1 -30 -4t-41 -5.5t-36.5 -4.5t-18.5 -2t-11 7t-15.5 15t-7.5 11q2 39 5.5 75.5t3.5 91.5q0 42 -3 82.5t-5 78t0 69.5zM242 293l192 6v-53l-192 6v41z
M289 525v-424q0 -6 -5 -21.5t-16 -35.5h-31v481h52zM48 546l7 74q55 -4 118.5 -10.5t124 -14t106.5 -14.5t66 -13q2 -1 7.5 -5.5t11 -10t9.5 -11t4 -7.5v-474l62 -15v-39q-12 -2 -31 -4.5t-39 -5t-35 -4t-18 -1.5t-11 7.5t-14.5 15.5t-6.5 11v464l-223 26l-33 -2l-2 6z
M297 662q-32 0 -62 16.5t-52 40t-32 43.5l28 25q25 -25 53.5 -42.5t64.5 -17.5t64.5 17.5t53.5 42.5l28 -25q-10 -20 -32 -43.5t-51.5 -40t-62.5 -16.5z" />
    <glyph glyph-name="uni1EAE" unicode="&#x1eae;" horiz-adv-x="594" 
d="M90 421q11 21 22 37.5t23.5 33t28.5 37.5h27q-3 -20 -5 -51.5t-3 -83.5t-1 -133.5v-201.5l86 -15l-19 -37q-10 -1 -30 -4t-41 -5.5t-36.5 -4.5t-18.5 -2t-11 7t-15.5 15t-7.5 11q2 39 5.5 75.5t3.5 91.5q0 42 -3 82.5t-5 78t0 69.5zM242 293l192 6v-53l-192 6v41z
M289 525v-424q0 -6 -5 -21.5t-16 -35.5h-31v481h52zM48 546l7 74q55 -4 118.5 -10.5t124 -14t106.5 -14.5t66 -13q2 -1 7.5 -5.5t11 -10t9.5 -11t4 -7.5v-474l62 -15v-39q-12 -2 -31 -4.5t-39 -5t-35 -4t-18 -1.5t-11 7.5t-14.5 15.5t-6.5 11v464l-223 26l-33 -2l-2 6z
M297 657q-32 0 -62 16.5t-52 40t-32 43.5l28 25q25 -25 53.5 -42.5t64.5 -17.5t64.5 17.5t53.5 42.5l28 -25q-10 -20 -32 -43.5t-51.5 -40t-62.5 -16.5zM264 779l-23 30l96 102l49 -50v-25q-33 -17 -60 -29t-62 -28z" />
    <glyph glyph-name="uni1EB6" unicode="&#x1eb6;" horiz-adv-x="594" 
d="M90 421q11 21 22 37.5t23.5 33t28.5 37.5h27q-3 -20 -5 -51.5t-3 -83.5t-1 -133.5v-201.5l86 -15l-19 -37q-10 -1 -30 -4t-41 -5.5t-36.5 -4.5t-18.5 -2t-11 7t-15.5 15t-7.5 11q2 39 5.5 75.5t3.5 91.5q0 42 -3 82.5t-5 78t0 69.5zM242 293l192 6v-53l-192 6v41z
M289 525v-424q0 -6 -5 -21.5t-16 -35.5h-31v481h52zM48 546l7 74q55 -4 118.5 -10.5t124 -14t106.5 -14.5t66 -13q2 -1 7.5 -5.5t11 -10t9.5 -11t4 -7.5v-474l62 -15v-39q-12 -2 -31 -4.5t-39 -5t-35 -4t-18 -1.5t-11 7.5t-14.5 15.5t-6.5 11v464l-223 26l-33 -2l-2 6z
M245 -121q0 2 7.5 8t17.5 13.5t18.5 12.5t10.5 5q3 0 11.5 -6.5t17.5 -15.5t15 -17.5t5 -12.5l-4 -18q0 -3 -7.5 -9t-17.5 -13t-18 -12t-11 -5q-4 0 -12 6.5t-16.5 16t-14 17.5t-5.5 11zM297 662q-32 0 -62 16.5t-52 40t-32 43.5l28 25q25 -25 53.5 -42.5t64.5 -17.5
t64.5 17.5t53.5 42.5l28 -25q-10 -20 -32 -43.5t-51.5 -40t-62.5 -16.5z" />
    <glyph glyph-name="uni1EB0" unicode="&#x1eb0;" horiz-adv-x="594" 
d="M90 421q11 21 22 37.5t23.5 33t28.5 37.5h27q-3 -20 -5 -51.5t-3 -83.5t-1 -133.5v-201.5l86 -15l-19 -37q-10 -1 -30 -4t-41 -5.5t-36.5 -4.5t-18.5 -2t-11 7t-15.5 15t-7.5 11q2 39 5.5 75.5t3.5 91.5q0 42 -3 82.5t-5 78t0 69.5zM242 293l192 6v-53l-192 6v41z
M289 525v-424q0 -6 -5 -21.5t-16 -35.5h-31v481h52zM48 546l7 74q55 -4 118.5 -10.5t124 -14t106.5 -14.5t66 -13q2 -1 7.5 -5.5t11 -10t9.5 -11t4 -7.5v-474l62 -15v-39q-12 -2 -31 -4.5t-39 -5t-35 -4t-18 -1.5t-11 7.5t-14.5 15.5t-6.5 11v464l-223 26l-33 -2l-2 6z
M297 657q-32 0 -62 16.5t-52 40t-32 43.5l28 25q25 -25 53.5 -42.5t64.5 -17.5t64.5 17.5t53.5 42.5l28 -25q-10 -20 -32 -43.5t-51.5 -40t-62.5 -16.5zM330 779q-35 16 -62 28t-60 29v25l49 50l96 -102z" />
    <glyph glyph-name="uni1EB2" unicode="&#x1eb2;" horiz-adv-x="594" 
d="M90 421q11 21 22 37.5t23.5 33t28.5 37.5h27q-3 -20 -5 -51.5t-3 -83.5t-1 -133.5v-201.5l86 -15l-19 -37q-10 -1 -30 -4t-41 -5.5t-36.5 -4.5t-18.5 -2t-11 7t-15.5 15t-7.5 11q2 39 5.5 75.5t3.5 91.5q0 42 -3 82.5t-5 78t0 69.5zM242 293l192 6v-53l-192 6v41z
M289 525v-424q0 -6 -5 -21.5t-16 -35.5h-31v481h52zM48 546l7 74q55 -4 118.5 -10.5t124 -14t106.5 -14.5t66 -13q2 -1 7.5 -5.5t11 -10t9.5 -11t4 -7.5v-474l62 -15v-39q-12 -2 -31 -4.5t-39 -5t-35 -4t-18 -1.5t-11 7.5t-14.5 15.5t-6.5 11v464l-223 26l-33 -2l-2 6z
M297 647q-32 0 -62 16.5t-52 40t-32 43.5l28 25q25 -25 53.5 -42.5t64.5 -17.5t64.5 17.5t53.5 42.5l28 -25q-10 -20 -32 -43.5t-51.5 -40t-62.5 -16.5zM284 765l-17 28q23 15 33.5 30.5t10.5 27.5q0 11 -8.5 18t-25.5 7q-4 0 -9.5 -0.5t-10.5 -1.5l-9 42q26 8 46 8
q38 0 60 -21t18 -57q-2 -14 -25 -37.5t-63 -43.5z" />
    <glyph glyph-name="uni1EB4" unicode="&#x1eb4;" horiz-adv-x="594" 
d="M90 421q11 21 22 37.5t23.5 33t28.5 37.5h27q-3 -20 -5 -51.5t-3 -83.5t-1 -133.5v-201.5l86 -15l-19 -37q-10 -1 -30 -4t-41 -5.5t-36.5 -4.5t-18.5 -2t-11 7t-15.5 15t-7.5 11q2 39 5.5 75.5t3.5 91.5q0 42 -3 82.5t-5 78t0 69.5zM242 293l192 6v-53l-192 6v41z
M289 525v-424q0 -6 -5 -21.5t-16 -35.5h-31v481h52zM48 546l7 74q55 -4 118.5 -10.5t124 -14t106.5 -14.5t66 -13q2 -1 7.5 -5.5t11 -10t9.5 -11t4 -7.5v-474l62 -15v-39q-12 -2 -31 -4.5t-39 -5t-35 -4t-18 -1.5t-11 7.5t-14.5 15.5t-6.5 11v464l-223 26l-33 -2l-2 6z
M297 654q-32 0 -62 16.5t-52 40t-32 43.5l28 25q25 -25 53.5 -42.5t64.5 -17.5t64.5 17.5t53.5 42.5l28 -25q-10 -20 -32 -43.5t-51.5 -40t-62.5 -16.5zM358 807q-26 0 -51.5 9.5t-45.5 18.5t-30 9q-5 0 -16.5 -7t-23 -15.5t-15.5 -11.5l-32 27q6 8 17 21t24.5 26t26 22
t21.5 9q20 0 47.5 -10t51.5 -20.5t34 -10.5q8 0 24.5 13.5t24.5 23.5l34 -29q-6 -8 -17 -20.5t-24.5 -25t-27 -21t-22.5 -8.5z" />
    <glyph glyph-name="uni01CD" unicode="&#x1cd;" horiz-adv-x="594" 
d="M90 421q11 21 22 37.5t23.5 33t28.5 37.5h27q-3 -20 -5 -51.5t-3 -83.5t-1 -133.5v-201.5l86 -15l-19 -37q-10 -1 -30 -4t-41 -5.5t-36.5 -4.5t-18.5 -2t-11 7t-15.5 15t-7.5 11q2 39 5.5 75.5t3.5 91.5q0 42 -3 82.5t-5 78t0 69.5zM242 293l192 6v-53l-192 6v41z
M289 525v-424q0 -6 -5 -21.5t-16 -35.5h-31v481h52zM48 546l7 74q55 -4 118.5 -10.5t124 -14t106.5 -14.5t66 -13q2 -1 7.5 -5.5t11 -10t9.5 -11t4 -7.5v-474l62 -15v-39q-12 -2 -31 -4.5t-39 -5t-35 -4t-18 -1.5t-11 7.5t-14.5 15.5t-6.5 11v464l-223 26l-33 -2l-2 6z
M266 644l-98 136l28 25l99 -84h8l99 84l28 -25l-98 -136h-66z" />
    <glyph glyph-name="Acircumflex" unicode="&#xc2;" horiz-adv-x="594" 
d="M90 421q11 21 22 37.5t23.5 33t28.5 37.5h27q-3 -20 -5 -51.5t-3 -83.5t-1 -133.5v-201.5l86 -15l-19 -37q-10 -1 -30 -4t-41 -5.5t-36.5 -4.5t-18.5 -2t-11 7t-15.5 15t-7.5 11q2 39 5.5 75.5t3.5 91.5q0 42 -3 82.5t-5 78t0 69.5zM242 293l192 6v-53l-192 6v41z
M289 525v-424q0 -6 -5 -21.5t-16 -35.5h-31v481h52zM48 546l7 74q55 -4 118.5 -10.5t124 -14t106.5 -14.5t66 -13q2 -1 7.5 -5.5t11 -10t9.5 -11t4 -7.5v-474l62 -15v-39q-12 -2 -31 -4.5t-39 -5t-35 -4t-18 -1.5t-11 7.5t-14.5 15.5t-6.5 11v464l-223 26l-33 -2l-2 6z
M196 658l-30 30l103 104h56l103 -104l-30 -30l-96 64h-11z" />
    <glyph glyph-name="uni1EA4" unicode="&#x1ea4;" horiz-adv-x="594" 
d="M90 421q11 21 22 37.5t23.5 33t28.5 37.5h27q-3 -20 -5 -51.5t-3 -83.5t-1 -133.5v-201.5l86 -15l-19 -37q-10 -1 -30 -4t-41 -5.5t-36.5 -4.5t-18.5 -2t-11 7t-15.5 15t-7.5 11q2 39 5.5 75.5t3.5 91.5q0 42 -3 82.5t-5 78t0 69.5zM242 293l192 6v-53l-192 6v41z
M289 525v-424q0 -6 -5 -21.5t-16 -35.5h-31v481h52zM48 546l7 74q55 -4 118.5 -10.5t124 -14t106.5 -14.5t66 -13q2 -1 7.5 -5.5t11 -10t9.5 -11t4 -7.5v-474l62 -15v-39q-12 -2 -31 -4.5t-39 -5t-35 -4t-18 -1.5t-11 7.5t-14.5 15.5t-6.5 11v464l-223 26l-33 -2l-2 6z
M190 664l-23 30l96 91h66l96 -91l-23 -30l-102 44h-8zM241 791l-21 32l100 91l44 -54l-2 -25q-34 -14 -59.5 -22.5t-61.5 -21.5z" />
    <glyph glyph-name="uni1EAC" unicode="&#x1eac;" horiz-adv-x="594" 
d="M90 421q11 21 22 37.5t23.5 33t28.5 37.5h27q-3 -20 -5 -51.5t-3 -83.5t-1 -133.5v-201.5l86 -15l-19 -37q-10 -1 -30 -4t-41 -5.5t-36.5 -4.5t-18.5 -2t-11 7t-15.5 15t-7.5 11q2 39 5.5 75.5t3.5 91.5q0 42 -3 82.5t-5 78t0 69.5zM242 293l192 6v-53l-192 6v41z
M289 525v-424q0 -6 -5 -21.5t-16 -35.5h-31v481h52zM48 546l7 74q55 -4 118.5 -10.5t124 -14t106.5 -14.5t66 -13q2 -1 7.5 -5.5t11 -10t9.5 -11t4 -7.5v-474l62 -15v-39q-12 -2 -31 -4.5t-39 -5t-35 -4t-18 -1.5t-11 7.5t-14.5 15.5t-6.5 11v464l-223 26l-33 -2l-2 6z
M245 -121q0 2 7.5 8t17.5 13.5t18.5 12.5t10.5 5q3 0 11.5 -6.5t17.5 -15.5t15 -17.5t5 -12.5l-4 -18q0 -3 -7.5 -9t-17.5 -13t-18 -12t-11 -5q-4 0 -12 6.5t-16.5 16t-14 17.5t-5.5 11zM196 658l-30 30l103 104h56l103 -104l-30 -30l-96 64h-11z" />
    <glyph glyph-name="uni1EA6" unicode="&#x1ea6;" horiz-adv-x="594" 
d="M90 421q11 21 22 37.5t23.5 33t28.5 37.5h27q-3 -20 -5 -51.5t-3 -83.5t-1 -133.5v-201.5l86 -15l-19 -37q-10 -1 -30 -4t-41 -5.5t-36.5 -4.5t-18.5 -2t-11 7t-15.5 15t-7.5 11q2 39 5.5 75.5t3.5 91.5q0 42 -3 82.5t-5 78t0 69.5zM242 293l192 6v-53l-192 6v41z
M289 525v-424q0 -6 -5 -21.5t-16 -35.5h-31v481h52zM48 546l7 74q55 -4 118.5 -10.5t124 -14t106.5 -14.5t66 -13q2 -1 7.5 -5.5t11 -10t9.5 -11t4 -7.5v-474l62 -15v-39q-12 -2 -31 -4.5t-39 -5t-35 -4t-18 -1.5t-11 7.5t-14.5 15.5t-6.5 11v464l-223 26l-33 -2l-2 6z
M190 664l-23 30l96 91h66l96 -91l-23 -30l-102 44h-8zM351 791q-36 13 -61 21.5t-60 22.5l-2 25l44 54l100 -91z" />
    <glyph glyph-name="uni1EA8" unicode="&#x1ea8;" horiz-adv-x="594" 
d="M90 421q11 21 22 37.5t23.5 33t28.5 37.5h27q-3 -20 -5 -51.5t-3 -83.5t-1 -133.5v-201.5l86 -15l-19 -37q-10 -1 -30 -4t-41 -5.5t-36.5 -4.5t-18.5 -2t-11 7t-15.5 15t-7.5 11q2 39 5.5 75.5t3.5 91.5q0 42 -3 82.5t-5 78t0 69.5zM242 293l192 6v-53l-192 6v41z
M289 525v-424q0 -6 -5 -21.5t-16 -35.5h-31v481h52zM48 546l7 74q55 -4 118.5 -10.5t124 -14t106.5 -14.5t66 -13q2 -1 7.5 -5.5t11 -10t9.5 -11t4 -7.5v-474l62 -15v-39q-12 -2 -31 -4.5t-39 -5t-35 -4t-18 -1.5t-11 7.5t-14.5 15.5t-6.5 11v464l-223 26l-33 -2l-2 6z
M283 807l-17 28q23 15 33.5 30.5t10.5 27.5q0 11 -8.5 18t-25.5 7q-4 0 -9.5 -0.5t-10.5 -1.5l-9 42q26 8 46 8q38 0 60 -21t18 -57q-2 -14 -25 -37.5t-63 -43.5zM190 664l-23 30l96 91h66l96 -91l-23 -30l-102 44h-8z" />
    <glyph glyph-name="uni1EAA" unicode="&#x1eaa;" horiz-adv-x="594" 
d="M90 421q11 21 22 37.5t23.5 33t28.5 37.5h27q-3 -20 -5 -51.5t-3 -83.5t-1 -133.5v-201.5l86 -15l-19 -37q-10 -1 -30 -4t-41 -5.5t-36.5 -4.5t-18.5 -2t-11 7t-15.5 15t-7.5 11q2 39 5.5 75.5t3.5 91.5q0 42 -3 82.5t-5 78t0 69.5zM242 293l192 6v-53l-192 6v41z
M289 525v-424q0 -6 -5 -21.5t-16 -35.5h-31v481h52zM48 546l7 74q55 -4 118.5 -10.5t124 -14t106.5 -14.5t66 -13q2 -1 7.5 -5.5t11 -10t9.5 -11t4 -7.5v-474l62 -15v-39q-12 -2 -31 -4.5t-39 -5t-35 -4t-18 -1.5t-11 7.5t-14.5 15.5t-6.5 11v464l-223 26l-33 -2l-2 6z
M263 802h66l98 -136l-28 -25l-99 84h-8l-99 -84l-28 25zM357 841q-26 0 -51.5 9.5t-45.5 18.5t-30 9q-5 0 -16.5 -7t-23 -15.5t-15.5 -11.5l-32 27q6 8 17 21t24.5 26t26 22t21.5 9q20 0 47.5 -10t51.5 -20.5t34 -10.5q8 0 24.5 13.5t24.5 23.5l34 -29q-6 -8 -17 -20.5
t-24.5 -25t-27 -21t-22.5 -8.5z" />
    <glyph glyph-name="uni0200" unicode="&#x200;" horiz-adv-x="594" 
d="M90 421q11 21 22 37.5t23.5 33t28.5 37.5h27q-3 -20 -5 -51.5t-3 -83.5t-1 -133.5v-201.5l86 -15l-19 -37q-10 -1 -30 -4t-41 -5.5t-36.5 -4.5t-18.5 -2t-11 7t-15.5 15t-7.5 11q2 39 5.5 75.5t3.5 91.5q0 42 -3 82.5t-5 78t0 69.5zM242 293l192 6v-53l-192 6v41z
M289 525v-424q0 -6 -5 -21.5t-16 -35.5h-31v481h52zM48 546l7 74q55 -4 118.5 -10.5t124 -14t106.5 -14.5t66 -13q2 -1 7.5 -5.5t11 -10t9.5 -11t4 -7.5v-474l62 -15v-39q-12 -2 -31 -4.5t-39 -5t-35 -4t-18 -1.5t-11 7.5t-14.5 15.5t-6.5 11v464l-223 26l-33 -2l-2 6z
M431 663q-43 14 -85.5 32t-79.5 31l-5 24l43 57l145 -110zM237 666q-43 12 -86 29t-81 28l-5 24l40 58l149 -105z" />
    <glyph glyph-name="Adieresis" unicode="&#xc4;" horiz-adv-x="594" 
d="M90 421q11 21 22 37.5t23.5 33t28.5 37.5h27q-3 -20 -5 -51.5t-3 -83.5t-1 -133.5v-201.5l86 -15l-19 -37q-10 -1 -30 -4t-41 -5.5t-36.5 -4.5t-18.5 -2t-11 7t-15.5 15t-7.5 11q2 39 5.5 75.5t3.5 91.5q0 42 -3 82.5t-5 78t0 69.5zM242 293l192 6v-53l-192 6v41z
M289 525v-424q0 -6 -5 -21.5t-16 -35.5h-31v481h52zM48 546l7 74q55 -4 118.5 -10.5t124 -14t106.5 -14.5t66 -13q2 -1 7.5 -5.5t11 -10t9.5 -11t4 -7.5v-474l62 -15v-39q-12 -2 -31 -4.5t-39 -5t-35 -4t-18 -1.5t-11 7.5t-14.5 15.5t-6.5 11v464l-223 26l-33 -2l-2 6z
M336 736q0 2 7.5 8t17.5 13.5t18.5 12.5t10.5 5q3 0 11.5 -6.5t17.5 -15.5t15 -17.5t5 -12.5l-4 -18q-1 -3 -8 -9t-17 -13t-18 -12t-11 -5q-4 0 -12 6.5t-16.5 16t-14 17.5t-5.5 11zM160 736q0 2 7.5 8t17.5 13.5t18.5 12.5t10.5 5q3 0 11.5 -6.5t17.5 -15.5t15 -17.5
t5 -12.5l-4 -18q-1 -3 -8 -9t-17 -13t-18 -12t-11 -5q-4 0 -12 6.5t-16.5 16t-14 17.5t-5.5 11z" />
    <glyph glyph-name="uni1EA0" unicode="&#x1ea0;" horiz-adv-x="594" 
d="M90 421q11 21 22 37.5t23.5 33t28.5 37.5h27q-3 -20 -5 -51.5t-3 -83.5t-1 -133.5v-201.5l86 -15l-19 -37q-10 -1 -30 -4t-41 -5.5t-36.5 -4.5t-18.5 -2t-11 7t-15.5 15t-7.5 11q2 39 5.5 75.5t3.5 91.5q0 42 -3 82.5t-5 78t0 69.5zM242 293l192 6v-53l-192 6v41z
M289 525v-424q0 -6 -5 -21.5t-16 -35.5h-31v481h52zM48 546l7 74q55 -4 118.5 -10.5t124 -14t106.5 -14.5t66 -13q2 -1 7.5 -5.5t11 -10t9.5 -11t4 -7.5v-474l62 -15v-39q-12 -2 -31 -4.5t-39 -5t-35 -4t-18 -1.5t-11 7.5t-14.5 15.5t-6.5 11v464l-223 26l-33 -2l-2 6z
M245 -121q0 2 7.5 8t17.5 13.5t18.5 12.5t10.5 5q3 0 11.5 -6.5t17.5 -15.5t15 -17.5t5 -12.5l-4 -18q0 -3 -7.5 -9t-17.5 -13t-18 -12t-11 -5q-4 0 -12 6.5t-16.5 16t-14 17.5t-5.5 11z" />
    <glyph glyph-name="Agrave" unicode="&#xc0;" horiz-adv-x="594" 
d="M90 421q11 21 22 37.5t23.5 33t28.5 37.5h27q-3 -20 -5 -51.5t-3 -83.5t-1 -133.5v-201.5l86 -15l-19 -37q-10 -1 -30 -4t-41 -5.5t-36.5 -4.5t-18.5 -2t-11 7t-15.5 15t-7.5 11q2 39 5.5 75.5t3.5 91.5q0 42 -3 82.5t-5 78t0 69.5zM242 293l192 6v-53l-192 6v41z
M289 525v-424q0 -6 -5 -21.5t-16 -35.5h-31v481h52zM48 546l7 74q55 -4 118.5 -10.5t124 -14t106.5 -14.5t66 -13q2 -1 7.5 -5.5t11 -10t9.5 -11t4 -7.5v-474l62 -15v-39q-12 -2 -31 -4.5t-39 -5t-35 -4t-18 -1.5t-11 7.5t-14.5 15.5t-6.5 11v464l-223 26l-33 -2l-2 6z
M357 660q-29 7 -62 14.5t-64.5 15.5t-57.5 14l-4 26l40 60l163 -94z" />
    <glyph glyph-name="uni1EA2" unicode="&#x1ea2;" horiz-adv-x="594" 
d="M90 421q11 21 22 37.5t23.5 33t28.5 37.5h27q-3 -20 -5 -51.5t-3 -83.5t-1 -133.5v-201.5l86 -15l-19 -37q-10 -1 -30 -4t-41 -5.5t-36.5 -4.5t-18.5 -2t-11 7t-15.5 15t-7.5 11q2 39 5.5 75.5t3.5 91.5q0 42 -3 82.5t-5 78t0 69.5zM242 293l192 6v-53l-192 6v41z
M289 525v-424q0 -6 -5 -21.5t-16 -35.5h-31v481h52zM48 546l7 74q55 -4 118.5 -10.5t124 -14t106.5 -14.5t66 -13q2 -1 7.5 -5.5t11 -10t9.5 -11t4 -7.5v-474l62 -15v-39q-12 -2 -31 -4.5t-39 -5t-35 -4t-18 -1.5t-11 7.5t-14.5 15.5t-6.5 11v464l-223 26l-33 -2l-2 6z
M283 638l-20 34q27 18 40.5 37t13.5 34q0 14 -10.5 22.5t-31.5 8.5q-6 0 -12 -0.5t-13 -2.5l-11 50q15 5 31 7.5t29 2.5q44 0 69 -21t25 -54v-10t-2 -10q-1 -11 -14.5 -28t-37 -35.5t-56.5 -34.5z" />
    <glyph glyph-name="uni0202" unicode="&#x202;" horiz-adv-x="594" 
d="M90 421q11 21 22 37.5t23.5 33t28.5 37.5h27q-3 -20 -5 -51.5t-3 -83.5t-1 -133.5v-201.5l86 -15l-19 -37q-10 -1 -30 -4t-41 -5.5t-36.5 -4.5t-18.5 -2t-11 7t-15.5 15t-7.5 11q2 39 5.5 75.5t3.5 91.5q0 42 -3 82.5t-5 78t0 69.5zM242 293l192 6v-53l-192 6v41z
M289 525v-424q0 -6 -5 -21.5t-16 -35.5h-31v481h52zM48 546l7 74q55 -4 118.5 -10.5t124 -14t106.5 -14.5t66 -13q2 -1 7.5 -5.5t11 -10t9.5 -11t4 -7.5v-474l62 -15v-39q-12 -2 -31 -4.5t-39 -5t-35 -4t-18 -1.5t-11 7.5t-14.5 15.5t-6.5 11v464l-223 26l-33 -2l-2 6z
M297 787q33 0 62.5 -16.5t51.5 -40t32 -43.5l-28 -25q-25 26 -53.5 43t-64.5 17t-64.5 -17t-53.5 -43l-28 25q10 20 32 43.5t52 40t62 16.5z" />
    <glyph glyph-name="Amacron" unicode="&#x100;" horiz-adv-x="594" 
d="M90 421q11 21 22 37.5t23.5 33t28.5 37.5h27q-3 -20 -5 -51.5t-3 -83.5t-1 -133.5v-201.5l86 -15l-19 -37q-10 -1 -30 -4t-41 -5.5t-36.5 -4.5t-18.5 -2t-11 7t-15.5 15t-7.5 11q2 39 5.5 75.5t3.5 91.5q0 42 -3 82.5t-5 78t0 69.5zM242 293l192 6v-53l-192 6v41z
M289 525v-424q0 -6 -5 -21.5t-16 -35.5h-31v481h52zM48 546l7 74q55 -4 118.5 -10.5t124 -14t106.5 -14.5t66 -13q2 -1 7.5 -5.5t11 -10t9.5 -11t4 -7.5v-474l62 -15v-39q-12 -2 -31 -4.5t-39 -5t-35 -4t-18 -1.5t-11 7.5t-14.5 15.5t-6.5 11v464l-223 26l-33 -2l-2 6z
M158 664v62h285v-62h-285z" />
    <glyph glyph-name="Aogonek" unicode="&#x104;" horiz-adv-x="594" 
d="M90 421q11 21 22 37.5t23.5 33t28.5 37.5h27q-3 -20 -5 -51.5t-3 -83.5t-1 -133.5v-201.5l86 -15l-19 -37q-10 -1 -30 -4t-41 -5.5t-36.5 -4.5t-18.5 -2t-11 7t-15.5 15t-7.5 11q2 39 5.5 75.5t3.5 91.5q0 42 -3 82.5t-5 78t0 69.5zM242 293l192 6v-53l-192 6v41z
M289 525v-424q0 -6 -5 -21.5t-16 -35.5h-31v481h52zM48 546l7 74q55 -4 118.5 -10.5t124 -14t106.5 -14.5t66 -13q2 -1 7.5 -5.5t11 -10t9.5 -11t4 -7.5v-474l62 -15v-39q-12 -2 -31 -4.5t-39 -5t-35 -4t-18 -1.5t-11 7.5t-14.5 15.5t-6.5 11v464l-223 26l-33 -2l-2 6z
M458 -229q-19 0 -37 15t-30 38t-12 46q0 8 1 19t5 27q19 18 47 38.5t56 39t47 30.5l22 -24q-22 -21 -46.5 -44.5t-41.5 -42t-17 -24.5q0 -34 7.5 -50t20.5 -16h69v-33q-3 -1 -23 -5.5t-40.5 -9t-27.5 -4.5z" />
    <glyph glyph-name="Aring" unicode="&#xc5;" horiz-adv-x="594" 
d="M90 421q11 21 22 37.5t23.5 33t28.5 37.5h27q-3 -20 -5 -51.5t-3 -83.5t-1 -133.5v-201.5l86 -15l-19 -37q-10 -1 -30 -4t-41 -5.5t-36.5 -4.5t-18.5 -2t-11 7t-15.5 15t-7.5 11q2 39 5.5 75.5t3.5 91.5q0 42 -3 82.5t-5 78t0 69.5zM242 293l192 6v-53l-192 6v41z
M289 525v-424q0 -6 -5 -21.5t-16 -35.5h-31v481h52zM48 546l7 74q55 -4 118.5 -10.5t124 -14t106.5 -14.5t66 -13q2 -1 7.5 -5.5t11 -10t9.5 -11t4 -7.5v-474l62 -15v-39q-12 -2 -31 -4.5t-39 -5t-35 -4t-18 -1.5t-11 7.5t-14.5 15.5t-6.5 11v464l-223 26l-33 -2l-2 6z
M297 655q-49 0 -75.5 24t-26.5 81q0 48 27.5 75t76.5 27q50 0 77.5 -24t27.5 -81q0 -48 -28.5 -75t-78.5 -27zM297 696q13 0 23 3.5t19 7.5q2 8 3 20.5t1 28.5q0 40 -10.5 52.5t-33.5 12.5q-13 0 -21.5 -3t-17.5 -8q-1 -8 -2.5 -20.5t-1.5 -28.5q0 -40 9.5 -52.5t31.5 -12.5
z" />
    <glyph glyph-name="Aringacute" unicode="&#x1fa;" horiz-adv-x="594" 
d="M90 421q11 21 22 37.5t23.5 33t28.5 37.5h27q-3 -20 -5 -51.5t-3 -83.5t-1 -133.5v-201.5l86 -15l-19 -37q-10 -1 -30 -4t-41 -5.5t-36.5 -4.5t-18.5 -2t-11 7t-15.5 15t-7.5 11q2 39 5.5 75.5t3.5 91.5q0 42 -3 82.5t-5 78t0 69.5zM242 293l192 6v-53l-192 6v41z
M289 525v-424q0 -6 -5 -21.5t-16 -35.5h-31v481h52zM48 546l7 74q55 -4 118.5 -10.5t124 -14t106.5 -14.5t66 -13q2 -1 7.5 -5.5t11 -10t9.5 -11t4 -7.5v-474l62 -15v-39q-12 -2 -31 -4.5t-39 -5t-35 -4t-18 -1.5t-11 7.5t-14.5 15.5t-6.5 11v464l-223 26l-33 -2l-2 6z
M296 655q-43 0 -65.5 20.5t-22.5 69.5q0 42 23.5 65t66.5 23q42 0 66 -20.5t24 -69.5q0 -41 -24.5 -64.5t-67.5 -23.5zM296 693q10 0 18.5 2.5t15.5 6.5q2 7 2.5 17t0.5 23q0 33 -8.5 43t-26.5 10q-10 0 -17.5 -2t-14.5 -7q-3 -13 -3 -40q0 -32 7 -42.5t26 -10.5zM243 855
l-16 31l145 98l37 -54l-5 -23q-34 -11 -77 -25t-84 -27z" />
    <glyph glyph-name="Atilde" unicode="&#xc3;" horiz-adv-x="594" 
d="M90 421q11 21 22 37.5t23.5 33t28.5 37.5h27q-3 -20 -5 -51.5t-3 -83.5t-1 -133.5v-201.5l86 -15l-19 -37q-10 -1 -30 -4t-41 -5.5t-36.5 -4.5t-18.5 -2t-11 7t-15.5 15t-7.5 11q2 39 5.5 75.5t3.5 91.5q0 42 -3 82.5t-5 78t0 69.5zM242 293l192 6v-53l-192 6v41z
M289 525v-424q0 -6 -5 -21.5t-16 -35.5h-31v481h52zM48 546l7 74q55 -4 118.5 -10.5t124 -14t106.5 -14.5t66 -13q2 -1 7.5 -5.5t11 -10t9.5 -11t4 -7.5v-474l62 -15v-39q-12 -2 -31 -4.5t-39 -5t-35 -4t-18 -1.5t-11 7.5t-14.5 15.5t-6.5 11v464l-223 26l-33 -2l-2 6z
M361 657q-26 0 -51.5 9.5t-45.5 18.5t-30 9q-5 0 -16.5 -7t-23 -15.5t-15.5 -11.5l-32 27q6 8 17 21t24.5 26t26 22t21.5 9q20 0 47.5 -10t51.5 -20.5t34 -10.5q8 0 24.5 13.5t24.5 23.5l34 -29q-6 -8 -17 -20.5t-24.5 -25t-27 -21t-22.5 -8.5z" />
    <glyph glyph-name="AE" unicode="&#xc6;" horiz-adv-x="846" 
d="M584 603h25v-502q0 -6 -5 -21.5t-16 -35.5h-31v473q0 11 8.5 35t18.5 51zM562 334l148 8l-6 -67l-142 8v51zM587 603h203l-13 -175h-54l-11 110l-128 12zM90 421q11 21 22 37.5t23.5 33t28.5 37.5h27q-3 -20 -5 -51.5t-3 -83.5t-1 -133.5v-201.5l86 -15l-19 -37
q-10 -1 -30 -4t-41 -5.5t-36.5 -4.5t-18.5 -2t-11 7t-15.5 15t-7.5 11q2 39 5.5 75.5t3.5 91.5q0 42 -3 82.5t-5 78t0 69.5zM242 293l192 6v-53l-192 6v41zM289 525v-424q0 -6 -5 -21.5t-16 -35.5h-31v481h52zM48 546l7 74q55 -4 118.5 -10.5t124 -14t106.5 -14.5t66 -13
q2 -1 7.5 -5.5t11 -10t9.5 -11t4 -7.5v-469l219 -20l16 134h54l4 -179q-63 -2 -111 -3.5t-87 -3t-75.5 -2t-78.5 -0.5q-4 0 -12.5 7t-15 15t-6.5 11v465l-223 26l-33 -2l-2 6z" />
    <glyph glyph-name="AEacute" unicode="&#x1fc;" horiz-adv-x="846" 
d="M584 603h25v-502q0 -6 -5 -21.5t-16 -35.5h-31v473q0 11 8.5 35t18.5 51zM562 334l148 8l-6 -67l-142 8v51zM587 603h203l-13 -175h-54l-11 110l-128 12zM90 421q11 21 22 37.5t23.5 33t28.5 37.5h27q-3 -20 -5 -51.5t-3 -83.5t-1 -133.5v-201.5l86 -15l-19 -37
q-10 -1 -30 -4t-41 -5.5t-36.5 -4.5t-18.5 -2t-11 7t-15.5 15t-7.5 11q2 39 5.5 75.5t3.5 91.5q0 42 -3 82.5t-5 78t0 69.5zM242 293l192 6v-53l-192 6v41zM289 525v-424q0 -6 -5 -21.5t-16 -35.5h-31v481h52zM48 546l7 74q55 -4 118.5 -10.5t124 -14t106.5 -14.5t66 -13
q2 -1 7.5 -5.5t11 -10t9.5 -11t4 -7.5v-469l219 -20l16 134h54l4 -179q-63 -2 -111 -3.5t-87 -3t-75.5 -2t-78.5 -0.5q-4 0 -12.5 7t-15 15t-6.5 11v465l-223 26l-33 -2l-2 6zM418 623l-15 36l163 94l40 -60l-4 -26q-25 -6 -57 -14t-64.5 -15.5t-62.5 -14.5z" />
    <glyph glyph-name="B" unicode="B" horiz-adv-x="543" 
d="M30 558v39q12 2 31 4.5t39 5t35 4t18 1.5t11 -7t14.5 -15.5t6.5 -11.5v-512l188 -21q8 -1 15 6.5t12.5 24.5t9 44t3.5 66q0 42 -15 60t-46 23l-87 14v47h73q6 0 12 9.5t11 26.5t8.5 38.5t3.5 45.5q0 48 -3.5 72.5t-13 32.5t-26.5 6l-62 -5l8 56h41q50 0 84 -14.5t52 -50
t18 -100.5q0 -10 -10.5 -30t-29 -44t-42.5 -48v-6q57 -10 89.5 -49t32.5 -96q0 -26 -3 -49t-11 -38q-4 -8 -17 -20t-29.5 -25t-34.5 -24.5t-33.5 -18.5t-25.5 -7q-25 0 -57 1t-65 3t-62 4t-47 5q-3 1 -11 7.5t-15.5 14.5t-7.5 11v505zM267 612h25v-511q0 -6 -3 -17t-14 -31
h-35v473q0 11 8.5 35t18.5 51z" />
    <glyph glyph-name="C" unicode="C" horiz-adv-x="447" 
d="M162 544q-6 -36 -11.5 -69.5t-8.5 -72t-3 -90.5q0 -101 17.5 -154.5t47 -73t63.5 -19.5l140 1v-52q-13 -4 -41.5 -8t-60 -7.5t-55.5 -5.5t-30 -2q-44 0 -85.5 30t-68 93.5t-26.5 162.5q0 69 8.5 126t21.5 91q11 16 29 34.5t37 34.5zM204 63v460q0 11 8.5 35t18.5 51h25
v-489q0 -6 -5 -21.5t-16 -35.5h-31zM409 429h-54l-12 102q-12 3 -30 6t-34.5 5t-27.5 2q-10 0 -17.5 -0.5t-12.5 -1.5l10 67q5 2 8 2.5t7 0.5q10 0 40.5 -1.5t67.5 -3.5t67 -5z" />
    <glyph glyph-name="Cacute" unicode="&#x106;" horiz-adv-x="447" 
d="M162 544q-6 -36 -11.5 -69.5t-8.5 -72t-3 -90.5q0 -101 17.5 -154.5t47 -73t63.5 -19.5l140 1v-52q-13 -4 -41.5 -8t-60 -7.5t-55.5 -5.5t-30 -2q-44 0 -85.5 30t-68 93.5t-26.5 162.5q0 69 8.5 126t21.5 91q11 16 29 34.5t37 34.5zM204 63v460q0 11 8.5 35t18.5 51h25
v-489q0 -6 -5 -21.5t-16 -35.5h-31zM409 429h-54l-12 102q-12 3 -30 6t-34.5 5t-27.5 2q-10 0 -17.5 -0.5t-12.5 -1.5l10 67q5 2 8 2.5t7 0.5q10 0 40.5 -1.5t67.5 -3.5t67 -5zM209 660l-15 36l163 94l40 -60l-4 -26q-25 -6 -57 -14t-64.5 -15.5t-62.5 -14.5z" />
    <glyph glyph-name="Ccaron" unicode="&#x10c;" horiz-adv-x="447" 
d="M162 544q-6 -36 -11.5 -69.5t-8.5 -72t-3 -90.5q0 -101 17.5 -154.5t47 -73t63.5 -19.5l140 1v-52q-13 -4 -41.5 -8t-60 -7.5t-55.5 -5.5t-30 -2q-44 0 -85.5 30t-68 93.5t-26.5 162.5q0 69 8.5 126t21.5 91q11 16 29 34.5t37 34.5zM204 63v460q0 11 8.5 35t18.5 51h25
v-489q0 -6 -5 -21.5t-16 -35.5h-31zM409 429h-54l-12 102q-12 3 -30 6t-34.5 5t-27.5 2q-10 0 -17.5 -0.5t-12.5 -1.5l10 67q5 2 8 2.5t7 0.5q10 0 40.5 -1.5t67.5 -3.5t67 -5zM227 644l-98 136l28 25l99 -84h8l99 84l28 -25l-98 -136h-66z" />
    <glyph glyph-name="Ccedilla" unicode="&#xc7;" horiz-adv-x="447" 
d="M162 544q-6 -36 -11.5 -69.5t-8.5 -72t-3 -90.5q0 -101 17.5 -154.5t47 -73t63.5 -19.5l140 1v-52q-13 -4 -41.5 -8t-60 -7.5t-55.5 -5.5t-30 -2q-44 0 -85.5 30t-68 93.5t-26.5 162.5q0 69 8.5 126t21.5 91q11 16 29 34.5t37 34.5zM204 63v460q0 11 8.5 35t18.5 51h25
v-489q0 -6 -5 -21.5t-16 -35.5h-31zM409 429h-54l-12 102q-12 3 -30 6t-34.5 5t-27.5 2q-10 0 -17.5 -0.5t-12.5 -1.5l10 67q5 2 8 2.5t7 0.5q10 0 40.5 -1.5t67.5 -3.5t67 -5zM204 -218l-21 33q34 18 54.5 31t20.5 30q0 15 -21 23.5t-42 10.5l-6 24l27 77l42 -3l-7 -54
q34 -4 61 -22.5t27 -42.5q0 -11 -2.5 -22.5t-7.5 -22.5q-7 -6 -20 -14t-37.5 -19.5t-67.5 -28.5z" />
    <glyph glyph-name="Ccircumflex" unicode="&#x108;" horiz-adv-x="447" 
d="M162 544q-6 -36 -11.5 -69.5t-8.5 -72t-3 -90.5q0 -101 17.5 -154.5t47 -73t63.5 -19.5l140 1v-52q-13 -4 -41.5 -8t-60 -7.5t-55.5 -5.5t-30 -2q-44 0 -85.5 30t-68 93.5t-26.5 162.5q0 69 8.5 126t21.5 91q11 16 29 34.5t37 34.5zM204 63v460q0 11 8.5 35t18.5 51h25
v-489q0 -6 -5 -21.5t-16 -35.5h-31zM409 429h-54l-12 102q-12 3 -30 6t-34.5 5t-27.5 2q-10 0 -17.5 -0.5t-12.5 -1.5l10 67q5 2 8 2.5t7 0.5q10 0 40.5 -1.5t67.5 -3.5t67 -5zM157 658l-30 30l103 104h56l103 -104l-30 -30l-96 64h-11z" />
    <glyph glyph-name="Cdotaccent" unicode="&#x10a;" horiz-adv-x="447" 
d="M162 544q-6 -36 -11.5 -69.5t-8.5 -72t-3 -90.5q0 -101 17.5 -154.5t47 -73t63.5 -19.5l140 1v-52q-13 -4 -41.5 -8t-60 -7.5t-55.5 -5.5t-30 -2q-44 0 -85.5 30t-68 93.5t-26.5 162.5q0 69 8.5 126t21.5 91q11 16 29 34.5t37 34.5zM204 63v460q0 11 8.5 35t18.5 51h25
v-489q0 -6 -5 -21.5t-16 -35.5h-31zM409 429h-54l-12 102q-12 3 -30 6t-34.5 5t-27.5 2q-10 0 -17.5 -0.5t-12.5 -1.5l10 67q5 2 8 2.5t7 0.5q10 0 40.5 -1.5t67.5 -3.5t67 -5zM207 741q0 2 7.5 8t17.5 13.5t18.5 12.5t10.5 5q3 0 11.5 -6.5t17.5 -15.5t15 -17.5t5 -12.5
l-4 -18q-1 -3 -8 -9t-17 -13t-18 -12t-11 -5q-4 0 -12 6.5t-16.5 16t-14 17.5t-5.5 11z" />
    <glyph glyph-name="D" unicode="D" horiz-adv-x="558" 
d="M30 558v39q12 2 31 4.5t39 5t35 4t18 1.5t11 -7t14.5 -15.5t6.5 -11.5v-512l171 -19q12 -1 21 5t16 19.5t11 32.5q9 35 12 88t3 120q0 52 -6.5 98t-18.5 80.5t-29 53.5t-39 17l-54 -4l7 55h28q38 0 75.5 -14.5t68 -48t49 -90t18.5 -141.5q0 -59 -6 -109.5t-16 -88.5
q-2 -7 -13.5 -22t-29 -33t-37.5 -34.5t-38.5 -27.5t-32.5 -11q-30 0 -70 1.5t-79.5 4.5t-69.5 7q-3 1 -11 7.5t-15.5 14.5t-7.5 11v505zM267 612h25v-509q0 -6 -5 -21.5t-16 -35.5h-31v480q0 11 8.5 35t18.5 51z" />
    <glyph glyph-name="uni01C4" unicode="&#x1c4;" horiz-adv-x="1060" 
d="M30 558v39q12 2 31 4.5t39 5t35 4t18 1.5t11 -7t14.5 -15.5t6.5 -11.5v-512l171 -19q12 -1 21 5t16 19.5t11 32.5q9 35 12 88t3 120q0 52 -6.5 98t-18.5 80.5t-29 53.5t-39 17l-54 -4l7 55h28q38 0 75.5 -14.5t68 -48t49 -90t18.5 -141.5q0 -59 -6 -109.5t-16 -88.5
q-2 -7 -13.5 -22t-29 -33t-37.5 -34.5t-38.5 -27.5t-32.5 -11q-30 0 -70 1.5t-79.5 4.5t-69.5 7q-3 1 -11 7.5t-15.5 14.5t-7.5 11v505zM267 612h25v-509q0 -6 -5 -21.5t-16 -35.5h-31v480q0 11 8.5 35t18.5 51zM953 578l-334 -578l-27 9q-2 20 -2 41t1.5 39.5t4 32.5
t6.5 21l224 397l-172 14l-9 -126h-55l-13 175q34 1 75 2t84 2.5t82 2.5t68.5 1.5t43.5 0.5q5 0 13.5 -12t9.5 -22zM695 25l334 578l27 -9q-2 -14 -7 -35t-11 -39.5t-11 -27.5l-246 -427l182 -16l12 135h54l11 -184q-44 -1 -93.5 -2.5t-95.5 -3t-82 -2.5t-53 -1q-5 0 -12 12
t-9 22zM891 355l134 14l-8 -78l-126 4v60zM756 301l-162 -27l7 84l155 1v-58zM773 644l-98 136l28 25l99 -84h8l99 84l28 -25l-98 -136h-66z" />
    <glyph glyph-name="Eth" unicode="&#xd0;" horiz-adv-x="558" 
d="M30 558v39q12 2 31 4.5t39 5t35 4t18 1.5t11 -7t14.5 -15.5t6.5 -11.5v-512l171 -19q12 -1 21 5t16 19.5t11 32.5q9 35 12 88t3 120q0 52 -6.5 98t-18.5 80.5t-29 53.5t-39 17l-54 -4l7 55h28q38 0 75.5 -14.5t68 -48t49 -90t18.5 -141.5q0 -59 -6 -109.5t-16 -88.5
q-2 -7 -13.5 -22t-29 -33t-37.5 -34.5t-38.5 -27.5t-32.5 -11q-30 0 -70 1.5t-79.5 4.5t-69.5 7q-3 1 -11 7.5t-15.5 14.5t-7.5 11v505zM267 612h25v-509q0 -6 -5 -21.5t-16 -35.5h-31v480q0 11 8.5 35t18.5 51zM251 326l116 5l-1 -53l-115 5v43zM155 283l-123 -5v53l123 -5
v-43z" />
    <glyph glyph-name="Dcaron" unicode="&#x10e;" horiz-adv-x="558" 
d="M30 558v39q12 2 31 4.5t39 5t35 4t18 1.5t11 -7t14.5 -15.5t6.5 -11.5v-512l171 -19q12 -1 21 5t16 19.5t11 32.5q9 35 12 88t3 120q0 52 -6.5 98t-18.5 80.5t-29 53.5t-39 17l-54 -4l7 55h28q38 0 75.5 -14.5t68 -48t49 -90t18.5 -141.5q0 -59 -6 -109.5t-16 -88.5
q-2 -7 -13.5 -22t-29 -33t-37.5 -34.5t-38.5 -27.5t-32.5 -11q-30 0 -70 1.5t-79.5 4.5t-69.5 7q-3 1 -11 7.5t-15.5 14.5t-7.5 11v505zM267 612h25v-509q0 -6 -5 -21.5t-16 -35.5h-31v480q0 11 8.5 35t18.5 51zM244 644l-98 136l28 25l99 -84h8l99 84l28 -25l-98 -136h-66z
" />
    <glyph glyph-name="Dcroat" unicode="&#x110;" horiz-adv-x="558" 
d="M30 558v39q12 2 31 4.5t39 5t35 4t18 1.5t11 -7t14.5 -15.5t6.5 -11.5v-512l171 -19q12 -1 21 5t16 19.5t11 32.5q9 35 12 88t3 120q0 52 -6.5 98t-18.5 80.5t-29 53.5t-39 17l-54 -4l7 55h28q38 0 75.5 -14.5t68 -48t49 -90t18.5 -141.5q0 -59 -6 -109.5t-16 -88.5
q-2 -7 -13.5 -22t-29 -33t-37.5 -34.5t-38.5 -27.5t-32.5 -11q-30 0 -70 1.5t-79.5 4.5t-69.5 7q-3 1 -11 7.5t-15.5 14.5t-7.5 11v505zM267 612h25v-509q0 -6 -5 -21.5t-16 -35.5h-31v480q0 11 8.5 35t18.5 51zM251 326l116 5l-1 -53l-115 5v43zM155 283l-123 -5v53l123 -5
v-43z" />
    <glyph glyph-name="uni01C5" unicode="&#x1c5;" horiz-adv-x="951" 
d="M30 558v39q12 2 31 4.5t39 5t35 4t18 1.5t11 -7t14.5 -15.5t6.5 -11.5v-512l171 -19q12 -1 21 5t16 19.5t11 32.5q9 35 12 88t3 120q0 52 -6.5 98t-18.5 80.5t-29 53.5t-39 17l-54 -4l7 55h28q38 0 75.5 -14.5t68 -48t49 -90t18.5 -141.5q0 -59 -6 -109.5t-16 -88.5
q-2 -7 -13.5 -22t-29 -33t-37.5 -34.5t-38.5 -27.5t-32.5 -11q-30 0 -70 1.5t-79.5 4.5t-69.5 7q-3 1 -11 7.5t-15.5 14.5t-7.5 11v505zM267 612h25v-509q0 -6 -5 -21.5t-16 -35.5h-31v480q0 11 8.5 35t18.5 51zM619 0q-5 7 -13 24t-10 22q51 83 93.5 160t95.5 168l-2 12
l-110 6l-9 -66h-52l-8 122h275q4 -6 12 -20.5t11 -24.5q-46 -82 -92 -162.5t-93 -160.5v-14l134 -6l12 84h51l3 -144h-298zM719 519l-98 136l28 25l99 -84h8l99 84l28 -25l-98 -136h-66z" />
    <glyph glyph-name="E" unicode="E" horiz-adv-x="529" 
d="M30 558v39q12 2 31 4.5t39 5t35 4t18 1.5t11 -7t14.5 -15.5t6.5 -11.5v-513l219 -20l16 134h54l4 -179q-63 -2 -111 -3.5t-87 -2.5t-75.5 -1.5t-78.5 -1.5q-4 0 -12.5 7t-15 15t-6.5 11v519zM267 603h25v-502q0 -6 -5 -21.5t-16 -35.5h-31v473q0 11 8.5 35t18.5 51z
M245 334l148 8l-6 -67l-142 8v51zM270 603h203l-13 -175h-54l-11 110l-128 12z" />
    <glyph glyph-name="Eacute" unicode="&#xc9;" horiz-adv-x="529" 
d="M30 558v39q12 2 31 4.5t39 5t35 4t18 1.5t11 -7t14.5 -15.5t6.5 -11.5v-513l219 -20l16 134h54l4 -179q-63 -2 -111 -3.5t-87 -2.5t-75.5 -1.5t-78.5 -1.5q-4 0 -12.5 7t-15 15t-6.5 11v519zM267 603h25v-502q0 -6 -5 -21.5t-16 -35.5h-31v473q0 11 8.5 35t18.5 51z
M245 334l148 8l-6 -67l-142 8v51zM270 603h203l-13 -175h-54l-11 110l-128 12zM242 660l-15 36l163 94l40 -60l-4 -26q-25 -6 -57 -14t-64.5 -15.5t-62.5 -14.5z" />
    <glyph glyph-name="Ebreve" unicode="&#x114;" horiz-adv-x="529" 
d="M30 558v39q12 2 31 4.5t39 5t35 4t18 1.5t11 -7t14.5 -15.5t6.5 -11.5v-513l219 -20l16 134h54l4 -179q-63 -2 -111 -3.5t-87 -2.5t-75.5 -1.5t-78.5 -1.5q-4 0 -12.5 7t-15 15t-6.5 11v519zM267 603h25v-502q0 -6 -5 -21.5t-16 -35.5h-31v473q0 11 8.5 35t18.5 51z
M245 334l148 8l-6 -67l-142 8v51zM270 603h203l-13 -175h-54l-11 110l-128 12zM291 662q-32 0 -62 16.5t-52 40t-32 43.5l28 25q25 -25 53.5 -42.5t64.5 -17.5t64.5 17.5t53.5 42.5l28 -25q-10 -20 -32 -43.5t-51.5 -40t-62.5 -16.5z" />
    <glyph glyph-name="Ecaron" unicode="&#x11a;" horiz-adv-x="529" 
d="M30 558v39q12 2 31 4.5t39 5t35 4t18 1.5t11 -7t14.5 -15.5t6.5 -11.5v-513l219 -20l16 134h54l4 -179q-63 -2 -111 -3.5t-87 -2.5t-75.5 -1.5t-78.5 -1.5q-4 0 -12.5 7t-15 15t-6.5 11v519zM267 603h25v-502q0 -6 -5 -21.5t-16 -35.5h-31v473q0 11 8.5 35t18.5 51z
M245 334l148 8l-6 -67l-142 8v51zM270 603h203l-13 -175h-54l-11 110l-128 12zM260 644l-98 136l28 25l99 -84h8l99 84l28 -25l-98 -136h-66z" />
    <glyph glyph-name="Ecircumflex" unicode="&#xca;" horiz-adv-x="529" 
d="M30 558v39q12 2 31 4.5t39 5t35 4t18 1.5t11 -7t14.5 -15.5t6.5 -11.5v-513l219 -20l16 134h54l4 -179q-63 -2 -111 -3.5t-87 -2.5t-75.5 -1.5t-78.5 -1.5q-4 0 -12.5 7t-15 15t-6.5 11v519zM267 603h25v-502q0 -6 -5 -21.5t-16 -35.5h-31v473q0 11 8.5 35t18.5 51z
M245 334l148 8l-6 -67l-142 8v51zM270 603h203l-13 -175h-54l-11 110l-128 12zM190 658l-30 30l103 104h56l103 -104l-30 -30l-96 64h-11z" />
    <glyph glyph-name="uni1EBE" unicode="&#x1ebe;" horiz-adv-x="529" 
d="M30 558v39q12 2 31 4.5t39 5t35 4t18 1.5t11 -7t14.5 -15.5t6.5 -11.5v-513l219 -20l16 134h54l4 -179q-63 -2 -111 -3.5t-87 -2.5t-75.5 -1.5t-78.5 -1.5q-4 0 -12.5 7t-15 15t-6.5 11v519zM267 603h25v-502q0 -6 -5 -21.5t-16 -35.5h-31v473q0 11 8.5 35t18.5 51z
M245 334l148 8l-6 -67l-142 8v51zM270 603h203l-13 -175h-54l-11 110l-128 12zM184 664l-23 30l96 91h66l96 -91l-23 -30l-102 44h-8zM235 791l-21 32l100 91l44 -54l-2 -25q-34 -14 -59.5 -22.5t-61.5 -21.5z" />
    <glyph glyph-name="uni1EC6" unicode="&#x1ec6;" horiz-adv-x="529" 
d="M30 558v39q12 2 31 4.5t39 5t35 4t18 1.5t11 -7t14.5 -15.5t6.5 -11.5v-513l219 -20l16 134h54l4 -179q-63 -2 -111 -3.5t-87 -2.5t-75.5 -1.5t-78.5 -1.5q-4 0 -12.5 7t-15 15t-6.5 11v519zM267 603h25v-502q0 -6 -5 -21.5t-16 -35.5h-31v473q0 11 8.5 35t18.5 51z
M245 334l148 8l-6 -67l-142 8v51zM270 603h203l-13 -175h-54l-11 110l-128 12zM244 -121q0 2 7.5 8t17.5 13.5t18.5 12.5t10.5 5q3 0 11.5 -6.5t17.5 -15.5t15 -17.5t5 -12.5l-4 -18q0 -3 -7.5 -9t-17.5 -13t-18 -12t-11 -5q-4 0 -12 6.5t-16.5 16t-14 17.5t-5.5 11z
M190 658l-30 30l103 104h56l103 -104l-30 -30l-96 64h-11z" />
    <glyph glyph-name="uni1EC0" unicode="&#x1ec0;" horiz-adv-x="529" 
d="M30 558v39q12 2 31 4.5t39 5t35 4t18 1.5t11 -7t14.5 -15.5t6.5 -11.5v-513l219 -20l16 134h54l4 -179q-63 -2 -111 -3.5t-87 -2.5t-75.5 -1.5t-78.5 -1.5q-4 0 -12.5 7t-15 15t-6.5 11v519zM267 603h25v-502q0 -6 -5 -21.5t-16 -35.5h-31v473q0 11 8.5 35t18.5 51z
M245 334l148 8l-6 -67l-142 8v51zM270 603h203l-13 -175h-54l-11 110l-128 12zM184 664l-23 30l96 91h66l96 -91l-23 -30l-102 44h-8zM345 791q-36 13 -61 21.5t-60 22.5l-2 25l44 54l100 -91z" />
    <glyph glyph-name="uni1EC2" unicode="&#x1ec2;" horiz-adv-x="529" 
d="M30 558v39q12 2 31 4.5t39 5t35 4t18 1.5t11 -7t14.5 -15.5t6.5 -11.5v-513l219 -20l16 134h54l4 -179q-63 -2 -111 -3.5t-87 -2.5t-75.5 -1.5t-78.5 -1.5q-4 0 -12.5 7t-15 15t-6.5 11v519zM267 603h25v-502q0 -6 -5 -21.5t-16 -35.5h-31v473q0 11 8.5 35t18.5 51z
M245 334l148 8l-6 -67l-142 8v51zM270 603h203l-13 -175h-54l-11 110l-128 12zM277 807l-17 28q23 15 33.5 30.5t10.5 27.5q0 11 -8.5 18t-25.5 7q-4 0 -9.5 -0.5t-10.5 -1.5l-9 42q26 8 46 8q38 0 60 -21t18 -57q-2 -14 -25 -37.5t-63 -43.5zM184 664l-23 30l96 91h66
l96 -91l-23 -30l-102 44h-8z" />
    <glyph glyph-name="uni1EC4" unicode="&#x1ec4;" horiz-adv-x="529" 
d="M30 558v39q12 2 31 4.5t39 5t35 4t18 1.5t11 -7t14.5 -15.5t6.5 -11.5v-513l219 -20l16 134h54l4 -179q-63 -2 -111 -3.5t-87 -2.5t-75.5 -1.5t-78.5 -1.5q-4 0 -12.5 7t-15 15t-6.5 11v519zM267 603h25v-502q0 -6 -5 -21.5t-16 -35.5h-31v473q0 11 8.5 35t18.5 51z
M245 334l148 8l-6 -67l-142 8v51zM270 603h203l-13 -175h-54l-11 110l-128 12zM257 802h66l98 -136l-28 -25l-99 84h-8l-99 -84l-28 25zM351 841q-26 0 -51.5 9.5t-45.5 18.5t-30 9q-5 0 -16.5 -7t-23 -15.5t-15.5 -11.5l-32 27q6 8 17 21t24.5 26t26 22t21.5 9
q20 0 47.5 -10t51.5 -20.5t34 -10.5q8 0 24.5 13.5t24.5 23.5l34 -29q-6 -8 -17 -20.5t-24.5 -25t-27 -21t-22.5 -8.5z" />
    <glyph glyph-name="uni0204" unicode="&#x204;" horiz-adv-x="529" 
d="M30 558v39q12 2 31 4.5t39 5t35 4t18 1.5t11 -7t14.5 -15.5t6.5 -11.5v-513l219 -20l16 134h54l4 -179q-63 -2 -111 -3.5t-87 -2.5t-75.5 -1.5t-78.5 -1.5q-4 0 -12.5 7t-15 15t-6.5 11v519zM267 603h25v-502q0 -6 -5 -21.5t-16 -35.5h-31v473q0 11 8.5 35t18.5 51z
M245 334l148 8l-6 -67l-142 8v51zM270 603h203l-13 -175h-54l-11 110l-128 12zM425 663q-43 14 -85.5 32t-79.5 31l-5 24l43 57l145 -110zM231 666q-43 12 -86 29t-81 28l-5 24l40 58l149 -105z" />
    <glyph glyph-name="Edieresis" unicode="&#xcb;" horiz-adv-x="529" 
d="M30 558v39q12 2 31 4.5t39 5t35 4t18 1.5t11 -7t14.5 -15.5t6.5 -11.5v-513l219 -20l16 134h54l4 -179q-63 -2 -111 -3.5t-87 -2.5t-75.5 -1.5t-78.5 -1.5q-4 0 -12.5 7t-15 15t-6.5 11v519zM267 603h25v-502q0 -6 -5 -21.5t-16 -35.5h-31v473q0 11 8.5 35t18.5 51z
M245 334l148 8l-6 -67l-142 8v51zM270 603h203l-13 -175h-54l-11 110l-128 12zM330 736q0 2 7.5 8t17.5 13.5t18.5 12.5t10.5 5q3 0 11.5 -6.5t17.5 -15.5t15 -17.5t5 -12.5l-4 -18q-1 -3 -8 -9t-17 -13t-18 -12t-11 -5q-4 0 -12 6.5t-16.5 16t-14 17.5t-5.5 11zM154 736
q0 2 7.5 8t17.5 13.5t18.5 12.5t10.5 5q3 0 11.5 -6.5t17.5 -15.5t15 -17.5t5 -12.5l-4 -18q-1 -3 -8 -9t-17 -13t-18 -12t-11 -5q-4 0 -12 6.5t-16.5 16t-14 17.5t-5.5 11z" />
    <glyph glyph-name="Edotaccent" unicode="&#x116;" horiz-adv-x="529" 
d="M30 558v39q12 2 31 4.5t39 5t35 4t18 1.5t11 -7t14.5 -15.5t6.5 -11.5v-513l219 -20l16 134h54l4 -179q-63 -2 -111 -3.5t-87 -2.5t-75.5 -1.5t-78.5 -1.5q-4 0 -12.5 7t-15 15t-6.5 11v519zM267 603h25v-502q0 -6 -5 -21.5t-16 -35.5h-31v473q0 11 8.5 35t18.5 51z
M245 334l148 8l-6 -67l-142 8v51zM270 603h203l-13 -175h-54l-11 110l-128 12zM240 741q0 2 7.5 8t17.5 13.5t18.5 12.5t10.5 5q3 0 11.5 -6.5t17.5 -15.5t15 -17.5t5 -12.5l-4 -18q-1 -3 -8 -9t-17 -13t-18 -12t-11 -5q-4 0 -12 6.5t-16.5 16t-14 17.5t-5.5 11z" />
    <glyph glyph-name="uni1EB8" unicode="&#x1eb8;" horiz-adv-x="529" 
d="M30 558v39q12 2 31 4.5t39 5t35 4t18 1.5t11 -7t14.5 -15.5t6.5 -11.5v-513l219 -20l16 134h54l4 -179q-63 -2 -111 -3.5t-87 -2.5t-75.5 -1.5t-78.5 -1.5q-4 0 -12.5 7t-15 15t-6.5 11v519zM267 603h25v-502q0 -6 -5 -21.5t-16 -35.5h-31v473q0 11 8.5 35t18.5 51z
M245 334l148 8l-6 -67l-142 8v51zM270 603h203l-13 -175h-54l-11 110l-128 12zM244 -121q0 2 7.5 8t17.5 13.5t18.5 12.5t10.5 5q3 0 11.5 -6.5t17.5 -15.5t15 -17.5t5 -12.5l-4 -18q0 -3 -7.5 -9t-17.5 -13t-18 -12t-11 -5q-4 0 -12 6.5t-16.5 16t-14 17.5t-5.5 11z" />
    <glyph glyph-name="Egrave" unicode="&#xc8;" horiz-adv-x="529" 
d="M30 558v39q12 2 31 4.5t39 5t35 4t18 1.5t11 -7t14.5 -15.5t6.5 -11.5v-513l219 -20l16 134h54l4 -179q-63 -2 -111 -3.5t-87 -2.5t-75.5 -1.5t-78.5 -1.5q-4 0 -12.5 7t-15 15t-6.5 11v519zM267 603h25v-502q0 -6 -5 -21.5t-16 -35.5h-31v473q0 11 8.5 35t18.5 51z
M245 334l148 8l-6 -67l-142 8v51zM270 603h203l-13 -175h-54l-11 110l-128 12zM351 660q-29 7 -62 14.5t-64.5 15.5t-57.5 14l-4 26l40 60l163 -94z" />
    <glyph glyph-name="uni1EBA" unicode="&#x1eba;" horiz-adv-x="529" 
d="M30 558v39q12 2 31 4.5t39 5t35 4t18 1.5t11 -7t14.5 -15.5t6.5 -11.5v-513l219 -20l16 134h54l4 -179q-63 -2 -111 -3.5t-87 -2.5t-75.5 -1.5t-78.5 -1.5q-4 0 -12.5 7t-15 15t-6.5 11v519zM267 603h25v-502q0 -6 -5 -21.5t-16 -35.5h-31v473q0 11 8.5 35t18.5 51z
M245 334l148 8l-6 -67l-142 8v51zM270 603h203l-13 -175h-54l-11 110l-128 12zM277 638l-20 34q27 18 40.5 37t13.5 34q0 14 -10.5 22.5t-31.5 8.5q-6 0 -12 -0.5t-13 -2.5l-11 50q15 5 31 7.5t29 2.5q44 0 69 -21t25 -54v-10t-2 -10q-1 -11 -14.5 -28t-37 -35.5
t-56.5 -34.5z" />
    <glyph glyph-name="uni0206" unicode="&#x206;" horiz-adv-x="529" 
d="M30 558v39q12 2 31 4.5t39 5t35 4t18 1.5t11 -7t14.5 -15.5t6.5 -11.5v-513l219 -20l16 134h54l4 -179q-63 -2 -111 -3.5t-87 -2.5t-75.5 -1.5t-78.5 -1.5q-4 0 -12.5 7t-15 15t-6.5 11v519zM267 603h25v-502q0 -6 -5 -21.5t-16 -35.5h-31v473q0 11 8.5 35t18.5 51z
M245 334l148 8l-6 -67l-142 8v51zM270 603h203l-13 -175h-54l-11 110l-128 12zM291 787q33 0 62.5 -16.5t51.5 -40t32 -43.5l-28 -25q-25 26 -53.5 43t-64.5 17t-64.5 -17t-53.5 -43l-28 25q10 20 32 43.5t52 40t62 16.5z" />
    <glyph glyph-name="Emacron" unicode="&#x112;" horiz-adv-x="529" 
d="M30 558v39q12 2 31 4.5t39 5t35 4t18 1.5t11 -7t14.5 -15.5t6.5 -11.5v-513l219 -20l16 134h54l4 -179q-63 -2 -111 -3.5t-87 -2.5t-75.5 -1.5t-78.5 -1.5q-4 0 -12.5 7t-15 15t-6.5 11v519zM267 603h25v-502q0 -6 -5 -21.5t-16 -35.5h-31v473q0 11 8.5 35t18.5 51z
M245 334l148 8l-6 -67l-142 8v51zM270 603h203l-13 -175h-54l-11 110l-128 12zM152 664v62h285v-62h-285z" />
    <glyph glyph-name="Eogonek" unicode="&#x118;" horiz-adv-x="529" 
d="M30 558v39q12 2 31 4.5t39 5t35 4t18 1.5t11 -7t14.5 -15.5t6.5 -11.5v-513l219 -20l16 134h54l4 -179q-63 -2 -111 -3.5t-87 -2.5t-75.5 -1.5t-78.5 -1.5q-4 0 -12.5 7t-15 15t-6.5 11v519zM267 603h25v-502q0 -6 -5 -21.5t-16 -35.5h-31v473q0 11 8.5 35t18.5 51z
M245 334l148 8l-6 -67l-142 8v51zM270 603h203l-13 -175h-54l-11 110l-128 12zM384 -229q-19 0 -37 15t-30 38t-12 46q0 8 1 19t5 27q19 18 47 38.5t56 39t47 30.5l22 -24q-22 -21 -46.5 -44.5t-41.5 -42t-17 -24.5q0 -34 7.5 -50t20.5 -16h69v-33q-3 -1 -23 -5.5t-40.5 -9
t-27.5 -4.5z" />
    <glyph glyph-name="uni1EBC" unicode="&#x1ebc;" horiz-adv-x="529" 
d="M30 558v39q12 2 31 4.5t39 5t35 4t18 1.5t11 -7t14.5 -15.5t6.5 -11.5v-513l219 -20l16 134h54l4 -179q-63 -2 -111 -3.5t-87 -2.5t-75.5 -1.5t-78.5 -1.5q-4 0 -12.5 7t-15 15t-6.5 11v519zM267 603h25v-502q0 -6 -5 -21.5t-16 -35.5h-31v473q0 11 8.5 35t18.5 51z
M245 334l148 8l-6 -67l-142 8v51zM270 603h203l-13 -175h-54l-11 110l-128 12zM355 657q-26 0 -51.5 9.5t-45.5 18.5t-30 9q-5 0 -16.5 -7t-23 -15.5t-15.5 -11.5l-32 27q6 8 17 21t24.5 26t26 22t21.5 9q20 0 47.5 -10t51.5 -20.5t34 -10.5q8 0 24.5 13.5t24.5 23.5l34 -29
q-6 -8 -17 -20.5t-24.5 -25t-27 -21t-22.5 -8.5z" />
    <glyph glyph-name="F" unicode="F" horiz-adv-x="488" 
d="M270 603h203l-13 -175h-54l-11 110l-128 12zM185 59l86 -15l-19 -37q-10 -1 -30.5 -4t-41.5 -5.5t-36.5 -4.5t-17.5 -2q-3 0 -11 7t-15.5 15t-7.5 11v519l-62 15v39q12 2 31 4.5t39 5t35 4t18 1.5t11 -7t14.5 -15.5t6.5 -11.5v-519zM245 315l154 8l-8 -74l-146 13v53z
M267 603h25v-502q0 -6 -5 -21.5t-16 -35.5h-31v473q0 11 8.5 35t18.5 51z" />
    <glyph glyph-name="G" unicode="G" horiz-adv-x="516" 
d="M162 544q-6 -36 -11.5 -69.5t-8.5 -72t-3 -90.5q0 -75 8.5 -119t21.5 -67t28 -32t27 -13q22 -7 62.5 -9.5t73.5 -1.5q2 8 3 25.5t2 39t1 41v29.5l-74 20l13 89q28 -1 60 -5.5t56.5 -11t30.5 -15.5q1 -16 2 -41.5t1 -54.5t-1 -55.5t-2.5 -46t-3.5 -24.5q-7 -6 -23.5 -15
t-37 -18.5t-41.5 -17.5t-38 -13t-25 -5q-16 0 -41.5 4t-54 12.5t-53.5 22t-39 31.5q-17 23 -29.5 53t-19 70t-6.5 93q0 69 8.5 126t21.5 91q11 16 29 34.5t37 34.5zM204 76v447q0 11 8.5 35t18.5 51h25v-476q0 -6 -5 -20t-16 -37h-31zM429 429h-54l-12 102q-12 3 -35 6
t-44.5 5t-32.5 2q-10 0 -17.5 -0.5t-12.5 -1.5l10 67q5 2 8 2.5t7 0.5q8 0 30.5 -1t52 -2.5t60 -3t52.5 -3.5z" />
    <glyph glyph-name="Gbreve" unicode="&#x11e;" horiz-adv-x="516" 
d="M162 544q-6 -36 -11.5 -69.5t-8.5 -72t-3 -90.5q0 -75 8.5 -119t21.5 -67t28 -32t27 -13q22 -7 62.5 -9.5t73.5 -1.5q2 8 3 25.5t2 39t1 41v29.5l-74 20l13 89q28 -1 60 -5.5t56.5 -11t30.5 -15.5q1 -16 2 -41.5t1 -54.5t-1 -55.5t-2.5 -46t-3.5 -24.5q-7 -6 -23.5 -15
t-37 -18.5t-41.5 -17.5t-38 -13t-25 -5q-16 0 -41.5 4t-54 12.5t-53.5 22t-39 31.5q-17 23 -29.5 53t-19 70t-6.5 93q0 69 8.5 126t21.5 91q11 16 29 34.5t37 34.5zM204 76v447q0 11 8.5 35t18.5 51h25v-476q0 -6 -5 -20t-16 -37h-31zM429 429h-54l-12 102q-12 3 -35 6
t-44.5 5t-32.5 2q-10 0 -17.5 -0.5t-12.5 -1.5l10 67q5 2 8 2.5t7 0.5q8 0 30.5 -1t52 -2.5t60 -3t52.5 -3.5zM281 662q-32 0 -62 16.5t-52 40t-32 43.5l28 25q25 -25 53.5 -42.5t64.5 -17.5t64.5 17.5t53.5 42.5l28 -25q-10 -20 -32 -43.5t-51.5 -40t-62.5 -16.5z" />
    <glyph glyph-name="Gcaron" unicode="&#x1e6;" horiz-adv-x="516" 
d="M162 544q-6 -36 -11.5 -69.5t-8.5 -72t-3 -90.5q0 -75 8.5 -119t21.5 -67t28 -32t27 -13q22 -7 62.5 -9.5t73.5 -1.5q2 8 3 25.5t2 39t1 41v29.5l-74 20l13 89q28 -1 60 -5.5t56.5 -11t30.5 -15.5q1 -16 2 -41.5t1 -54.5t-1 -55.5t-2.5 -46t-3.5 -24.5q-7 -6 -23.5 -15
t-37 -18.5t-41.5 -17.5t-38 -13t-25 -5q-16 0 -41.5 4t-54 12.5t-53.5 22t-39 31.5q-17 23 -29.5 53t-19 70t-6.5 93q0 69 8.5 126t21.5 91q11 16 29 34.5t37 34.5zM204 76v447q0 11 8.5 35t18.5 51h25v-476q0 -6 -5 -20t-16 -37h-31zM429 429h-54l-12 102q-12 3 -35 6
t-44.5 5t-32.5 2q-10 0 -17.5 -0.5t-12.5 -1.5l10 67q5 2 8 2.5t7 0.5q8 0 30.5 -1t52 -2.5t60 -3t52.5 -3.5zM250 644l-98 136l28 25l99 -84h8l99 84l28 -25l-98 -136h-66z" />
    <glyph glyph-name="Gcircumflex" unicode="&#x11c;" horiz-adv-x="516" 
d="M162 544q-6 -36 -11.5 -69.5t-8.5 -72t-3 -90.5q0 -75 8.5 -119t21.5 -67t28 -32t27 -13q22 -7 62.5 -9.5t73.5 -1.5q2 8 3 25.5t2 39t1 41v29.5l-74 20l13 89q28 -1 60 -5.5t56.5 -11t30.5 -15.5q1 -16 2 -41.5t1 -54.5t-1 -55.5t-2.5 -46t-3.5 -24.5q-7 -6 -23.5 -15
t-37 -18.5t-41.5 -17.5t-38 -13t-25 -5q-16 0 -41.5 4t-54 12.5t-53.5 22t-39 31.5q-17 23 -29.5 53t-19 70t-6.5 93q0 69 8.5 126t21.5 91q11 16 29 34.5t37 34.5zM204 76v447q0 11 8.5 35t18.5 51h25v-476q0 -6 -5 -20t-16 -37h-31zM429 429h-54l-12 102q-12 3 -35 6
t-44.5 5t-32.5 2q-10 0 -17.5 -0.5t-12.5 -1.5l10 67q5 2 8 2.5t7 0.5q8 0 30.5 -1t52 -2.5t60 -3t52.5 -3.5zM180 658l-30 30l103 104h56l103 -104l-30 -30l-96 64h-11z" />
    <glyph glyph-name="uni0122" unicode="&#x122;" horiz-adv-x="516" 
d="M162 544q-6 -36 -11.5 -69.5t-8.5 -72t-3 -90.5q0 -75 8.5 -119t21.5 -67t28 -32t27 -13q22 -7 62.5 -9.5t73.5 -1.5q2 8 3 25.5t2 39t1 41v29.5l-74 20l13 89q28 -1 60 -5.5t56.5 -11t30.5 -15.5q1 -16 2 -41.5t1 -54.5t-1 -55.5t-2.5 -46t-3.5 -24.5q-7 -6 -23.5 -15
t-37 -18.5t-41.5 -17.5t-38 -13t-25 -5q-16 0 -41.5 4t-54 12.5t-53.5 22t-39 31.5q-17 23 -29.5 53t-19 70t-6.5 93q0 69 8.5 126t21.5 91q11 16 29 34.5t37 34.5zM204 76v447q0 11 8.5 35t18.5 51h25v-476q0 -6 -5 -20t-16 -37h-31zM429 429h-54l-12 102q-12 3 -35 6
t-44.5 5t-32.5 2q-10 0 -17.5 -0.5t-12.5 -1.5l10 67q5 2 8 2.5t7 0.5q8 0 30.5 -1t52 -2.5t60 -3t52.5 -3.5zM255 -271l-39 17q11 27 17 48t8 37q-14 7 -21 15t-9.5 15t-1.5 11l3 17q0 2 7 7.5t16.5 12t17 11.5t9.5 5q3 0 10.5 -6t15.5 -14.5t14 -16.5t6 -12q0 -14 -5 -34
t-13 -41t-17.5 -40t-17.5 -32z" />
    <glyph glyph-name="Gdotaccent" unicode="&#x120;" horiz-adv-x="516" 
d="M162 544q-6 -36 -11.5 -69.5t-8.5 -72t-3 -90.5q0 -75 8.5 -119t21.5 -67t28 -32t27 -13q22 -7 62.5 -9.5t73.5 -1.5q2 8 3 25.5t2 39t1 41v29.5l-74 20l13 89q28 -1 60 -5.5t56.5 -11t30.5 -15.5q1 -16 2 -41.5t1 -54.5t-1 -55.5t-2.5 -46t-3.5 -24.5q-7 -6 -23.5 -15
t-37 -18.5t-41.5 -17.5t-38 -13t-25 -5q-16 0 -41.5 4t-54 12.5t-53.5 22t-39 31.5q-17 23 -29.5 53t-19 70t-6.5 93q0 69 8.5 126t21.5 91q11 16 29 34.5t37 34.5zM204 76v447q0 11 8.5 35t18.5 51h25v-476q0 -6 -5 -20t-16 -37h-31zM429 429h-54l-12 102q-12 3 -35 6
t-44.5 5t-32.5 2q-10 0 -17.5 -0.5t-12.5 -1.5l10 67q5 2 8 2.5t7 0.5q8 0 30.5 -1t52 -2.5t60 -3t52.5 -3.5zM230 741q0 2 7.5 8t17.5 13.5t18.5 12.5t10.5 5q3 0 11.5 -6.5t17.5 -15.5t15 -17.5t5 -12.5l-4 -18q-1 -3 -8 -9t-17 -13t-18 -12t-11 -5q-4 0 -12 6.5t-16.5 16
t-14 17.5t-5.5 11z" />
    <glyph glyph-name="H" unicode="H" horiz-adv-x="597" 
d="M92 543l-62 15v39q12 2 31 4.5t39 5t35 4t18 1.5t11 -7t14.5 -15.5t6.5 -11.5v-519l86 -15l-19 -37q-10 -1 -30.5 -4t-41.5 -5.5t-36.5 -4.5t-17.5 -2q-3 0 -11 7t-15.5 15t-7.5 11v519zM412 543l-62 15v39q16 3 43.5 6.5t51.5 6t28 2.5q3 0 11 -7t14.5 -15.5t6.5 -11.5
v-518l62 -15v-39q-12 -2 -31 -4.5t-39 -5t-35 -4t-18 -1.5t-11 7.5t-14.5 15.5t-6.5 11v518zM245 334l192 8v-63l-192 8v47zM267 603h25v-502q0 -6 -5 -21.5t-16 -35.5h-31v473q0 11 8.5 35t18.5 51z" />
    <glyph glyph-name="Hbar" unicode="&#x126;" horiz-adv-x="597" 
d="M92 543l-62 15v39q12 2 31 4.5t39 5t35 4t18 1.5t11 -7t14.5 -15.5t6.5 -11.5v-519l86 -15l-19 -37q-10 -1 -30.5 -4t-41.5 -5.5t-36.5 -4.5t-17.5 -2q-3 0 -11 7t-15.5 15t-7.5 11v519zM412 543l-62 15v39q16 3 43.5 6.5t51.5 6t28 2.5q3 0 11 -7t14.5 -15.5t6.5 -11.5
v-518l62 -15v-39q-12 -2 -31 -4.5t-39 -5t-35 -4t-18 -1.5t-11 7.5t-14.5 15.5t-6.5 11v518zM245 334l192 8v-63l-192 8v47zM267 603h25v-502q0 -6 -5 -21.5t-16 -35.5h-31v473q0 11 8.5 35t18.5 51zM259 467l297 5l-1 -53l-296 5v43zM163 424l-123 -5v53l123 -5v-43z" />
    <glyph glyph-name="Hcircumflex" unicode="&#x124;" horiz-adv-x="597" 
d="M92 543l-62 15v39q12 2 31 4.5t39 5t35 4t18 1.5t11 -7t14.5 -15.5t6.5 -11.5v-519l86 -15l-19 -37q-10 -1 -30.5 -4t-41.5 -5.5t-36.5 -4.5t-17.5 -2q-3 0 -11 7t-15.5 15t-7.5 11v519zM412 543l-62 15v39q16 3 43.5 6.5t51.5 6t28 2.5q3 0 11 -7t14.5 -15.5t6.5 -11.5
v-518l62 -15v-39q-12 -2 -31 -4.5t-39 -5t-35 -4t-18 -1.5t-11 7.5t-14.5 15.5t-6.5 11v518zM245 334l192 8v-63l-192 8v47zM267 603h25v-502q0 -6 -5 -21.5t-16 -35.5h-31v473q0 11 8.5 35t18.5 51zM197 658l-30 30l103 104h56l103 -104l-30 -30l-96 64h-11z" />
    <glyph glyph-name="uni1E24" unicode="&#x1e24;" horiz-adv-x="597" 
d="M92 543l-62 15v39q12 2 31 4.5t39 5t35 4t18 1.5t11 -7t14.5 -15.5t6.5 -11.5v-519l86 -15l-19 -37q-10 -1 -30.5 -4t-41.5 -5.5t-36.5 -4.5t-17.5 -2q-3 0 -11 7t-15.5 15t-7.5 11v519zM412 543l-62 15v39q16 3 43.5 6.5t51.5 6t28 2.5q3 0 11 -7t14.5 -15.5t6.5 -11.5
v-518l62 -15v-39q-12 -2 -31 -4.5t-39 -5t-35 -4t-18 -1.5t-11 7.5t-14.5 15.5t-6.5 11v518zM245 334l192 8v-63l-192 8v47zM267 603h25v-502q0 -6 -5 -21.5t-16 -35.5h-31v473q0 11 8.5 35t18.5 51zM248 -121q0 2 7.5 8t17.5 13.5t18.5 12.5t10.5 5q3 0 11.5 -6.5
t17.5 -15.5t15 -17.5t5 -12.5l-4 -18q0 -3 -7.5 -9t-17.5 -13t-18 -12t-11 -5q-4 0 -12 6.5t-16.5 16t-14 17.5t-5.5 11z" />
    <glyph glyph-name="I" unicode="I" horiz-adv-x="365" 
d="M255 607q11 -7 20.5 -17.5t14.5 -21.5q-2 -28 -3 -64.5t-1 -75v-72.5q0 -32 0.5 -64t1 -63.5t1.5 -63.5t1 -64q0 -6 -7 -21.5t-18 -35.5h-31q5 23 6.5 46t1.5 47q0 32 -2 66.5t-4 72t-2 79.5q0 27 0.5 60t3.5 64t10 51l-2 6h-126l-100 22v39q57 6 108 10t86 4.5t41 -4.5z
M86 563l93 -20v-484l86 -15l-19 -37q-10 -1 -30.5 -4t-41.5 -5.5t-36.5 -4.5t-17.5 -2q-3 0 -11 7t-15.5 15t-7.5 11v539z" />
    <glyph glyph-name="IJ" unicode="&#x132;" horiz-adv-x="741" 
d="M255 607q11 -7 20.5 -17.5t14.5 -21.5q-2 -28 -3 -64.5t-1 -75v-72.5q0 -32 0.5 -64t1 -63.5t1.5 -63.5t1 -64q0 -6 -7 -21.5t-18 -35.5h-31q5 23 6.5 46t1.5 47q0 32 -2 66.5t-4 72t-2 79.5q0 27 0.5 60t3.5 64t10 51l-2 6h-126l-100 22v39q57 6 108 10t86 4.5t41 -4.5z
M86 563l93 -20v-484l86 -15l-19 -37q-10 -1 -30.5 -4t-41.5 -5.5t-36.5 -4.5t-17.5 -2q-3 0 -11 7t-15.5 15t-7.5 11v539zM628 607q11 -7 20.5 -17.5t14.5 -21.5q-2 -28 -3 -64.5t-1 -75v-72.5t1 -68.5t2.5 -67t2.5 -63t1 -58t-1 -50.5q-2 -47 -38.5 -82t-96 -63.5
t-131.5 -54.5l-15 37q51 24 89.5 42.5t66.5 35t44 35t22 43.5q4 18 5 40t1 49.5t-1.5 61t-2.5 74t-1 88.5q0 27 0.5 60t3.5 64t10 51l-2 6h-126l-115 22v39q42 4 84.5 7.5t78 5.5t59 1.5t28.5 -4.5zM459 543h93v-593l-93 -56v649z" />
    <glyph glyph-name="Iacute" unicode="&#xcd;" horiz-adv-x="365" 
d="M255 607q11 -7 20.5 -17.5t14.5 -21.5q-2 -28 -3 -64.5t-1 -75v-72.5q0 -32 0.5 -64t1 -63.5t1.5 -63.5t1 -64q0 -6 -7 -21.5t-18 -35.5h-31q5 23 6.5 46t1.5 47q0 32 -2 66.5t-4 72t-2 79.5q0 27 0.5 60t3.5 64t10 51l-2 6h-126l-100 22v39q57 6 108 10t86 4.5t41 -4.5z
M86 563l93 -20v-484l86 -15l-19 -37q-10 -1 -30.5 -4t-41.5 -5.5t-36.5 -4.5t-17.5 -2q-3 0 -11 7t-15.5 15t-7.5 11v539zM140 667l-15 36l163 94l40 -60l-4 -26q-25 -6 -57 -14t-64.5 -15.5t-62.5 -14.5z" />
    <glyph glyph-name="Ibreve" unicode="&#x12c;" horiz-adv-x="365" 
d="M255 607q11 -7 20.5 -17.5t14.5 -21.5q-2 -28 -3 -64.5t-1 -75v-72.5q0 -32 0.5 -64t1 -63.5t1.5 -63.5t1 -64q0 -6 -7 -21.5t-18 -35.5h-31q5 23 6.5 46t1.5 47q0 32 -2 66.5t-4 72t-2 79.5q0 27 0.5 60t3.5 64t10 51l-2 6h-126l-100 22v39q57 6 108 10t86 4.5t41 -4.5z
M86 563l93 -20v-484l86 -15l-19 -37q-10 -1 -30.5 -4t-41.5 -5.5t-36.5 -4.5t-17.5 -2q-3 0 -11 7t-15.5 15t-7.5 11v539zM189 669q-32 0 -62 16.5t-52 40t-32 43.5l28 25q25 -25 53.5 -42.5t64.5 -17.5t64.5 17.5t53.5 42.5l28 -25q-10 -20 -32 -43.5t-51.5 -40
t-62.5 -16.5z" />
    <glyph glyph-name="uni01CF" unicode="&#x1cf;" horiz-adv-x="365" 
d="M255 607q11 -7 20.5 -17.5t14.5 -21.5q-2 -28 -3 -64.5t-1 -75v-72.5q0 -32 0.5 -64t1 -63.5t1.5 -63.5t1 -64q0 -6 -7 -21.5t-18 -35.5h-31q5 23 6.5 46t1.5 47q0 32 -2 66.5t-4 72t-2 79.5q0 27 0.5 60t3.5 64t10 51l-2 6h-126l-100 22v39q57 6 108 10t86 4.5t41 -4.5z
M86 563l93 -20v-484l86 -15l-19 -37q-10 -1 -30.5 -4t-41.5 -5.5t-36.5 -4.5t-17.5 -2q-3 0 -11 7t-15.5 15t-7.5 11v539zM158 651l-98 136l28 25l99 -84h8l99 84l28 -25l-98 -136h-66z" />
    <glyph glyph-name="Icircumflex" unicode="&#xce;" horiz-adv-x="365" 
d="M255 607q11 -7 20.5 -17.5t14.5 -21.5q-2 -28 -3 -64.5t-1 -75v-72.5q0 -32 0.5 -64t1 -63.5t1.5 -63.5t1 -64q0 -6 -7 -21.5t-18 -35.5h-31q5 23 6.5 46t1.5 47q0 32 -2 66.5t-4 72t-2 79.5q0 27 0.5 60t3.5 64t10 51l-2 6h-126l-100 22v39q57 6 108 10t86 4.5t41 -4.5z
M86 563l93 -20v-484l86 -15l-19 -37q-10 -1 -30.5 -4t-41.5 -5.5t-36.5 -4.5t-17.5 -2q-3 0 -11 7t-15.5 15t-7.5 11v539zM88 665l-30 30l103 104h56l103 -104l-30 -30l-96 64h-11z" />
    <glyph glyph-name="uni0208" unicode="&#x208;" horiz-adv-x="365" 
d="M255 607q11 -7 20.5 -17.5t14.5 -21.5q-2 -28 -3 -64.5t-1 -75v-72.5q0 -32 0.5 -64t1 -63.5t1.5 -63.5t1 -64q0 -6 -7 -21.5t-18 -35.5h-31q5 23 6.5 46t1.5 47q0 32 -2 66.5t-4 72t-2 79.5q0 27 0.5 60t3.5 64t10 51l-2 6h-126l-100 22v39q57 6 108 10t86 4.5t41 -4.5z
M86 563l93 -20v-484l86 -15l-19 -37q-10 -1 -30.5 -4t-41.5 -5.5t-36.5 -4.5t-17.5 -2q-3 0 -11 7t-15.5 15t-7.5 11v539zM323 670q-43 14 -85.5 32t-79.5 31l-5 24l43 57l145 -110zM129 673q-43 12 -86 29t-81 28l-5 24l40 58l149 -105z" />
    <glyph glyph-name="Idieresis" unicode="&#xcf;" horiz-adv-x="365" 
d="M255 607q11 -7 20.5 -17.5t14.5 -21.5q-2 -28 -3 -64.5t-1 -75v-72.5q0 -32 0.5 -64t1 -63.5t1.5 -63.5t1 -64q0 -6 -7 -21.5t-18 -35.5h-31q5 23 6.5 46t1.5 47q0 32 -2 66.5t-4 72t-2 79.5q0 27 0.5 60t3.5 64t10 51l-2 6h-126l-100 22v39q57 6 108 10t86 4.5t41 -4.5z
M86 563l93 -20v-484l86 -15l-19 -37q-10 -1 -30.5 -4t-41.5 -5.5t-36.5 -4.5t-17.5 -2q-3 0 -11 7t-15.5 15t-7.5 11v539zM228 743q0 2 7.5 8t17.5 13.5t18.5 12.5t10.5 5q3 0 11.5 -6.5t17.5 -15.5t15 -17.5t5 -12.5l-4 -18q-1 -3 -8 -9t-17 -13t-18 -12t-11 -5
q-4 0 -12 6.5t-16.5 16t-14 17.5t-5.5 11zM52 743q0 2 7.5 8t17.5 13.5t18.5 12.5t10.5 5q3 0 11.5 -6.5t17.5 -15.5t15 -17.5t5 -12.5l-4 -18q-1 -3 -8 -9t-17 -13t-18 -12t-11 -5q-4 0 -12 6.5t-16.5 16t-14 17.5t-5.5 11z" />
    <glyph glyph-name="Idotaccent" unicode="&#x130;" horiz-adv-x="365" 
d="M255 607q11 -7 20.5 -17.5t14.5 -21.5q-2 -28 -3 -64.5t-1 -75v-72.5q0 -32 0.5 -64t1 -63.5t1.5 -63.5t1 -64q0 -6 -7 -21.5t-18 -35.5h-31q5 23 6.5 46t1.5 47q0 32 -2 66.5t-4 72t-2 79.5q0 27 0.5 60t3.5 64t10 51l-2 6h-126l-100 22v39q57 6 108 10t86 4.5t41 -4.5z
M86 563l93 -20v-484l86 -15l-19 -37q-10 -1 -30.5 -4t-41.5 -5.5t-36.5 -4.5t-17.5 -2q-3 0 -11 7t-15.5 15t-7.5 11v539zM138 748q0 2 7.5 8t17.5 13.5t18.5 12.5t10.5 5q3 0 11.5 -6.5t17.5 -15.5t15 -17.5t5 -12.5l-4 -18q-1 -3 -8 -9t-17 -13t-18 -12t-11 -5
q-4 0 -12 6.5t-16.5 16t-14 17.5t-5.5 11z" />
    <glyph glyph-name="uni1ECA" unicode="&#x1eca;" horiz-adv-x="365" 
d="M255 607q11 -7 20.5 -17.5t14.5 -21.5q-2 -28 -3 -64.5t-1 -75v-72.5q0 -32 0.5 -64t1 -63.5t1.5 -63.5t1 -64q0 -6 -7 -21.5t-18 -35.5h-31q5 23 6.5 46t1.5 47q0 32 -2 66.5t-4 72t-2 79.5q0 27 0.5 60t3.5 64t10 51l-2 6h-126l-100 22v39q57 6 108 10t86 4.5t41 -4.5z
M86 563l93 -20v-484l86 -15l-19 -37q-10 -1 -30.5 -4t-41.5 -5.5t-36.5 -4.5t-17.5 -2q-3 0 -11 7t-15.5 15t-7.5 11v539zM140 -121q0 2 7.5 8t17.5 13.5t18.5 12.5t10.5 5q3 0 11.5 -6.5t17.5 -15.5t15 -17.5t5 -12.5l-4 -18q0 -3 -7.5 -9t-17.5 -13t-18 -12t-11 -5
q-4 0 -12 6.5t-16.5 16t-14 17.5t-5.5 11z" />
    <glyph glyph-name="Igrave" unicode="&#xcc;" horiz-adv-x="365" 
d="M255 607q11 -7 20.5 -17.5t14.5 -21.5q-2 -28 -3 -64.5t-1 -75v-72.5q0 -32 0.5 -64t1 -63.5t1.5 -63.5t1 -64q0 -6 -7 -21.5t-18 -35.5h-31q5 23 6.5 46t1.5 47q0 32 -2 66.5t-4 72t-2 79.5q0 27 0.5 60t3.5 64t10 51l-2 6h-126l-100 22v39q57 6 108 10t86 4.5t41 -4.5z
M86 563l93 -20v-484l86 -15l-19 -37q-10 -1 -30.5 -4t-41.5 -5.5t-36.5 -4.5t-17.5 -2q-3 0 -11 7t-15.5 15t-7.5 11v539zM249 667q-29 7 -62 14.5t-64.5 15.5t-57.5 14l-4 26l40 60l163 -94z" />
    <glyph glyph-name="uni1EC8" unicode="&#x1ec8;" horiz-adv-x="365" 
d="M255 607q11 -7 20.5 -17.5t14.5 -21.5q-2 -28 -3 -64.5t-1 -75v-72.5q0 -32 0.5 -64t1 -63.5t1.5 -63.5t1 -64q0 -6 -7 -21.5t-18 -35.5h-31q5 23 6.5 46t1.5 47q0 32 -2 66.5t-4 72t-2 79.5q0 27 0.5 60t3.5 64t10 51l-2 6h-126l-100 22v39q57 6 108 10t86 4.5t41 -4.5z
M86 563l93 -20v-484l86 -15l-19 -37q-10 -1 -30.5 -4t-41.5 -5.5t-36.5 -4.5t-17.5 -2q-3 0 -11 7t-15.5 15t-7.5 11v539zM175 645l-20 34q27 18 40.5 37t13.5 34q0 14 -10.5 22.5t-31.5 8.5q-6 0 -12 -0.5t-13 -2.5l-11 50q15 5 31 7.5t29 2.5q44 0 69 -21t25 -54v-10
t-2 -10q-1 -11 -14.5 -28t-37 -35.5t-56.5 -34.5z" />
    <glyph glyph-name="uni020A" unicode="&#x20a;" horiz-adv-x="365" 
d="M255 607q11 -7 20.5 -17.5t14.5 -21.5q-2 -28 -3 -64.5t-1 -75v-72.5q0 -32 0.5 -64t1 -63.5t1.5 -63.5t1 -64q0 -6 -7 -21.5t-18 -35.5h-31q5 23 6.5 46t1.5 47q0 32 -2 66.5t-4 72t-2 79.5q0 27 0.5 60t3.5 64t10 51l-2 6h-126l-100 22v39q57 6 108 10t86 4.5t41 -4.5z
M86 563l93 -20v-484l86 -15l-19 -37q-10 -1 -30.5 -4t-41.5 -5.5t-36.5 -4.5t-17.5 -2q-3 0 -11 7t-15.5 15t-7.5 11v539zM189 794q33 0 62.5 -16.5t51.5 -40t32 -43.5l-28 -25q-25 26 -53.5 43t-64.5 17t-64.5 -17t-53.5 -43l-28 25q10 20 32 43.5t52 40t62 16.5z" />
    <glyph glyph-name="Imacron" unicode="&#x12a;" horiz-adv-x="365" 
d="M255 607q11 -7 20.5 -17.5t14.5 -21.5q-2 -28 -3 -64.5t-1 -75v-72.5q0 -32 0.5 -64t1 -63.5t1.5 -63.5t1 -64q0 -6 -7 -21.5t-18 -35.5h-31q5 23 6.5 46t1.5 47q0 32 -2 66.5t-4 72t-2 79.5q0 27 0.5 60t3.5 64t10 51l-2 6h-126l-100 22v39q57 6 108 10t86 4.5t41 -4.5z
M86 563l93 -20v-484l86 -15l-19 -37q-10 -1 -30.5 -4t-41.5 -5.5t-36.5 -4.5t-17.5 -2q-3 0 -11 7t-15.5 15t-7.5 11v539zM50 671v62h285v-62h-285z" />
    <glyph glyph-name="Iogonek" unicode="&#x12e;" horiz-adv-x="365" 
d="M255 607q11 -7 20.5 -17.5t14.5 -21.5q-2 -28 -3 -64.5t-1 -75v-72.5q0 -32 0.5 -64t1 -63.5t1.5 -63.5t1 -64q0 -6 -7 -21.5t-18 -35.5h-31q5 23 6.5 46t1.5 47q0 32 -2 66.5t-4 72t-2 79.5q0 27 0.5 60t3.5 64t10 51l-2 6h-126l-100 22v39q57 6 108 10t86 4.5t41 -4.5z
M86 563l93 -20v-484l86 -15l-19 -37q-10 -1 -30.5 -4t-41.5 -5.5t-36.5 -4.5t-17.5 -2q-3 0 -11 7t-15.5 15t-7.5 11v539zM145 -205q-19 0 -37 15t-30 38t-12 46q0 8 1 19t5 27q19 18 47 38.5t56 39t47 30.5l22 -24q-22 -21 -46.5 -44.5t-41.5 -42t-17 -24.5q0 -34 7.5 -50
t20.5 -16h69v-33q-3 -1 -23 -5.5t-40.5 -9t-27.5 -4.5z" />
    <glyph glyph-name="Itilde" unicode="&#x128;" horiz-adv-x="365" 
d="M255 607q11 -7 20.5 -17.5t14.5 -21.5q-2 -28 -3 -64.5t-1 -75v-72.5q0 -32 0.5 -64t1 -63.5t1.5 -63.5t1 -64q0 -6 -7 -21.5t-18 -35.5h-31q5 23 6.5 46t1.5 47q0 32 -2 66.5t-4 72t-2 79.5q0 27 0.5 60t3.5 64t10 51l-2 6h-126l-100 22v39q57 6 108 10t86 4.5t41 -4.5z
M86 563l93 -20v-484l86 -15l-19 -37q-10 -1 -30.5 -4t-41.5 -5.5t-36.5 -4.5t-17.5 -2q-3 0 -11 7t-15.5 15t-7.5 11v539zM253 664q-26 0 -51.5 9.5t-45.5 18.5t-30 9q-5 0 -16.5 -7t-23 -15.5t-15.5 -11.5l-32 27q6 8 17 21t24.5 26t26 22t21.5 9q20 0 47.5 -10t51.5 -20.5
t34 -10.5q8 0 24.5 13.5t24.5 23.5l34 -29q-6 -8 -17 -20.5t-24.5 -25t-27 -21t-22.5 -8.5z" />
    <glyph glyph-name="J" unicode="J" horiz-adv-x="376" 
d="M263 607q11 -7 20.5 -17.5t14.5 -21.5q-2 -28 -3 -64.5t-1 -75v-72.5t1 -68.5t2.5 -67t2.5 -63t1 -58t-1 -50.5q-2 -47 -38.5 -82t-96 -63.5t-131.5 -54.5l-15 37q51 24 89.5 42.5t66.5 35t44 35t22 43.5q4 18 5 40t1 49.5t-1.5 61t-2.5 74t-1 88.5q0 27 0.5 60t3.5 64
t10 51l-2 6h-126l-115 22v39q42 4 84.5 7.5t78 5.5t59 1.5t28.5 -4.5zM94 543h93v-593l-93 -56v649z" />
    <glyph glyph-name="Jcircumflex" unicode="&#x134;" horiz-adv-x="376" 
d="M263 607q11 -7 20.5 -17.5t14.5 -21.5q-2 -28 -3 -64.5t-1 -75v-72.5t1 -68.5t2.5 -67t2.5 -63t1 -58t-1 -50.5q-2 -47 -38.5 -82t-96 -63.5t-131.5 -54.5l-15 37q51 24 89.5 42.5t66.5 35t44 35t22 43.5q4 18 5 40t1 49.5t-1.5 61t-2.5 74t-1 88.5q0 27 0.5 60t3.5 64
t10 51l-2 6h-126l-115 22v39q42 4 84.5 7.5t78 5.5t59 1.5t28.5 -4.5zM94 543h93v-593l-93 -56v649zM90 658l-30 30l103 104h56l103 -104l-30 -30l-96 64h-11z" />
    <glyph glyph-name="K" unicode="K" horiz-adv-x="560" 
d="M435 16q-19 36 -40 84t-40.5 98.5t-35.5 93.5l13 28l63 224l-50 14v39q16 3 43.5 6.5t51.5 6t28 2.5q3 0 11 -7t15 -15.5t7 -11.5l-98 -258q11 -30 26.5 -65.5t32.5 -71.5t34 -68.5t31 -56.5l53 -16l-7 -47q-18 -1 -40.5 0t-43.5 3.5t-36 7t-18 10.5zM92 543l-62 15v39
q12 2 31 4.5t39 5t35 4t18 1.5t11 -7t14.5 -15.5t6.5 -11.5v-519l86 -15l-19 -37q-10 -1 -30.5 -4t-41.5 -5.5t-36.5 -4.5t-17.5 -2q-3 0 -11 7t-15.5 15t-7.5 11v519zM267 603h25v-502q0 -6 -5 -21.5t-16 -35.5h-31v473q0 11 8.5 35t18.5 51zM245 334l132 3v-66l-132 13v50
z" />
    <glyph glyph-name="uni0136" unicode="&#x136;" horiz-adv-x="560" 
d="M435 16q-19 36 -40 84t-40.5 98.5t-35.5 93.5l13 28l63 224l-50 14v39q16 3 43.5 6.5t51.5 6t28 2.5q3 0 11 -7t15 -15.5t7 -11.5l-98 -258q11 -30 26.5 -65.5t32.5 -71.5t34 -68.5t31 -56.5l53 -16l-7 -47q-18 -1 -40.5 0t-43.5 3.5t-36 7t-18 10.5zM92 543l-62 15v39
q12 2 31 4.5t39 5t35 4t18 1.5t11 -7t14.5 -15.5t6.5 -11.5v-519l86 -15l-19 -37q-10 -1 -30.5 -4t-41.5 -5.5t-36.5 -4.5t-17.5 -2q-3 0 -11 7t-15.5 15t-7.5 11v519zM267 603h25v-502q0 -6 -5 -21.5t-16 -35.5h-31v473q0 11 8.5 35t18.5 51zM245 334l132 3v-66l-132 13v50
zM288 -271l-39 17q11 27 17 48t8 37q-14 7 -21 15t-9.5 15t-1.5 11l3 17q0 2 7 7.5t16.5 12t17 11.5t9.5 5q3 0 10.5 -6t15.5 -14.5t14 -16.5t6 -12q0 -14 -5 -34t-13 -41t-17.5 -40t-17.5 -32z" />
    <glyph glyph-name="L" unicode="L" horiz-adv-x="446" 
d="M167 563q-8 -65 -8.5 -130.5t1.5 -125t2 -108.5q0 -31 -4.5 -51.5t-15 -34t-29.5 -24.5l2 -6l304 -17q10 -10 10 -24l-29 -56q-52 6 -95.5 11.5t-77 9.5t-56.5 6t-34 2q-15 0 -36 -2.5t-45 -7t-49 -9.5l-11 5l4 43q30 9 47 21.5t24 32t7 49.5q0 20 -1.5 51.5t-3.5 68.5
t-4 73.5t-2.5 67.5t0.5 50q10 24 20 44.5t23.5 40t31.5 38.5zM220 63v460q0 11 8.5 35t18.5 51h25v-489q0 -6 -5 -21.5t-16 -35.5h-31zM417 429h-54l-12 102q-12 3 -28 6t-30.5 5t-25.5 2q-10 0 -17.5 -0.5t-12.5 -1.5l10 67q5 2 8 2.5t7 0.5q10 0 38.5 -1.5t63.5 -3.5
t65 -5z" />
    <glyph glyph-name="uni01C7" unicode="&#x1c7;" horiz-adv-x="822" 
d="M167 563q-8 -65 -8.5 -130.5t1.5 -125t2 -108.5q0 -31 -4.5 -51.5t-15 -34t-29.5 -24.5l2 -6l304 -17q10 -10 10 -24l-29 -56q-52 6 -95.5 11.5t-77 9.5t-56.5 6t-34 2q-15 0 -36 -2.5t-45 -7t-49 -9.5l-11 5l4 43q30 9 47 21.5t24 32t7 49.5q0 20 -1.5 51.5t-3.5 68.5
t-4 73.5t-2.5 67.5t0.5 50q10 24 20 44.5t23.5 40t31.5 38.5zM220 63v460q0 11 8.5 35t18.5 51h25v-489q0 -6 -5 -21.5t-16 -35.5h-31zM417 429h-54l-12 102q-12 3 -28 6t-30.5 5t-25.5 2q-10 0 -17.5 -0.5t-12.5 -1.5l10 67q5 2 8 2.5t7 0.5q10 0 38.5 -1.5t63.5 -3.5
t65 -5zM709 607q11 -7 20.5 -17.5t14.5 -21.5q-2 -28 -3 -64.5t-1 -75v-72.5t1 -68.5t2.5 -67t2.5 -63t1 -58t-1 -50.5q-2 -47 -38.5 -82t-96 -63.5t-131.5 -54.5l-15 37q51 24 89.5 42.5t66.5 35t44 35t22 43.5q4 18 5 40t1 49.5t-1.5 61t-2.5 74t-1 88.5q0 27 0.5 60
t3.5 64t10 51l-2 6h-126l-115 22v39q42 4 84.5 7.5t78 5.5t59 1.5t28.5 -4.5zM540 543h93v-593l-93 -56v649z" />
    <glyph glyph-name="Lacute" unicode="&#x139;" horiz-adv-x="446" 
d="M167 563q-8 -65 -8.5 -130.5t1.5 -125t2 -108.5q0 -31 -4.5 -51.5t-15 -34t-29.5 -24.5l2 -6l304 -17q10 -10 10 -24l-29 -56q-52 6 -95.5 11.5t-77 9.5t-56.5 6t-34 2q-15 0 -36 -2.5t-45 -7t-49 -9.5l-11 5l4 43q30 9 47 21.5t24 32t7 49.5q0 20 -1.5 51.5t-3.5 68.5
t-4 73.5t-2.5 67.5t0.5 50q10 24 20 44.5t23.5 40t31.5 38.5zM220 63v460q0 11 8.5 35t18.5 51h25v-489q0 -6 -5 -21.5t-16 -35.5h-31zM417 429h-54l-12 102q-12 3 -28 6t-30.5 5t-25.5 2q-10 0 -17.5 -0.5t-12.5 -1.5l10 67q5 2 8 2.5t7 0.5q10 0 38.5 -1.5t63.5 -3.5
t65 -5zM172 645l-15 36l163 94l40 -60l-4 -26q-25 -6 -57 -14t-64.5 -15.5t-62.5 -14.5z" />
    <glyph glyph-name="Lcaron" unicode="&#x13d;" horiz-adv-x="446" 
d="M167 563q-8 -65 -8.5 -130.5t1.5 -125t2 -108.5q0 -31 -4.5 -51.5t-15 -34t-29.5 -24.5l2 -6l304 -17q10 -10 10 -24l-29 -56q-52 6 -95.5 11.5t-77 9.5t-56.5 6t-34 2q-15 0 -36 -2.5t-45 -7t-49 -9.5l-11 5l4 43q30 9 47 21.5t24 32t7 49.5q0 20 -1.5 51.5t-3.5 68.5
t-4 73.5t-2.5 67.5t0.5 50q10 24 20 44.5t23.5 40t31.5 38.5zM220 63v460q0 11 8.5 35t18.5 51h25v-489q0 -6 -5 -21.5t-16 -35.5h-31zM417 429h-54l-12 102q-12 3 -28 6t-30.5 5t-25.5 2q-10 0 -17.5 -0.5t-12.5 -1.5l10 67q5 2 8 2.5t7 0.5q10 0 38.5 -1.5t63.5 -3.5
t65 -5zM486 478l-32 16q5 16 9.5 38t6.5 42q-7 5 -12 9t-5 6l3 77q14 2 27.5 3.5t31.5 1.5q3 0 7.5 -4.5t8.5 -10t4 -8.5v-22q0 -24 -7.5 -52.5t-19 -54t-22.5 -41.5z" />
    <glyph glyph-name="uni013B" unicode="&#x13b;" horiz-adv-x="446" 
d="M167 563q-8 -65 -8.5 -130.5t1.5 -125t2 -108.5q0 -31 -4.5 -51.5t-15 -34t-29.5 -24.5l2 -6l304 -17q10 -10 10 -24l-29 -56q-52 6 -95.5 11.5t-77 9.5t-56.5 6t-34 2q-15 0 -36 -2.5t-45 -7t-49 -9.5l-11 5l4 43q30 9 47 21.5t24 32t7 49.5q0 20 -1.5 51.5t-3.5 68.5
t-4 73.5t-2.5 67.5t0.5 50q10 24 20 44.5t23.5 40t31.5 38.5zM220 63v460q0 11 8.5 35t18.5 51h25v-489q0 -6 -5 -21.5t-16 -35.5h-31zM417 429h-54l-12 102q-12 3 -28 6t-30.5 5t-25.5 2q-10 0 -17.5 -0.5t-12.5 -1.5l10 67q5 2 8 2.5t7 0.5q10 0 38.5 -1.5t63.5 -3.5
t65 -5zM221 -241l-39 17q11 27 17 48t8 37q-14 7 -21 15t-9.5 15t-1.5 11l3 17q0 2 7 7.5t16.5 12t17 11.5t9.5 5q3 0 10.5 -6t15.5 -14.5t14 -16.5t6 -12q0 -14 -5 -34t-13 -41t-17.5 -40t-17.5 -32z" />
    <glyph glyph-name="Ldot" unicode="&#x13f;" horiz-adv-x="446" 
d="M167 563q-8 -65 -8.5 -130.5t1.5 -125t2 -108.5q0 -31 -4.5 -51.5t-15 -34t-29.5 -24.5l2 -6l304 -17q10 -10 10 -24l-29 -56q-52 6 -95.5 11.5t-77 9.5t-56.5 6t-34 2q-15 0 -36 -2.5t-45 -7t-49 -9.5l-11 5l4 43q30 9 47 21.5t24 32t7 49.5q0 20 -1.5 51.5t-3.5 68.5
t-4 73.5t-2.5 67.5t0.5 50q10 24 20 44.5t23.5 40t31.5 38.5zM220 63v460q0 11 8.5 35t18.5 51h25v-489q0 -6 -5 -21.5t-16 -35.5h-31zM417 429h-54l-12 102q-12 3 -28 6t-30.5 5t-25.5 2q-10 0 -17.5 -0.5t-12.5 -1.5l10 67q5 2 8 2.5t7 0.5q10 0 38.5 -1.5t63.5 -3.5
t65 -5zM316 318q0 2 6.5 7.5t15.5 11.5l16.5 11t9.5 5q3 0 10.5 -6t16 -14t14 -16t4.5 -11l-3 -17q-1 -2 -7.5 -7.5t-15.5 -12t-16.5 -11t-9.5 -4.5q-3 0 -10.5 6t-15.5 14.5t-13 16t-5 10.5z" />
    <glyph glyph-name="uni01C8" unicode="&#x1c8;" horiz-adv-x="665" 
d="M167 563q-8 -65 -8.5 -130.5t1.5 -125t2 -108.5q0 -31 -4.5 -51.5t-15 -34t-29.5 -24.5l2 -6l304 -17q10 -10 10 -24l-29 -56q-52 6 -95.5 11.5t-77 9.5t-56.5 6t-34 2q-15 0 -36 -2.5t-45 -7t-49 -9.5l-11 5l4 43q30 9 47 21.5t24 32t7 49.5q0 20 -1.5 51.5t-3.5 68.5
t-4 73.5t-2.5 67.5t0.5 50q10 24 20 44.5t23.5 40t31.5 38.5zM220 63v460q0 11 8.5 35t18.5 51h25v-489q0 -6 -5 -21.5t-16 -35.5h-31zM417 429h-54l-12 102q-12 3 -28 6t-30.5 5t-25.5 2q-10 0 -17.5 -0.5t-12.5 -1.5l10 67q5 2 8 2.5t7 0.5q10 0 38.5 -1.5t63.5 -3.5
t65 -5zM472 -189l-23 34q28 29 42 57.5t19 56t5 54.5v379l-48 10v39l13.5 2.5t32 5.5t34 5.5t18.5 2.5q4 0 13.5 -7.5t18 -16.5t8.5 -14v-441q0 -30 -20.5 -63.5t-51 -61.5t-61.5 -42zM505 611q0 2 8.5 8.5t19.5 14.5t20 13.5t11 5.5q4 0 13 -7t18.5 -17t16.5 -19t6 -14
l-4 -20q-1 -3 -9 -9.5t-18.5 -14t-19.5 -13t-12 -5.5q-4 0 -13 7.5t-18 17.5t-15.5 19t-6.5 12z" />
    <glyph glyph-name="Lslash" unicode="&#x141;" horiz-adv-x="446" 
d="M167 563q-8 -65 -8.5 -130.5t1.5 -125t2 -108.5q0 -31 -4.5 -51.5t-15 -34t-29.5 -24.5l2 -6l304 -17q10 -10 10 -24l-29 -56q-52 6 -95.5 11.5t-77 9.5t-56.5 6t-34 2q-15 0 -36 -2.5t-45 -7t-49 -9.5l-11 5l4 43q30 9 47 21.5t24 32t7 49.5q0 20 -1.5 51.5t-3.5 68.5
t-4 73.5t-2.5 67.5t0.5 50q10 24 20 44.5t23.5 40t31.5 38.5zM220 63v460q0 11 8.5 35t18.5 51h25v-489q0 -6 -5 -21.5t-16 -35.5h-31zM417 429h-54l-12 102q-12 3 -28 6t-30.5 5t-25.5 2q-10 0 -17.5 -0.5t-12.5 -1.5l10 67q5 2 8 2.5t7 0.5q10 0 38.5 -1.5t63.5 -3.5
t65 -5zM265 348l60 27l14 -3l1 -50l-75 -34v60zM109 225l-81 -37l-13 3l-1 51l95 43v-60z" />
    <glyph glyph-name="M" unicode="M" horiz-adv-x="866" 
d="M92 543l-62 15v39q12 2 31 4.5t39 5t35 4t18 1.5t11 -7t14.5 -15.5t6.5 -11.5v-519l86 -15l-19 -37q-10 -1 -30.5 -4t-41.5 -5.5t-36.5 -4.5t-17.5 -2q-3 0 -11 7t-15.5 15t-7.5 11v519zM392 25v452q0 23 -6 36t-16.5 18.5t-26.5 5.5t-32.5 -10t-32.5 -23l-38 39
q17 13 39.5 28.5t41.5 27.5t24 13q18 1 36.5 -1t35.5 -6.5t31 -13.5q11 -12 19 -31t13 -44t5 -55v-401l86 -16l-19 -37q-10 -1 -30 -4t-41.5 -5.5t-37.5 -4.5t-19 -2t-11 7.5t-14.5 15.5t-6.5 11zM692 25v452q0 23 -6 36t-16.5 18.5t-26.5 5.5t-32.5 -10t-32.5 -23l-38 39
q17 13 39.5 28.5t41.5 27.5t24 13q18 1 36.5 -1t35.5 -6.5t31 -13.5q16 -19 26.5 -52t10.5 -78v-401l62 -15v-39q-12 -2 -31 -4.5t-39 -5t-35 -4t-18 -1.5t-11 7.5t-14.5 15.5t-6.5 11zM292 543v-442q0 -6 -5 -21.5t-16 -35.5h-31v499h52zM592 543v-442q0 -6 -5 -21.5
t-16 -35.5h-31v499h52z" />
    <glyph glyph-name="N" unicode="N" horiz-adv-x="586" 
d="M92 543l-62 15v39q12 2 31 4.5t39 5t35 4t18 1.5t11 -7t14.5 -15.5t6.5 -11.5v-519l86 -15l-19 -37q-10 -1 -30.5 -4t-41.5 -5.5t-36.5 -4.5t-17.5 -2q-3 0 -11 7t-15.5 15t-7.5 11v519zM412 25v442q0 28 -6 43t-19 21t-34 6q-12 0 -25 -4.5t-25.5 -12t-24.5 -16.5
l-38 39q13 8 30.5 19.5t35.5 22.5t31.5 18.5t17.5 8.5q27 2 59.5 -3t53.5 -18q16 -19 26.5 -52t10.5 -78v-401l62 -15v-39q-12 -2 -31 -4.5t-39 -5t-35 -4t-18 -1.5t-11 7.5t-14.5 15.5t-6.5 11zM292 543v-442q0 -6 -5 -21.5t-16 -35.5h-31v499h52z" />
    <glyph glyph-name="uni01CA" unicode="&#x1ca;" horiz-adv-x="962" 
d="M92 543l-62 15v39q12 2 31 4.5t39 5t35 4t18 1.5t11 -7t14.5 -15.5t6.5 -11.5v-519l86 -15l-19 -37q-10 -1 -30.5 -4t-41.5 -5.5t-36.5 -4.5t-17.5 -2q-3 0 -11 7t-15.5 15t-7.5 11v519zM412 25v442q0 28 -6 43t-19 21t-34 6q-12 0 -25 -4.5t-25.5 -12t-24.5 -16.5
l-38 39q13 8 30.5 19.5t35.5 22.5t31.5 18.5t17.5 8.5q27 2 59.5 -3t53.5 -18q16 -19 26.5 -52t10.5 -78v-401l62 -15v-39q-12 -2 -31 -4.5t-39 -5t-35 -4t-18 -1.5t-11 7.5t-14.5 15.5t-6.5 11zM292 543v-442q0 -6 -5 -21.5t-16 -35.5h-31v499h52zM849 607
q11 -7 20.5 -17.5t14.5 -21.5q-2 -28 -3 -64.5t-1 -75v-72.5t1 -68.5t2.5 -67t2.5 -63t1 -58t-1 -50.5q-2 -47 -38.5 -82t-96 -63.5t-131.5 -54.5l-15 37q51 24 89.5 42.5t66.5 35t44 35t22 43.5q4 18 5 40t1 49.5t-1.5 61t-2.5 74t-1 88.5q0 27 0.5 60t3.5 64t10 51l-2 6
h-126l-115 22v39q42 4 84.5 7.5t78 5.5t59 1.5t28.5 -4.5zM680 543h93v-593l-93 -56v649z" />
    <glyph glyph-name="Nacute" unicode="&#x143;" horiz-adv-x="586" 
d="M92 543l-62 15v39q12 2 31 4.5t39 5t35 4t18 1.5t11 -7t14.5 -15.5t6.5 -11.5v-519l86 -15l-19 -37q-10 -1 -30.5 -4t-41.5 -5.5t-36.5 -4.5t-17.5 -2q-3 0 -11 7t-15.5 15t-7.5 11v519zM412 25v442q0 28 -6 43t-19 21t-34 6q-12 0 -25 -4.5t-25.5 -12t-24.5 -16.5
l-38 39q13 8 30.5 19.5t35.5 22.5t31.5 18.5t17.5 8.5q27 2 59.5 -3t53.5 -18q16 -19 26.5 -52t10.5 -78v-401l62 -15v-39q-12 -2 -31 -4.5t-39 -5t-35 -4t-18 -1.5t-11 7.5t-14.5 15.5t-6.5 11zM292 543v-442q0 -6 -5 -21.5t-16 -35.5h-31v499h52zM266 660l-15 36l163 94
l40 -60l-4 -26q-25 -6 -57 -14t-64.5 -15.5t-62.5 -14.5z" />
    <glyph glyph-name="Ncaron" unicode="&#x147;" horiz-adv-x="586" 
d="M92 543l-62 15v39q12 2 31 4.5t39 5t35 4t18 1.5t11 -7t14.5 -15.5t6.5 -11.5v-519l86 -15l-19 -37q-10 -1 -30.5 -4t-41.5 -5.5t-36.5 -4.5t-17.5 -2q-3 0 -11 7t-15.5 15t-7.5 11v519zM412 25v442q0 28 -6 43t-19 21t-34 6q-12 0 -25 -4.5t-25.5 -12t-24.5 -16.5
l-38 39q13 8 30.5 19.5t35.5 22.5t31.5 18.5t17.5 8.5q27 2 59.5 -3t53.5 -18q16 -19 26.5 -52t10.5 -78v-401l62 -15v-39q-12 -2 -31 -4.5t-39 -5t-35 -4t-18 -1.5t-11 7.5t-14.5 15.5t-6.5 11zM292 543v-442q0 -6 -5 -21.5t-16 -35.5h-31v499h52zM284 644l-98 136l28 25
l99 -84h8l99 84l28 -25l-98 -136h-66z" />
    <glyph glyph-name="uni0145" unicode="&#x145;" horiz-adv-x="586" 
d="M92 543l-62 15v39q12 2 31 4.5t39 5t35 4t18 1.5t11 -7t14.5 -15.5t6.5 -11.5v-519l86 -15l-19 -37q-10 -1 -30.5 -4t-41.5 -5.5t-36.5 -4.5t-17.5 -2q-3 0 -11 7t-15.5 15t-7.5 11v519zM412 25v442q0 28 -6 43t-19 21t-34 6q-12 0 -25 -4.5t-25.5 -12t-24.5 -16.5
l-38 39q13 8 30.5 19.5t35.5 22.5t31.5 18.5t17.5 8.5q27 2 59.5 -3t53.5 -18q16 -19 26.5 -52t10.5 -78v-401l62 -15v-39q-12 -2 -31 -4.5t-39 -5t-35 -4t-18 -1.5t-11 7.5t-14.5 15.5t-6.5 11zM292 543v-442q0 -6 -5 -21.5t-16 -35.5h-31v499h52zM316 -271l-39 17
q11 27 17 48t8 37q-14 7 -21 15t-9.5 15t-1.5 11l3 17q0 2 7 7.5t16.5 12t17 11.5t9.5 5q3 0 10.5 -6t15.5 -14.5t14 -16.5t6 -12q0 -14 -5 -34t-13 -41t-17.5 -40t-17.5 -32z" />
    <glyph glyph-name="Eng" unicode="&#x14a;" horiz-adv-x="570" 
d="M92 543l-62 15v39q12 2 31 4.5t39 5t35 4t18 1.5t11 -7t14.5 -15.5t6.5 -11.5v-519l86 -15l-19 -37q-10 -1 -30.5 -4t-41.5 -5.5t-36.5 -4.5t-17.5 -2q-3 0 -11 7t-15.5 15t-7.5 11v519zM292 543v-442q0 -6 -5 -21.5t-16 -35.5h-31v499h52zM240 543q13 8 30.5 19.5
t35.5 22.5t31.5 18.5t17.5 8.5q27 2 59.5 -3t53.5 -18q16 -19 26.5 -52t10.5 -78v-523q0 -30 -20.5 -63.5t-51 -61.5t-61.5 -42l-27 33q41 44 54 86t13 83v494q0 28 -6 43t-19 21t-34 6q-12 0 -25 -4.5t-25.5 -12t-24.5 -16.5z" />
    <glyph glyph-name="uni019D" unicode="&#x19d;" horiz-adv-x="597" 
d="M412 25v442q0 28 -6 43t-19 21t-34 6q-12 0 -25 -4.5t-25.5 -12t-24.5 -16.5l-38 39q13 8 30.5 19.5t35.5 22.5t31.5 18.5t17.5 8.5q27 2 59.5 -3t53.5 -18q16 -19 26.5 -52t10.5 -78v-401l62 -15v-39q-12 -2 -31 -4.5t-39 -5t-35 -4t-18 -1.5t-11 7.5t-14.5 15.5
t-6.5 11zM292 543v-476q0 -6 -5 -26.5t-16 -40.5h-31v543h52zM25 -196q41 44 54 86t13 83v570l-62 15v39q12 2 31 4.5t39 5t35 4t18 1.5t11 -7t14.5 -15.5t6.5 -11.5v-640q0 -30 -20.5 -63.5t-51 -61.5t-61.5 -42z" />
    <glyph glyph-name="uni01CB" unicode="&#x1cb;" horiz-adv-x="805" 
d="M92 543l-62 15v39q12 2 31 4.5t39 5t35 4t18 1.5t11 -7t14.5 -15.5t6.5 -11.5v-519l86 -15l-19 -37q-10 -1 -30.5 -4t-41.5 -5.5t-36.5 -4.5t-17.5 -2q-3 0 -11 7t-15.5 15t-7.5 11v519zM412 25v442q0 28 -6 43t-19 21t-34 6q-12 0 -25 -4.5t-25.5 -12t-24.5 -16.5
l-38 39q13 8 30.5 19.5t35.5 22.5t31.5 18.5t17.5 8.5q27 2 59.5 -3t53.5 -18q16 -19 26.5 -52t10.5 -78v-401l62 -15v-39q-12 -2 -31 -4.5t-39 -5t-35 -4t-18 -1.5t-11 7.5t-14.5 15.5t-6.5 11zM292 543v-442q0 -6 -5 -21.5t-16 -35.5h-31v499h52zM612 -189l-23 34
q28 29 42 57.5t19 56t5 54.5v379l-48 10v39l13.5 2.5t32 5.5t34 5.5t18.5 2.5q4 0 13.5 -7.5t18 -16.5t8.5 -14v-441q0 -30 -20.5 -63.5t-51 -61.5t-61.5 -42zM645 611q0 2 8.5 8.5t19.5 14.5t20 13.5t11 5.5q4 0 13 -7t18.5 -17t16.5 -19t6 -14l-4 -20q-1 -3 -9 -9.5
t-18.5 -14t-19.5 -13t-12 -5.5q-4 0 -13 7.5t-18 17.5t-15.5 19t-6.5 12z" />
    <glyph glyph-name="Ntilde" unicode="&#xd1;" horiz-adv-x="586" 
d="M92 543l-62 15v39q12 2 31 4.5t39 5t35 4t18 1.5t11 -7t14.5 -15.5t6.5 -11.5v-519l86 -15l-19 -37q-10 -1 -30.5 -4t-41.5 -5.5t-36.5 -4.5t-17.5 -2q-3 0 -11 7t-15.5 15t-7.5 11v519zM412 25v442q0 28 -6 43t-19 21t-34 6q-12 0 -25 -4.5t-25.5 -12t-24.5 -16.5
l-38 39q13 8 30.5 19.5t35.5 22.5t31.5 18.5t17.5 8.5q27 2 59.5 -3t53.5 -18q16 -19 26.5 -52t10.5 -78v-401l62 -15v-39q-12 -2 -31 -4.5t-39 -5t-35 -4t-18 -1.5t-11 7.5t-14.5 15.5t-6.5 11zM292 543v-442q0 -6 -5 -21.5t-16 -35.5h-31v499h52zM379 657q-26 0 -51.5 9.5
t-45.5 18.5t-30 9q-5 0 -16.5 -7t-23 -15.5t-15.5 -11.5l-32 27q6 8 17 21t24.5 26t26 22t21.5 9q20 0 47.5 -10t51.5 -20.5t34 -10.5q8 0 24.5 13.5t24.5 23.5l34 -29q-6 -8 -17 -20.5t-24.5 -25t-27 -21t-22.5 -8.5z" />
    <glyph glyph-name="O" unicode="O" horiz-adv-x="542" 
d="M162 545q-6 -35 -11.5 -69t-8.5 -75t-3 -98q0 -72 8 -120.5t26 -77.5t49 -41.5t76 -12.5q8 0 28 9t38 19.5t20 14.5q5 22 9.5 50.5t7 66.5t2.5 89q0 79 -12.5 135t-43 85.5t-85.5 29.5h-8t-10 -1l-13 60q4 2 8.5 2.5t6.5 0.5q81 0 138.5 -30.5t87.5 -95t30 -168.5
q0 -69 -8 -122.5t-17 -87.5q-13 -17 -36.5 -37.5t-50.5 -38.5t-50 -29.5t-34 -11.5q-66 0 -116 17t-83 52.5t-50 91t-17 131.5q0 69 8.5 123.5t21.5 88.5q11 17 29 35t37 34zM231 609h25v-508q0 -6 -5 -21.5t-16 -35.5h-31v479q0 11 8.5 35t18.5 51z" />
    <glyph glyph-name="Oacute" unicode="&#xd3;" horiz-adv-x="542" 
d="M162 545q-6 -35 -11.5 -69t-8.5 -75t-3 -98q0 -72 8 -120.5t26 -77.5t49 -41.5t76 -12.5q8 0 28 9t38 19.5t20 14.5q5 22 9.5 50.5t7 66.5t2.5 89q0 79 -12.5 135t-43 85.5t-85.5 29.5h-8t-10 -1l-13 60q4 2 8.5 2.5t6.5 0.5q81 0 138.5 -30.5t87.5 -95t30 -168.5
q0 -69 -8 -122.5t-17 -87.5q-13 -17 -36.5 -37.5t-50.5 -38.5t-50 -29.5t-34 -11.5q-66 0 -116 17t-83 52.5t-50 91t-17 131.5q0 69 8.5 123.5t21.5 88.5q11 17 29 35t37 34zM231 609h25v-508q0 -6 -5 -21.5t-16 -35.5h-31v479q0 11 8.5 35t18.5 51zM224 660l-15 36l163 94
l40 -60l-4 -26q-25 -6 -57 -14t-64.5 -15.5t-62.5 -14.5z" />
    <glyph glyph-name="Obreve" unicode="&#x14e;" horiz-adv-x="542" 
d="M162 545q-6 -35 -11.5 -69t-8.5 -75t-3 -98q0 -72 8 -120.5t26 -77.5t49 -41.5t76 -12.5q8 0 28 9t38 19.5t20 14.5q5 22 9.5 50.5t7 66.5t2.5 89q0 79 -12.5 135t-43 85.5t-85.5 29.5h-8t-10 -1l-13 60q4 2 8.5 2.5t6.5 0.5q81 0 138.5 -30.5t87.5 -95t30 -168.5
q0 -69 -8 -122.5t-17 -87.5q-13 -17 -36.5 -37.5t-50.5 -38.5t-50 -29.5t-34 -11.5q-66 0 -116 17t-83 52.5t-50 91t-17 131.5q0 69 8.5 123.5t21.5 88.5q11 17 29 35t37 34zM231 609h25v-508q0 -6 -5 -21.5t-16 -35.5h-31v479q0 11 8.5 35t18.5 51zM273 662q-32 0 -62 16.5
t-52 40t-32 43.5l28 25q25 -25 53.5 -42.5t64.5 -17.5t64.5 17.5t53.5 42.5l28 -25q-10 -20 -32 -43.5t-51.5 -40t-62.5 -16.5z" />
    <glyph glyph-name="uni01D1" unicode="&#x1d1;" horiz-adv-x="542" 
d="M162 545q-6 -35 -11.5 -69t-8.5 -75t-3 -98q0 -72 8 -120.5t26 -77.5t49 -41.5t76 -12.5q8 0 28 9t38 19.5t20 14.5q5 22 9.5 50.5t7 66.5t2.5 89q0 79 -12.5 135t-43 85.5t-85.5 29.5h-8t-10 -1l-13 60q4 2 8.5 2.5t6.5 0.5q81 0 138.5 -30.5t87.5 -95t30 -168.5
q0 -69 -8 -122.5t-17 -87.5q-13 -17 -36.5 -37.5t-50.5 -38.5t-50 -29.5t-34 -11.5q-66 0 -116 17t-83 52.5t-50 91t-17 131.5q0 69 8.5 123.5t21.5 88.5q11 17 29 35t37 34zM231 609h25v-508q0 -6 -5 -21.5t-16 -35.5h-31v479q0 11 8.5 35t18.5 51zM242 644l-98 136l28 25
l99 -84h8l99 84l28 -25l-98 -136h-66z" />
    <glyph glyph-name="Ocircumflex" unicode="&#xd4;" horiz-adv-x="542" 
d="M162 545q-6 -35 -11.5 -69t-8.5 -75t-3 -98q0 -72 8 -120.5t26 -77.5t49 -41.5t76 -12.5q8 0 28 9t38 19.5t20 14.5q5 22 9.5 50.5t7 66.5t2.5 89q0 79 -12.5 135t-43 85.5t-85.5 29.5h-8t-10 -1l-13 60q4 2 8.5 2.5t6.5 0.5q81 0 138.5 -30.5t87.5 -95t30 -168.5
q0 -69 -8 -122.5t-17 -87.5q-13 -17 -36.5 -37.5t-50.5 -38.5t-50 -29.5t-34 -11.5q-66 0 -116 17t-83 52.5t-50 91t-17 131.5q0 69 8.5 123.5t21.5 88.5q11 17 29 35t37 34zM231 609h25v-508q0 -6 -5 -21.5t-16 -35.5h-31v479q0 11 8.5 35t18.5 51zM172 658l-30 30l103 104
h56l103 -104l-30 -30l-96 64h-11z" />
    <glyph glyph-name="uni1ED0" unicode="&#x1ed0;" horiz-adv-x="542" 
d="M162 545q-6 -35 -11.5 -69t-8.5 -75t-3 -98q0 -72 8 -120.5t26 -77.5t49 -41.5t76 -12.5q8 0 28 9t38 19.5t20 14.5q5 22 9.5 50.5t7 66.5t2.5 89q0 79 -12.5 135t-43 85.5t-85.5 29.5h-8t-10 -1l-13 60q4 2 8.5 2.5t6.5 0.5q81 0 138.5 -30.5t87.5 -95t30 -168.5
q0 -69 -8 -122.5t-17 -87.5q-13 -17 -36.5 -37.5t-50.5 -38.5t-50 -29.5t-34 -11.5q-66 0 -116 17t-83 52.5t-50 91t-17 131.5q0 69 8.5 123.5t21.5 88.5q11 17 29 35t37 34zM231 609h25v-508q0 -6 -5 -21.5t-16 -35.5h-31v479q0 11 8.5 35t18.5 51zM166 664l-23 30l96 91
h66l96 -91l-23 -30l-102 44h-8zM217 791l-21 32l100 91l44 -54l-2 -25q-34 -14 -59.5 -22.5t-61.5 -21.5z" />
    <glyph glyph-name="uni1ED8" unicode="&#x1ed8;" horiz-adv-x="542" 
d="M162 545q-6 -35 -11.5 -69t-8.5 -75t-3 -98q0 -72 8 -120.5t26 -77.5t49 -41.5t76 -12.5q8 0 28 9t38 19.5t20 14.5q5 22 9.5 50.5t7 66.5t2.5 89q0 79 -12.5 135t-43 85.5t-85.5 29.5h-8t-10 -1l-13 60q4 2 8.5 2.5t6.5 0.5q81 0 138.5 -30.5t87.5 -95t30 -168.5
q0 -69 -8 -122.5t-17 -87.5q-13 -17 -36.5 -37.5t-50.5 -38.5t-50 -29.5t-34 -11.5q-66 0 -116 17t-83 52.5t-50 91t-17 131.5q0 69 8.5 123.5t21.5 88.5q11 17 29 35t37 34zM231 609h25v-508q0 -6 -5 -21.5t-16 -35.5h-31v479q0 11 8.5 35t18.5 51zM224 -121q0 2 7.5 8
t17.5 13.5t18.5 12.5t10.5 5q3 0 11.5 -6.5t17.5 -15.5t15 -17.5t5 -12.5l-4 -18q0 -3 -7.5 -9t-17.5 -13t-18 -12t-11 -5q-4 0 -12 6.5t-16.5 16t-14 17.5t-5.5 11zM172 658l-30 30l103 104h56l103 -104l-30 -30l-96 64h-11z" />
    <glyph glyph-name="uni1ED2" unicode="&#x1ed2;" horiz-adv-x="542" 
d="M162 545q-6 -35 -11.5 -69t-8.5 -75t-3 -98q0 -72 8 -120.5t26 -77.5t49 -41.5t76 -12.5q8 0 28 9t38 19.5t20 14.5q5 22 9.5 50.5t7 66.5t2.5 89q0 79 -12.5 135t-43 85.5t-85.5 29.5h-8t-10 -1l-13 60q4 2 8.5 2.5t6.5 0.5q81 0 138.5 -30.5t87.5 -95t30 -168.5
q0 -69 -8 -122.5t-17 -87.5q-13 -17 -36.5 -37.5t-50.5 -38.5t-50 -29.5t-34 -11.5q-66 0 -116 17t-83 52.5t-50 91t-17 131.5q0 69 8.5 123.5t21.5 88.5q11 17 29 35t37 34zM231 609h25v-508q0 -6 -5 -21.5t-16 -35.5h-31v479q0 11 8.5 35t18.5 51zM166 664l-23 30l96 91
h66l96 -91l-23 -30l-102 44h-8zM327 791q-36 13 -61 21.5t-60 22.5l-2 25l44 54l100 -91z" />
    <glyph glyph-name="uni1ED4" unicode="&#x1ed4;" horiz-adv-x="542" 
d="M162 545q-6 -35 -11.5 -69t-8.5 -75t-3 -98q0 -72 8 -120.5t26 -77.5t49 -41.5t76 -12.5q8 0 28 9t38 19.5t20 14.5q5 22 9.5 50.5t7 66.5t2.5 89q0 79 -12.5 135t-43 85.5t-85.5 29.5h-8t-10 -1l-13 60q4 2 8.5 2.5t6.5 0.5q81 0 138.5 -30.5t87.5 -95t30 -168.5
q0 -69 -8 -122.5t-17 -87.5q-13 -17 -36.5 -37.5t-50.5 -38.5t-50 -29.5t-34 -11.5q-66 0 -116 17t-83 52.5t-50 91t-17 131.5q0 69 8.5 123.5t21.5 88.5q11 17 29 35t37 34zM231 609h25v-508q0 -6 -5 -21.5t-16 -35.5h-31v479q0 11 8.5 35t18.5 51zM259 807l-17 28
q23 15 33.5 30.5t10.5 27.5q0 11 -8.5 18t-25.5 7q-4 0 -9.5 -0.5t-10.5 -1.5l-9 42q26 8 46 8q38 0 60 -21t18 -57q-2 -14 -25 -37.5t-63 -43.5zM166 664l-23 30l96 91h66l96 -91l-23 -30l-102 44h-8z" />
    <glyph glyph-name="uni1ED6" unicode="&#x1ed6;" horiz-adv-x="542" 
d="M162 545q-6 -35 -11.5 -69t-8.5 -75t-3 -98q0 -72 8 -120.5t26 -77.5t49 -41.5t76 -12.5q8 0 28 9t38 19.5t20 14.5q5 22 9.5 50.5t7 66.5t2.5 89q0 79 -12.5 135t-43 85.5t-85.5 29.5h-8t-10 -1l-13 60q4 2 8.5 2.5t6.5 0.5q81 0 138.5 -30.5t87.5 -95t30 -168.5
q0 -69 -8 -122.5t-17 -87.5q-13 -17 -36.5 -37.5t-50.5 -38.5t-50 -29.5t-34 -11.5q-66 0 -116 17t-83 52.5t-50 91t-17 131.5q0 69 8.5 123.5t21.5 88.5q11 17 29 35t37 34zM231 609h25v-508q0 -6 -5 -21.5t-16 -35.5h-31v479q0 11 8.5 35t18.5 51zM239 802h66l98 -136
l-28 -25l-99 84h-8l-99 -84l-28 25zM333 841q-26 0 -51.5 9.5t-45.5 18.5t-30 9q-5 0 -16.5 -7t-23 -15.5t-15.5 -11.5l-32 27q6 8 17 21t24.5 26t26 22t21.5 9q20 0 47.5 -10t51.5 -20.5t34 -10.5q8 0 24.5 13.5t24.5 23.5l34 -29q-6 -8 -17 -20.5t-24.5 -25t-27 -21
t-22.5 -8.5z" />
    <glyph glyph-name="uni020C" unicode="&#x20c;" horiz-adv-x="542" 
d="M162 545q-6 -35 -11.5 -69t-8.5 -75t-3 -98q0 -72 8 -120.5t26 -77.5t49 -41.5t76 -12.5q8 0 28 9t38 19.5t20 14.5q5 22 9.5 50.5t7 66.5t2.5 89q0 79 -12.5 135t-43 85.5t-85.5 29.5h-8t-10 -1l-13 60q4 2 8.5 2.5t6.5 0.5q81 0 138.5 -30.5t87.5 -95t30 -168.5
q0 -69 -8 -122.5t-17 -87.5q-13 -17 -36.5 -37.5t-50.5 -38.5t-50 -29.5t-34 -11.5q-66 0 -116 17t-83 52.5t-50 91t-17 131.5q0 69 8.5 123.5t21.5 88.5q11 17 29 35t37 34zM231 609h25v-508q0 -6 -5 -21.5t-16 -35.5h-31v479q0 11 8.5 35t18.5 51zM407 663
q-43 14 -85.5 32t-79.5 31l-5 24l43 57l145 -110zM213 666q-43 12 -86 29t-81 28l-5 24l40 58l149 -105z" />
    <glyph glyph-name="Odieresis" unicode="&#xd6;" horiz-adv-x="542" 
d="M162 545q-6 -35 -11.5 -69t-8.5 -75t-3 -98q0 -72 8 -120.5t26 -77.5t49 -41.5t76 -12.5q8 0 28 9t38 19.5t20 14.5q5 22 9.5 50.5t7 66.5t2.5 89q0 79 -12.5 135t-43 85.5t-85.5 29.5h-8t-10 -1l-13 60q4 2 8.5 2.5t6.5 0.5q81 0 138.5 -30.5t87.5 -95t30 -168.5
q0 -69 -8 -122.5t-17 -87.5q-13 -17 -36.5 -37.5t-50.5 -38.5t-50 -29.5t-34 -11.5q-66 0 -116 17t-83 52.5t-50 91t-17 131.5q0 69 8.5 123.5t21.5 88.5q11 17 29 35t37 34zM231 609h25v-508q0 -6 -5 -21.5t-16 -35.5h-31v479q0 11 8.5 35t18.5 51zM312 736q0 2 7.5 8
t17.5 13.5t18.5 12.5t10.5 5q3 0 11.5 -6.5t17.5 -15.5t15 -17.5t5 -12.5l-4 -18q-1 -3 -8 -9t-17 -13t-18 -12t-11 -5q-4 0 -12 6.5t-16.5 16t-14 17.5t-5.5 11zM136 736q0 2 7.5 8t17.5 13.5t18.5 12.5t10.5 5q3 0 11.5 -6.5t17.5 -15.5t15 -17.5t5 -12.5l-4 -18
q-1 -3 -8 -9t-17 -13t-18 -12t-11 -5q-4 0 -12 6.5t-16.5 16t-14 17.5t-5.5 11z" />
    <glyph glyph-name="uni022A" unicode="&#x22a;" horiz-adv-x="542" 
d="M162 545q-6 -35 -11.5 -69t-8.5 -75t-3 -98q0 -72 8 -120.5t26 -77.5t49 -41.5t76 -12.5q8 0 28 9t38 19.5t20 14.5q5 22 9.5 50.5t7 66.5t2.5 89q0 79 -12.5 135t-43 85.5t-85.5 29.5h-8t-10 -1l-13 60q4 2 8.5 2.5t6.5 0.5q81 0 138.5 -30.5t87.5 -95t30 -168.5
q0 -69 -8 -122.5t-17 -87.5q-13 -17 -36.5 -37.5t-50.5 -38.5t-50 -29.5t-34 -11.5q-66 0 -116 17t-83 52.5t-50 91t-17 131.5q0 69 8.5 123.5t21.5 88.5q11 17 29 35t37 34zM231 609h25v-508q0 -6 -5 -21.5t-16 -35.5h-31v479q0 11 8.5 35t18.5 51zM130 834v66h285v-66
h-285zM311 736q0 2 7.5 8t17.5 13.5t18.5 12.5t10.5 5q3 0 11.5 -6.5t17.5 -15.5t15 -17.5t5 -12.5l-4 -18q-1 -3 -8 -9t-17 -13t-18 -12t-11 -5q-4 0 -12 6.5t-16.5 16t-14 17.5t-5.5 11zM135 736q0 2 7.5 8t17.5 13.5t18.5 12.5t10.5 5q3 0 11.5 -6.5t17.5 -15.5t15 -17.5
t5 -12.5l-4 -18q-1 -3 -8 -9t-17 -13t-18 -12t-11 -5q-4 0 -12 6.5t-16.5 16t-14 17.5t-5.5 11z" />
    <glyph glyph-name="uni0230" unicode="&#x230;" horiz-adv-x="542" 
d="M162 545q-6 -35 -11.5 -69t-8.5 -75t-3 -98q0 -72 8 -120.5t26 -77.5t49 -41.5t76 -12.5q8 0 28 9t38 19.5t20 14.5q5 22 9.5 50.5t7 66.5t2.5 89q0 79 -12.5 135t-43 85.5t-85.5 29.5h-8t-10 -1l-13 60q4 2 8.5 2.5t6.5 0.5q81 0 138.5 -30.5t87.5 -95t30 -168.5
q0 -69 -8 -122.5t-17 -87.5q-13 -17 -36.5 -37.5t-50.5 -38.5t-50 -29.5t-34 -11.5q-66 0 -116 17t-83 52.5t-50 91t-17 131.5q0 69 8.5 123.5t21.5 88.5q11 17 29 35t37 34zM231 609h25v-508q0 -6 -5 -21.5t-16 -35.5h-31v479q0 11 8.5 35t18.5 51zM130 834v66h285v-66
h-285zM224 741q0 2 7.5 8t17.5 13.5t18.5 12.5t10.5 5q3 0 11.5 -6.5t17.5 -15.5t15 -17.5t5 -12.5l-4 -18q-1 -3 -8 -9t-17 -13t-18 -12t-11 -5q-4 0 -12 6.5t-16.5 16t-14 17.5t-5.5 11z" />
    <glyph glyph-name="uni1ECC" unicode="&#x1ecc;" horiz-adv-x="542" 
d="M162 545q-6 -35 -11.5 -69t-8.5 -75t-3 -98q0 -72 8 -120.5t26 -77.5t49 -41.5t76 -12.5q8 0 28 9t38 19.5t20 14.5q5 22 9.5 50.5t7 66.5t2.5 89q0 79 -12.5 135t-43 85.5t-85.5 29.5h-8t-10 -1l-13 60q4 2 8.5 2.5t6.5 0.5q81 0 138.5 -30.5t87.5 -95t30 -168.5
q0 -69 -8 -122.5t-17 -87.5q-13 -17 -36.5 -37.5t-50.5 -38.5t-50 -29.5t-34 -11.5q-66 0 -116 17t-83 52.5t-50 91t-17 131.5q0 69 8.5 123.5t21.5 88.5q11 17 29 35t37 34zM231 609h25v-508q0 -6 -5 -21.5t-16 -35.5h-31v479q0 11 8.5 35t18.5 51zM193 -121q0 2 7.5 8
t17.5 13.5t18.5 12.5t10.5 5q3 0 11.5 -6.5t17.5 -15.5t15 -17.5t5 -12.5l-4 -18q0 -3 -7.5 -9t-17.5 -13t-18 -12t-11 -5q-4 0 -12 6.5t-16.5 16t-14 17.5t-5.5 11z" />
    <glyph glyph-name="Ograve" unicode="&#xd2;" horiz-adv-x="542" 
d="M162 545q-6 -35 -11.5 -69t-8.5 -75t-3 -98q0 -72 8 -120.5t26 -77.5t49 -41.5t76 -12.5q8 0 28 9t38 19.5t20 14.5q5 22 9.5 50.5t7 66.5t2.5 89q0 79 -12.5 135t-43 85.5t-85.5 29.5h-8t-10 -1l-13 60q4 2 8.5 2.5t6.5 0.5q81 0 138.5 -30.5t87.5 -95t30 -168.5
q0 -69 -8 -122.5t-17 -87.5q-13 -17 -36.5 -37.5t-50.5 -38.5t-50 -29.5t-34 -11.5q-66 0 -116 17t-83 52.5t-50 91t-17 131.5q0 69 8.5 123.5t21.5 88.5q11 17 29 35t37 34zM231 609h25v-508q0 -6 -5 -21.5t-16 -35.5h-31v479q0 11 8.5 35t18.5 51zM333 660q-29 7 -62 14.5
t-64.5 15.5t-57.5 14l-4 26l40 60l163 -94z" />
    <glyph glyph-name="uni1ECE" unicode="&#x1ece;" horiz-adv-x="542" 
d="M162 545q-6 -35 -11.5 -69t-8.5 -75t-3 -98q0 -72 8 -120.5t26 -77.5t49 -41.5t76 -12.5q8 0 28 9t38 19.5t20 14.5q5 22 9.5 50.5t7 66.5t2.5 89q0 79 -12.5 135t-43 85.5t-85.5 29.5h-8t-10 -1l-13 60q4 2 8.5 2.5t6.5 0.5q81 0 138.5 -30.5t87.5 -95t30 -168.5
q0 -69 -8 -122.5t-17 -87.5q-13 -17 -36.5 -37.5t-50.5 -38.5t-50 -29.5t-34 -11.5q-66 0 -116 17t-83 52.5t-50 91t-17 131.5q0 69 8.5 123.5t21.5 88.5q11 17 29 35t37 34zM231 609h25v-508q0 -6 -5 -21.5t-16 -35.5h-31v479q0 11 8.5 35t18.5 51zM259 638l-20 34
q27 18 40.5 37t13.5 34q0 14 -10.5 22.5t-31.5 8.5q-6 0 -12 -0.5t-13 -2.5l-11 50q15 5 31 7.5t29 2.5q44 0 69 -21t25 -54v-10t-2 -10q-1 -11 -14.5 -28t-37 -35.5t-56.5 -34.5z" />
    <glyph glyph-name="Ohorn" unicode="&#x1a0;" horiz-adv-x="542" 
d="M162 545q-6 -35 -11.5 -69t-8.5 -75t-3 -98q0 -72 8 -120.5t26 -77.5t49 -41.5t76 -12.5q8 0 28 9t38 19.5t20 14.5q5 22 9.5 50.5t7 66.5t2.5 89q0 79 -12.5 135t-43 85.5t-85.5 29.5h-8t-10 -1l-13 60q4 2 8.5 2.5t6.5 0.5q81 0 138.5 -30.5t87.5 -95t30 -168.5
q0 -69 -8 -122.5t-17 -87.5q-13 -17 -36.5 -37.5t-50.5 -38.5t-50 -29.5t-34 -11.5q-66 0 -116 17t-83 52.5t-50 91t-17 131.5q0 69 8.5 123.5t21.5 88.5q11 17 29 35t37 34zM231 609h25v-508q0 -6 -5 -21.5t-16 -35.5h-31v479q0 11 8.5 35t18.5 51zM405 531l-6 38
q20 0 41 14t37 38t21 55l53 -18q-5 -34 -29 -63t-55.5 -46.5t-61.5 -17.5z" />
    <glyph glyph-name="uni1EDA" unicode="&#x1eda;" horiz-adv-x="542" 
d="M162 545q-6 -35 -11.5 -69t-8.5 -75t-3 -98q0 -72 8 -120.5t26 -77.5t49 -41.5t76 -12.5q8 0 28 9t38 19.5t20 14.5q5 22 9.5 50.5t7 66.5t2.5 89q0 79 -12.5 135t-43 85.5t-85.5 29.5h-8t-10 -1l-13 60q4 2 8.5 2.5t6.5 0.5q81 0 138.5 -30.5t87.5 -95t30 -168.5
q0 -69 -8 -122.5t-17 -87.5q-13 -17 -36.5 -37.5t-50.5 -38.5t-50 -29.5t-34 -11.5q-66 0 -116 17t-83 52.5t-50 91t-17 131.5q0 69 8.5 123.5t21.5 88.5q11 17 29 35t37 34zM231 609h25v-508q0 -6 -5 -21.5t-16 -35.5h-31v479q0 11 8.5 35t18.5 51zM405 531l-6 38
q20 0 41 14t37 38t21 55l53 -18q-5 -34 -29 -63t-55.5 -46.5t-61.5 -17.5zM224 660l-15 36l163 94l40 -60l-4 -26q-25 -6 -57 -14t-64.5 -15.5t-62.5 -14.5z" />
    <glyph glyph-name="uni1EE2" unicode="&#x1ee2;" horiz-adv-x="542" 
d="M162 545q-6 -35 -11.5 -69t-8.5 -75t-3 -98q0 -72 8 -120.5t26 -77.5t49 -41.5t76 -12.5q8 0 28 9t38 19.5t20 14.5q5 22 9.5 50.5t7 66.5t2.5 89q0 79 -12.5 135t-43 85.5t-85.5 29.5h-8t-10 -1l-13 60q4 2 8.5 2.5t6.5 0.5q81 0 138.5 -30.5t87.5 -95t30 -168.5
q0 -69 -8 -122.5t-17 -87.5q-13 -17 -36.5 -37.5t-50.5 -38.5t-50 -29.5t-34 -11.5q-66 0 -116 17t-83 52.5t-50 91t-17 131.5q0 69 8.5 123.5t21.5 88.5q11 17 29 35t37 34zM231 609h25v-508q0 -6 -5 -21.5t-16 -35.5h-31v479q0 11 8.5 35t18.5 51zM405 531l-6 38
q20 0 41 14t37 38t21 55l53 -18q-5 -34 -29 -63t-55.5 -46.5t-61.5 -17.5zM224 -121q0 2 7.5 8t17.5 13.5t18.5 12.5t10.5 5q3 0 11.5 -6.5t17.5 -15.5t15 -17.5t5 -12.5l-4 -18q0 -3 -7.5 -9t-17.5 -13t-18 -12t-11 -5q-4 0 -12 6.5t-16.5 16t-14 17.5t-5.5 11z" />
    <glyph glyph-name="uni1EDC" unicode="&#x1edc;" horiz-adv-x="542" 
d="M162 545q-6 -35 -11.5 -69t-8.5 -75t-3 -98q0 -72 8 -120.5t26 -77.5t49 -41.5t76 -12.5q8 0 28 9t38 19.5t20 14.5q5 22 9.5 50.5t7 66.5t2.5 89q0 79 -12.5 135t-43 85.5t-85.5 29.5h-8t-10 -1l-13 60q4 2 8.5 2.5t6.5 0.5q81 0 138.5 -30.5t87.5 -95t30 -168.5
q0 -69 -8 -122.5t-17 -87.5q-13 -17 -36.5 -37.5t-50.5 -38.5t-50 -29.5t-34 -11.5q-66 0 -116 17t-83 52.5t-50 91t-17 131.5q0 69 8.5 123.5t21.5 88.5q11 17 29 35t37 34zM231 609h25v-508q0 -6 -5 -21.5t-16 -35.5h-31v479q0 11 8.5 35t18.5 51zM405 531l-6 38
q20 0 41 14t37 38t21 55l53 -18q-5 -34 -29 -63t-55.5 -46.5t-61.5 -17.5zM333 660q-29 7 -62 14.5t-64.5 15.5t-57.5 14l-4 26l40 60l163 -94z" />
    <glyph glyph-name="uni1EDE" unicode="&#x1ede;" horiz-adv-x="542" 
d="M162 545q-6 -35 -11.5 -69t-8.5 -75t-3 -98q0 -72 8 -120.5t26 -77.5t49 -41.5t76 -12.5q8 0 28 9t38 19.5t20 14.5q5 22 9.5 50.5t7 66.5t2.5 89q0 79 -12.5 135t-43 85.5t-85.5 29.5h-8t-10 -1l-13 60q4 2 8.5 2.5t6.5 0.5q81 0 138.5 -30.5t87.5 -95t30 -168.5
q0 -69 -8 -122.5t-17 -87.5q-13 -17 -36.5 -37.5t-50.5 -38.5t-50 -29.5t-34 -11.5q-66 0 -116 17t-83 52.5t-50 91t-17 131.5q0 69 8.5 123.5t21.5 88.5q11 17 29 35t37 34zM231 609h25v-508q0 -6 -5 -21.5t-16 -35.5h-31v479q0 11 8.5 35t18.5 51zM405 531l-6 38
q20 0 41 14t37 38t21 55l53 -18q-5 -34 -29 -63t-55.5 -46.5t-61.5 -17.5zM259 638l-20 34q27 18 40.5 37t13.5 34q0 14 -10.5 22.5t-31.5 8.5q-6 0 -12 -0.5t-13 -2.5l-11 50q15 5 31 7.5t29 2.5q44 0 69 -21t25 -54v-10t-2 -10q-1 -11 -14.5 -28t-37 -35.5t-56.5 -34.5z
" />
    <glyph glyph-name="uni1EE0" unicode="&#x1ee0;" horiz-adv-x="542" 
d="M162 545q-6 -35 -11.5 -69t-8.5 -75t-3 -98q0 -72 8 -120.5t26 -77.5t49 -41.5t76 -12.5q8 0 28 9t38 19.5t20 14.5q5 22 9.5 50.5t7 66.5t2.5 89q0 79 -12.5 135t-43 85.5t-85.5 29.5h-8t-10 -1l-13 60q4 2 8.5 2.5t6.5 0.5q81 0 138.5 -30.5t87.5 -95t30 -168.5
q0 -69 -8 -122.5t-17 -87.5q-13 -17 -36.5 -37.5t-50.5 -38.5t-50 -29.5t-34 -11.5q-66 0 -116 17t-83 52.5t-50 91t-17 131.5q0 69 8.5 123.5t21.5 88.5q11 17 29 35t37 34zM231 609h25v-508q0 -6 -5 -21.5t-16 -35.5h-31v479q0 11 8.5 35t18.5 51zM405 531l-6 38
q20 0 41 14t37 38t21 55l53 -18q-5 -34 -29 -63t-55.5 -46.5t-61.5 -17.5zM337 657q-26 0 -51.5 9.5t-45.5 18.5t-30 9q-5 0 -16.5 -7t-23 -15.5t-15.5 -11.5l-32 27q6 8 17 21t24.5 26t26 22t21.5 9q20 0 47.5 -10t51.5 -20.5t34 -10.5q8 0 24.5 13.5t24.5 23.5l34 -29
q-6 -8 -17 -20.5t-24.5 -25t-27 -21t-22.5 -8.5z" />
    <glyph glyph-name="Ohungarumlaut" unicode="&#x150;" horiz-adv-x="542" 
d="M162 545q-6 -35 -11.5 -69t-8.5 -75t-3 -98q0 -72 8 -120.5t26 -77.5t49 -41.5t76 -12.5q8 0 28 9t38 19.5t20 14.5q5 22 9.5 50.5t7 66.5t2.5 89q0 79 -12.5 135t-43 85.5t-85.5 29.5h-8t-10 -1l-13 60q4 2 8.5 2.5t6.5 0.5q81 0 138.5 -30.5t87.5 -95t30 -168.5
q0 -69 -8 -122.5t-17 -87.5q-13 -17 -36.5 -37.5t-50.5 -38.5t-50 -29.5t-34 -11.5q-66 0 -116 17t-83 52.5t-50 91t-17 131.5q0 69 8.5 123.5t21.5 88.5q11 17 29 35t37 34zM231 609h25v-508q0 -6 -5 -21.5t-16 -35.5h-31v479q0 11 8.5 35t18.5 51zM149 646l-18 34l145 110
l43 -57l-5 -24q-37 -13 -79 -31t-86 -32zM343 651l-17 34l149 105l40 -58l-5 -24q-37 -11 -80 -28t-87 -29z" />
    <glyph glyph-name="uni020E" unicode="&#x20e;" horiz-adv-x="542" 
d="M162 545q-6 -35 -11.5 -69t-8.5 -75t-3 -98q0 -72 8 -120.5t26 -77.5t49 -41.5t76 -12.5q8 0 28 9t38 19.5t20 14.5q5 22 9.5 50.5t7 66.5t2.5 89q0 79 -12.5 135t-43 85.5t-85.5 29.5h-8t-10 -1l-13 60q4 2 8.5 2.5t6.5 0.5q81 0 138.5 -30.5t87.5 -95t30 -168.5
q0 -69 -8 -122.5t-17 -87.5q-13 -17 -36.5 -37.5t-50.5 -38.5t-50 -29.5t-34 -11.5q-66 0 -116 17t-83 52.5t-50 91t-17 131.5q0 69 8.5 123.5t21.5 88.5q11 17 29 35t37 34zM231 609h25v-508q0 -6 -5 -21.5t-16 -35.5h-31v479q0 11 8.5 35t18.5 51zM273 787
q33 0 62.5 -16.5t51.5 -40t32 -43.5l-28 -25q-25 26 -53.5 43t-64.5 17t-64.5 -17t-53.5 -43l-28 25q10 20 32 43.5t52 40t62 16.5z" />
    <glyph glyph-name="Omacron" unicode="&#x14c;" horiz-adv-x="542" 
d="M162 545q-6 -35 -11.5 -69t-8.5 -75t-3 -98q0 -72 8 -120.5t26 -77.5t49 -41.5t76 -12.5q8 0 28 9t38 19.5t20 14.5q5 22 9.5 50.5t7 66.5t2.5 89q0 79 -12.5 135t-43 85.5t-85.5 29.5h-8t-10 -1l-13 60q4 2 8.5 2.5t6.5 0.5q81 0 138.5 -30.5t87.5 -95t30 -168.5
q0 -69 -8 -122.5t-17 -87.5q-13 -17 -36.5 -37.5t-50.5 -38.5t-50 -29.5t-34 -11.5q-66 0 -116 17t-83 52.5t-50 91t-17 131.5q0 69 8.5 123.5t21.5 88.5q11 17 29 35t37 34zM231 609h25v-508q0 -6 -5 -21.5t-16 -35.5h-31v479q0 11 8.5 35t18.5 51zM134 664v62h285v-62
h-285z" />
    <glyph glyph-name="uni01EA" unicode="&#x1ea;" horiz-adv-x="542" 
d="M162 545q-6 -35 -11.5 -69t-8.5 -75t-3 -98q0 -72 8 -120.5t26 -77.5t49 -41.5t76 -12.5q8 0 28 9t38 19.5t20 14.5q5 22 9.5 50.5t7 66.5t2.5 89q0 79 -12.5 135t-43 85.5t-85.5 29.5h-8t-10 -1l-13 60q4 2 8.5 2.5t6.5 0.5q81 0 138.5 -30.5t87.5 -95t30 -168.5
q0 -69 -8 -122.5t-17 -87.5q-13 -17 -36.5 -37.5t-50.5 -38.5t-50 -29.5t-34 -11.5q-66 0 -116 17t-83 52.5t-50 91t-17 131.5q0 69 8.5 123.5t21.5 88.5q11 17 29 35t37 34zM231 609h25v-508q0 -6 -5 -21.5t-16 -35.5h-31v479q0 11 8.5 35t18.5 51zM238 -229q-19 0 -37 15
t-30 38t-12 46q0 8 1 19t5 27q19 18 47 38.5t56 39t47 30.5l22 -24q-22 -21 -46.5 -44.5t-41.5 -42t-17 -24.5q0 -34 7.5 -50t20.5 -16h69v-33q-3 -1 -23 -5.5t-40.5 -9t-27.5 -4.5z" />
    <glyph glyph-name="Oslash" unicode="&#xd8;" horiz-adv-x="542" 
d="M162 544q-6 -35 -11.5 -69t-8.5 -75t-3 -97q0 -72 8 -120.5t26 -77.5t49 -41.5t76 -12.5q8 0 28 9t38 19.5t20 14.5q5 22 9.5 50.5t7 66.5t2.5 89q0 79 -12.5 134.5t-43 85t-85.5 29.5h-8t-10 -1l-13 60q4 2 8.5 2.5t6.5 0.5q81 0 138.5 -30.5t87.5 -95t30 -167.5
q0 -69 -8 -122.5t-17 -87.5q-13 -17 -36.5 -37.5t-50.5 -38.5t-50 -29.5t-34 -11.5q-66 0 -116 17t-83 52.5t-50 91t-17 131.5q0 69 8.5 123t21.5 88q11 17 29 35t37 34zM231 608h25v-507q0 -6 -5 -21.5t-16 -35.5h-31v478q0 11 8.5 35t18.5 51zM228 27l-35 -135l-47 -1
l-11 13l36 138zM310 577l31 120h47l10 -17l-31 -121z" />
    <glyph glyph-name="Oslashacute" unicode="&#x1fe;" horiz-adv-x="542" 
d="M162 544q-6 -35 -11.5 -69t-8.5 -75t-3 -97q0 -72 8 -120.5t26 -77.5t49 -41.5t76 -12.5q8 0 28 9t38 19.5t20 14.5q5 22 9.5 50.5t7 66.5t2.5 89q0 79 -12.5 134.5t-43 85t-85.5 29.5h-8t-10 -1l-13 60q4 2 8.5 2.5t6.5 0.5q81 0 138.5 -30.5t87.5 -95t30 -167.5
q0 -69 -8 -122.5t-17 -87.5q-13 -17 -36.5 -37.5t-50.5 -38.5t-50 -29.5t-34 -11.5q-66 0 -116 17t-83 52.5t-50 91t-17 131.5q0 69 8.5 123t21.5 88q11 17 29 35t37 34zM231 608h25v-507q0 -6 -5 -21.5t-16 -35.5h-31v478q0 11 8.5 35t18.5 51zM228 27l-35 -135l-47 -1
l-11 13l36 138zM310 577l31 120h47l10 -17l-31 -121zM214 705l-15 36l163 94l40 -60l-4 -26q-25 -6 -57 -14t-64.5 -15.5t-62.5 -14.5z" />
    <glyph glyph-name="Otilde" unicode="&#xd5;" horiz-adv-x="542" 
d="M162 545q-6 -35 -11.5 -69t-8.5 -75t-3 -98q0 -72 8 -120.5t26 -77.5t49 -41.5t76 -12.5q8 0 28 9t38 19.5t20 14.5q5 22 9.5 50.5t7 66.5t2.5 89q0 79 -12.5 135t-43 85.5t-85.5 29.5h-8t-10 -1l-13 60q4 2 8.5 2.5t6.5 0.5q81 0 138.5 -30.5t87.5 -95t30 -168.5
q0 -69 -8 -122.5t-17 -87.5q-13 -17 -36.5 -37.5t-50.5 -38.5t-50 -29.5t-34 -11.5q-66 0 -116 17t-83 52.5t-50 91t-17 131.5q0 69 8.5 123.5t21.5 88.5q11 17 29 35t37 34zM231 609h25v-508q0 -6 -5 -21.5t-16 -35.5h-31v479q0 11 8.5 35t18.5 51zM337 657
q-26 0 -51.5 9.5t-45.5 18.5t-30 9q-5 0 -16.5 -7t-23 -15.5t-15.5 -11.5l-32 27q6 8 17 21t24.5 26t26 22t21.5 9q20 0 47.5 -10t51.5 -20.5t34 -10.5q8 0 24.5 13.5t24.5 23.5l34 -29q-6 -8 -17 -20.5t-24.5 -25t-27 -21t-22.5 -8.5z" />
    <glyph glyph-name="uni022C" unicode="&#x22c;" horiz-adv-x="542" 
d="M162 545q-6 -35 -11.5 -69t-8.5 -75t-3 -98q0 -72 8 -120.5t26 -77.5t49 -41.5t76 -12.5q8 0 28 9t38 19.5t20 14.5q5 22 9.5 50.5t7 66.5t2.5 89q0 79 -12.5 135t-43 85.5t-85.5 29.5h-8t-10 -1l-13 60q4 2 8.5 2.5t6.5 0.5q81 0 138.5 -30.5t87.5 -95t30 -168.5
q0 -69 -8 -122.5t-17 -87.5q-13 -17 -36.5 -37.5t-50.5 -38.5t-50 -29.5t-34 -11.5q-66 0 -116 17t-83 52.5t-50 91t-17 131.5q0 69 8.5 123.5t21.5 88.5q11 17 29 35t37 34zM231 609h25v-508q0 -6 -5 -21.5t-16 -35.5h-31v479q0 11 8.5 35t18.5 51zM337 657
q-26 0 -51.5 9.5t-45.5 18.5t-30 9q-5 0 -16.5 -7t-23 -15.5t-15.5 -11.5l-32 27q6 8 17 21t24.5 26t26 22t21.5 9q20 0 47.5 -10t51.5 -20.5t34 -10.5q8 0 24.5 13.5t24.5 23.5l34 -29q-6 -8 -17 -20.5t-24.5 -25t-27 -21t-22.5 -8.5zM134 809v66h285v-66h-285z" />
    <glyph glyph-name="OE" unicode="&#x152;" horiz-adv-x="821" 
d="M438 0q-32 0 -54 -2t-39.5 -4.5t-38.5 -2.5q-66 0 -116 17t-83 52.5t-50 91t-17 131.5q0 69 8.5 123t21.5 88q11 17 29 35t37 34l26 -19q-6 -35 -11.5 -69t-8.5 -75t-3 -97q0 -72 8 -120.5t26 -77.5t49 -41.5t76 -12.5q28 0 49.5 3t46.5 10zM231 608h25v-507
q0 -6 -5 -21.5t-16 -35.5h-31v478q0 11 8.5 35t18.5 51zM559 603h25v-502q0 -6 -5 -21.5t-16 -35.5h-31v473q0 11 8.5 35t18.5 51zM537 334l148 8l-6 -67l-142 8v51zM562 603h203l-13 -175h-54l-11 110l-128 12zM396 541q-18 4 -55 6t-79 2h-8t-10 -1l-13 60q4 2 8.5 2.5
t6.5 0.5l199 1zM445 612q3 0 11 -7t14.5 -15.5t6.5 -11.5v-513l219 -20l16 134h54l4 -179h-332q-4 0 -17.5 5t-25 11t-11.5 8v532z" />
    <glyph glyph-name="P" unicode="P" horiz-adv-x="520" 
d="M92 543l-62 15v39q12 2 31 4.5t39 5t35 4t18 1.5t11 -7t14.5 -15.5t6.5 -11.5v-519l86 -15l-19 -37q-10 -1 -30.5 -4t-41.5 -5.5t-36.5 -4.5t-17.5 -2q-3 0 -11 7t-15.5 15t-7.5 11v519zM279 612h77q50 0 86 -19t55.5 -66t19.5 -131q0 -25 -2.5 -48.5t-10.5 -37.5
q-5 -8 -17.5 -20.5t-29.5 -25.5t-35 -24.5t-33.5 -18.5t-25.5 -7q-21 0 -42 1l-42 2l1 62l99 -12q8 -1 15 6.5t12.5 24.5t9 44t3.5 66q0 80 -14 117.5t-43 35.5l-83 -6v57zM267 612h25v-511q0 -6 -5 -21.5t-16 -35.5h-31v482q0 11 8.5 35t18.5 51z" />
    <glyph glyph-name="Thorn" unicode="&#xde;" horiz-adv-x="520" 
d="M279 493h77q50 0 86 -15.5t55.5 -52t19.5 -99.5q0 -25 -2.5 -48.5t-10.5 -37.5q-5 -8 -17.5 -20.5t-29.5 -25.5t-35 -24.5t-33.5 -18.5t-25.5 -7q-21 0 -42 1l-42 2l1 62l99 -12q7 -1 14 7.5t13 26.5t9.5 44.5t3.5 62.5q0 49 -14 77.5t-43 26.5l-83 -6v57zM92 543l-62 15
v39q12 2 31 4.5t39 5t35 4t18 1.5t11 -7t14.5 -15.5t6.5 -11.5v-519l86 -15l-19 -37q-10 -1 -30.5 -4t-41.5 -5.5t-36.5 -4.5t-17.5 -2q-3 0 -11 7t-15.5 15t-7.5 11v519zM267 603h25v-502q0 -6 -5 -21.5t-16 -35.5h-31v473q0 11 8.5 35t18.5 51z" />
    <glyph glyph-name="Q" unicode="Q" horiz-adv-x="542" 
d="M437 -118l-192 114l60 14l202 -72l-24 -56h-46zM162 545q-6 -35 -11.5 -69t-8.5 -75t-3 -98q0 -72 8 -120.5t26 -77.5t49 -41.5t76 -12.5q8 0 28 9t38 19.5t20 14.5q5 22 9.5 50.5t7 66.5t2.5 89q0 79 -12.5 135t-43 85.5t-85.5 29.5h-8t-10 -1l-13 60q4 2 8.5 2.5
t6.5 0.5q81 0 138.5 -30.5t87.5 -95t30 -168.5q0 -69 -8 -122.5t-17 -87.5q-13 -17 -36.5 -37.5t-50.5 -38.5t-50 -29.5t-34 -11.5q-66 0 -116 17t-83 52.5t-50 91t-17 131.5q0 69 8.5 123.5t21.5 88.5q11 17 29 35t37 34zM231 609h25v-508q0 -6 -5 -21.5t-16 -35.5h-31v479
q0 11 8.5 35t18.5 51z" />
    <glyph glyph-name="R" unicode="R" horiz-adv-x="587" 
d="M277 335l99 -18q8 -1 15 5.5t12.5 23t9 43.5t3.5 66q0 62 -14 86t-43 20l-81 -10v61h75q53 0 89 -14.5t54 -51t18 -103.5q0 -25 -2.5 -48.5t-10.5 -37.5q-5 -8 -17.5 -20.5t-29.5 -25.5t-35 -24.5t-33.5 -18.5t-25.5 -7q-21 0 -42 1l-42 2zM92 543l-62 15v39q12 2 31 4.5
t39 5t35 4t18 1.5t11 -7t14.5 -15.5t6.5 -11.5v-519l86 -15l-19 -37q-10 -1 -30.5 -4t-41.5 -5.5t-36.5 -4.5t-17.5 -2q-3 0 -11 7t-15.5 15t-7.5 11v519zM441 16q-16 35 -37.5 84t-42 101.5t-37.5 95.5h105v-15q15 -39 33.5 -79.5t37.5 -77t35 -67.5l53 -16l-7 -47
q-18 -1 -41 0t-44.5 3.5t-36.5 7t-18 10.5zM267 612h25v-511q0 -6 -5 -21.5t-16 -35.5h-31v482q0 11 8.5 35t18.5 51z" />
    <glyph glyph-name="Racute" unicode="&#x154;" horiz-adv-x="587" 
d="M277 335l99 -18q8 -1 15 5.5t12.5 23t9 43.5t3.5 66q0 62 -14 86t-43 20l-81 -10v61h75q53 0 89 -14.5t54 -51t18 -103.5q0 -25 -2.5 -48.5t-10.5 -37.5q-5 -8 -17.5 -20.5t-29.5 -25.5t-35 -24.5t-33.5 -18.5t-25.5 -7q-21 0 -42 1l-42 2zM92 543l-62 15v39q12 2 31 4.5
t39 5t35 4t18 1.5t11 -7t14.5 -15.5t6.5 -11.5v-519l86 -15l-19 -37q-10 -1 -30.5 -4t-41.5 -5.5t-36.5 -4.5t-17.5 -2q-3 0 -11 7t-15.5 15t-7.5 11v519zM441 16q-16 35 -37.5 84t-42 101.5t-37.5 95.5h105v-15q15 -39 33.5 -79.5t37.5 -77t35 -67.5l53 -16l-7 -47
q-18 -1 -41 0t-44.5 3.5t-36.5 7t-18 10.5zM267 612h25v-511q0 -6 -5 -21.5t-16 -35.5h-31v482q0 11 8.5 35t18.5 51zM260 660l-15 36l163 94l40 -60l-4 -26q-25 -6 -57 -14t-64.5 -15.5t-62.5 -14.5z" />
    <glyph glyph-name="Rcaron" unicode="&#x158;" horiz-adv-x="587" 
d="M277 335l99 -18q8 -1 15 5.5t12.5 23t9 43.5t3.5 66q0 62 -14 86t-43 20l-81 -10v61h75q53 0 89 -14.5t54 -51t18 -103.5q0 -25 -2.5 -48.5t-10.5 -37.5q-5 -8 -17.5 -20.5t-29.5 -25.5t-35 -24.5t-33.5 -18.5t-25.5 -7q-21 0 -42 1l-42 2zM92 543l-62 15v39q12 2 31 4.5
t39 5t35 4t18 1.5t11 -7t14.5 -15.5t6.5 -11.5v-519l86 -15l-19 -37q-10 -1 -30.5 -4t-41.5 -5.5t-36.5 -4.5t-17.5 -2q-3 0 -11 7t-15.5 15t-7.5 11v519zM441 16q-16 35 -37.5 84t-42 101.5t-37.5 95.5h105v-15q15 -39 33.5 -79.5t37.5 -77t35 -67.5l53 -16l-7 -47
q-18 -1 -41 0t-44.5 3.5t-36.5 7t-18 10.5zM267 612h25v-511q0 -6 -5 -21.5t-16 -35.5h-31v482q0 11 8.5 35t18.5 51zM278 644l-98 136l28 25l99 -84h8l99 84l28 -25l-98 -136h-66z" />
    <glyph glyph-name="uni0156" unicode="&#x156;" horiz-adv-x="587" 
d="M277 335l99 -18q8 -1 15 5.5t12.5 23t9 43.5t3.5 66q0 62 -14 86t-43 20l-81 -10v61h75q53 0 89 -14.5t54 -51t18 -103.5q0 -25 -2.5 -48.5t-10.5 -37.5q-5 -8 -17.5 -20.5t-29.5 -25.5t-35 -24.5t-33.5 -18.5t-25.5 -7q-21 0 -42 1l-42 2zM92 543l-62 15v39q12 2 31 4.5
t39 5t35 4t18 1.5t11 -7t14.5 -15.5t6.5 -11.5v-519l86 -15l-19 -37q-10 -1 -30.5 -4t-41.5 -5.5t-36.5 -4.5t-17.5 -2q-3 0 -11 7t-15.5 15t-7.5 11v519zM441 16q-16 35 -37.5 84t-42 101.5t-37.5 95.5h105v-15q15 -39 33.5 -79.5t37.5 -77t35 -67.5l53 -16l-7 -47
q-18 -1 -41 0t-44.5 3.5t-36.5 7t-18 10.5zM267 612h25v-511q0 -6 -5 -21.5t-16 -35.5h-31v482q0 11 8.5 35t18.5 51zM336 -271l-39 17q11 27 17 48t8 37q-14 7 -21 15t-9.5 15t-1.5 11l3 17q0 2 7 7.5t16.5 12t17 11.5t9.5 5q3 0 10.5 -6t15.5 -14.5t14 -16.5t6 -12
q0 -14 -5 -34t-13 -41t-17.5 -40t-17.5 -32z" />
    <glyph glyph-name="uni0210" unicode="&#x210;" horiz-adv-x="587" 
d="M277 335l99 -18q8 -1 15 5.5t12.5 23t9 43.5t3.5 66q0 62 -14 86t-43 20l-81 -10v61h75q53 0 89 -14.5t54 -51t18 -103.5q0 -25 -2.5 -48.5t-10.5 -37.5q-5 -8 -17.5 -20.5t-29.5 -25.5t-35 -24.5t-33.5 -18.5t-25.5 -7q-21 0 -42 1l-42 2zM92 543l-62 15v39q12 2 31 4.5
t39 5t35 4t18 1.5t11 -7t14.5 -15.5t6.5 -11.5v-519l86 -15l-19 -37q-10 -1 -30.5 -4t-41.5 -5.5t-36.5 -4.5t-17.5 -2q-3 0 -11 7t-15.5 15t-7.5 11v519zM441 16q-16 35 -37.5 84t-42 101.5t-37.5 95.5h105v-15q15 -39 33.5 -79.5t37.5 -77t35 -67.5l53 -16l-7 -47
q-18 -1 -41 0t-44.5 3.5t-36.5 7t-18 10.5zM267 612h25v-511q0 -6 -5 -21.5t-16 -35.5h-31v482q0 11 8.5 35t18.5 51zM443 663q-43 14 -85.5 32t-79.5 31l-5 24l43 57l145 -110zM249 666q-43 12 -86 29t-81 28l-5 24l40 58l149 -105z" />
    <glyph glyph-name="uni0212" unicode="&#x212;" horiz-adv-x="587" 
d="M277 335l99 -18q8 -1 15 5.5t12.5 23t9 43.5t3.5 66q0 62 -14 86t-43 20l-81 -10v61h75q53 0 89 -14.5t54 -51t18 -103.5q0 -25 -2.5 -48.5t-10.5 -37.5q-5 -8 -17.5 -20.5t-29.5 -25.5t-35 -24.5t-33.5 -18.5t-25.5 -7q-21 0 -42 1l-42 2zM92 543l-62 15v39q12 2 31 4.5
t39 5t35 4t18 1.5t11 -7t14.5 -15.5t6.5 -11.5v-519l86 -15l-19 -37q-10 -1 -30.5 -4t-41.5 -5.5t-36.5 -4.5t-17.5 -2q-3 0 -11 7t-15.5 15t-7.5 11v519zM441 16q-16 35 -37.5 84t-42 101.5t-37.5 95.5h105v-15q15 -39 33.5 -79.5t37.5 -77t35 -67.5l53 -16l-7 -47
q-18 -1 -41 0t-44.5 3.5t-36.5 7t-18 10.5zM267 612h25v-511q0 -6 -5 -21.5t-16 -35.5h-31v482q0 11 8.5 35t18.5 51zM309 787q33 0 62.5 -16.5t51.5 -40t32 -43.5l-28 -25q-25 26 -53.5 43t-64.5 17t-64.5 -17t-53.5 -43l-28 25q10 20 32 43.5t52 40t62 16.5z" />
    <glyph glyph-name="S" unicode="S" horiz-adv-x="506" 
d="M49 1l7 183h56l16 -106q20 -4 44.5 -9t49 -9.5t43.5 -7t27 -2.5q5 0 19.5 8t31.5 19.5t30.5 23.5t14.5 20q2 11 3 25.5t1 29t-1.5 25.5t-4.5 14q-8 11 -32.5 28t-56 37.5t-63 41.5t-55 40t-31.5 33q-2 5 -4.5 19.5t-3.5 34t-2 37.5q-18 -14 -27.5 -24.5t-13 -20.5
t-3.5 -24q0 -16 2.5 -27.5t6.5 -21.5q10 -19 31 -34l56 -40q23 -16 47 -32.5t45.5 -32t36.5 -28t19 -21.5q5 -10 4.5 -22.5t-2.5 -20.5q-4 -9 -20.5 -20.5t-30.5 -18.5q1 12 1.5 24t0 22t-4.5 15q-8 11 -32.5 29t-56.5 39t-63.5 43t-54 42.5t-26.5 35.5q-3 11 -5 25.5
t-2 30.5t1.5 30.5t4.5 24.5q9 17 29 37.5t45.5 41t52 37t50 26.5t38.5 10q6 0 21.5 -0.5t37 -2t45 -3.5t45.5 -5t39 -6l-8 -172h-56l-15 102q-15 7 -35.5 12.5t-40.5 8.5t-34 3q-8 0 -14 -1.5t-9.5 -3.5t-5.5 -6q-4 -7 -5.5 -22t-1 -31.5t2.5 -30t6 -17.5q12 -13 33.5 -28
t48 -31t54 -33.5t51 -36t39.5 -36.5q3 -12 4.5 -34t1.5 -46.5t-1.5 -45.5t-4.5 -31q-9 -19 -31 -40.5t-49.5 -40.5t-52.5 -30.5t-40 -11.5q-19 0 -50.5 1t-67.5 2.5t-69 3t-56 3.5z" />
    <glyph glyph-name="Sacute" unicode="&#x15a;" horiz-adv-x="506" 
d="M49 1l7 183h56l16 -106q20 -4 44.5 -9t49 -9.5t43.5 -7t27 -2.5q5 0 19.5 8t31.5 19.5t30.5 23.5t14.5 20q2 11 3 25.5t1 29t-1.5 25.5t-4.5 14q-8 11 -32.5 28t-56 37.5t-63 41.5t-55 40t-31.5 33q-2 5 -4.5 19.5t-3.5 34t-2 37.5q-18 -14 -27.5 -24.5t-13 -20.5
t-3.5 -24q0 -16 2.5 -27.5t6.5 -21.5q10 -19 31 -34l56 -40q23 -16 47 -32.5t45.5 -32t36.5 -28t19 -21.5q5 -10 4.5 -22.5t-2.5 -20.5q-4 -9 -20.5 -20.5t-30.5 -18.5q1 12 1.5 24t0 22t-4.5 15q-8 11 -32.5 29t-56.5 39t-63.5 43t-54 42.5t-26.5 35.5q-3 11 -5 25.5
t-2 30.5t1.5 30.5t4.5 24.5q9 17 29 37.5t45.5 41t52 37t50 26.5t38.5 10q6 0 21.5 -0.5t37 -2t45 -3.5t45.5 -5t39 -6l-8 -172h-56l-15 102q-15 7 -35.5 12.5t-40.5 8.5t-34 3q-8 0 -14 -1.5t-9.5 -3.5t-5.5 -6q-4 -7 -5.5 -22t-1 -31.5t2.5 -30t6 -17.5q12 -13 33.5 -28
t48 -31t54 -33.5t51 -36t39.5 -36.5q3 -12 4.5 -34t1.5 -46.5t-1.5 -45.5t-4.5 -31q-9 -19 -31 -40.5t-49.5 -40.5t-52.5 -30.5t-40 -11.5q-19 0 -50.5 1t-67.5 2.5t-69 3t-56 3.5zM227 660l-15 36l163 94l40 -60l-4 -26q-25 -6 -57 -14t-64.5 -15.5t-62.5 -14.5z" />
    <glyph glyph-name="Scaron" unicode="&#x160;" horiz-adv-x="506" 
d="M49 1l7 183h56l16 -106q20 -4 44.5 -9t49 -9.5t43.5 -7t27 -2.5q5 0 19.5 8t31.5 19.5t30.5 23.5t14.5 20q2 11 3 25.5t1 29t-1.5 25.5t-4.5 14q-8 11 -32.5 28t-56 37.5t-63 41.5t-55 40t-31.5 33q-2 5 -4.5 19.5t-3.5 34t-2 37.5q-18 -14 -27.5 -24.5t-13 -20.5
t-3.5 -24q0 -16 2.5 -27.5t6.5 -21.5q10 -19 31 -34l56 -40q23 -16 47 -32.5t45.5 -32t36.5 -28t19 -21.5q5 -10 4.5 -22.5t-2.5 -20.5q-4 -9 -20.5 -20.5t-30.5 -18.5q1 12 1.5 24t0 22t-4.5 15q-8 11 -32.5 29t-56.5 39t-63.5 43t-54 42.5t-26.5 35.5q-3 11 -5 25.5
t-2 30.5t1.5 30.5t4.5 24.5q9 17 29 37.5t45.5 41t52 37t50 26.5t38.5 10q6 0 21.5 -0.5t37 -2t45 -3.5t45.5 -5t39 -6l-8 -172h-56l-15 102q-15 7 -35.5 12.5t-40.5 8.5t-34 3q-8 0 -14 -1.5t-9.5 -3.5t-5.5 -6q-4 -7 -5.5 -22t-1 -31.5t2.5 -30t6 -17.5q12 -13 33.5 -28
t48 -31t54 -33.5t51 -36t39.5 -36.5q3 -12 4.5 -34t1.5 -46.5t-1.5 -45.5t-4.5 -31q-9 -19 -31 -40.5t-49.5 -40.5t-52.5 -30.5t-40 -11.5q-19 0 -50.5 1t-67.5 2.5t-69 3t-56 3.5zM245 644l-98 136l28 25l99 -84h8l99 84l28 -25l-98 -136h-66z" />
    <glyph glyph-name="Scedilla" unicode="&#x15e;" horiz-adv-x="506" 
d="M49 1l7 183h56l16 -106q20 -4 44.5 -9t49 -9.5t43.5 -7t27 -2.5q5 0 19.5 8t31.5 19.5t30.5 23.5t14.5 20q2 11 3 25.5t1 29t-1.5 25.5t-4.5 14q-8 11 -32.5 28t-56 37.5t-63 41.5t-55 40t-31.5 33q-2 5 -4.5 19.5t-3.5 34t-2 37.5q-18 -14 -27.5 -24.5t-13 -20.5
t-3.5 -24q0 -16 2.5 -27.5t6.5 -21.5q10 -19 31 -34l56 -40q23 -16 47 -32.5t45.5 -32t36.5 -28t19 -21.5q5 -10 4.5 -22.5t-2.5 -20.5q-4 -9 -20.5 -20.5t-30.5 -18.5q1 12 1.5 24t0 22t-4.5 15q-8 11 -32.5 29t-56.5 39t-63.5 43t-54 42.5t-26.5 35.5q-3 11 -5 25.5
t-2 30.5t1.5 30.5t4.5 24.5q9 17 29 37.5t45.5 41t52 37t50 26.5t38.5 10q6 0 21.5 -0.5t37 -2t45 -3.5t45.5 -5t39 -6l-8 -172h-56l-15 102q-15 7 -35.5 12.5t-40.5 8.5t-34 3q-8 0 -14 -1.5t-9.5 -3.5t-5.5 -6q-4 -7 -5.5 -22t-1 -31.5t2.5 -30t6 -17.5q12 -13 33.5 -28
t48 -31t54 -33.5t51 -36t39.5 -36.5q3 -12 4.5 -34t1.5 -46.5t-1.5 -45.5t-4.5 -31q-9 -19 -31 -40.5t-49.5 -40.5t-52.5 -30.5t-40 -11.5q-19 0 -50.5 1t-67.5 2.5t-69 3t-56 3.5zM221 -218l-21 33q34 18 54.5 31t20.5 30q0 15 -21 23.5t-42 10.5l-6 24l27 77l42 -3l-7 -54
q34 -4 61 -22.5t27 -42.5q0 -11 -2.5 -22.5t-7.5 -22.5q-7 -6 -20 -14t-37.5 -19.5t-67.5 -28.5z" />
    <glyph glyph-name="Scircumflex" unicode="&#x15c;" horiz-adv-x="506" 
d="M49 1l7 183h56l16 -106q20 -4 44.5 -9t49 -9.5t43.5 -7t27 -2.5q5 0 19.5 8t31.5 19.5t30.5 23.5t14.5 20q2 11 3 25.5t1 29t-1.5 25.5t-4.5 14q-8 11 -32.5 28t-56 37.5t-63 41.5t-55 40t-31.5 33q-2 5 -4.5 19.5t-3.5 34t-2 37.5q-18 -14 -27.5 -24.5t-13 -20.5
t-3.5 -24q0 -16 2.5 -27.5t6.5 -21.5q10 -19 31 -34l56 -40q23 -16 47 -32.5t45.5 -32t36.5 -28t19 -21.5q5 -10 4.5 -22.5t-2.5 -20.5q-4 -9 -20.5 -20.5t-30.5 -18.5q1 12 1.5 24t0 22t-4.5 15q-8 11 -32.5 29t-56.5 39t-63.5 43t-54 42.5t-26.5 35.5q-3 11 -5 25.5
t-2 30.5t1.5 30.5t4.5 24.5q9 17 29 37.5t45.5 41t52 37t50 26.5t38.5 10q6 0 21.5 -0.5t37 -2t45 -3.5t45.5 -5t39 -6l-8 -172h-56l-15 102q-15 7 -35.5 12.5t-40.5 8.5t-34 3q-8 0 -14 -1.5t-9.5 -3.5t-5.5 -6q-4 -7 -5.5 -22t-1 -31.5t2.5 -30t6 -17.5q12 -13 33.5 -28
t48 -31t54 -33.5t51 -36t39.5 -36.5q3 -12 4.5 -34t1.5 -46.5t-1.5 -45.5t-4.5 -31q-9 -19 -31 -40.5t-49.5 -40.5t-52.5 -30.5t-40 -11.5q-19 0 -50.5 1t-67.5 2.5t-69 3t-56 3.5zM175 658l-30 30l103 104h56l103 -104l-30 -30l-96 64h-11z" />
    <glyph glyph-name="uni0218" unicode="&#x218;" horiz-adv-x="506" 
d="M49 1l7 183h56l16 -106q20 -4 44.5 -9t49 -9.5t43.5 -7t27 -2.5q5 0 19.5 8t31.5 19.5t30.5 23.5t14.5 20q2 11 3 25.5t1 29t-1.5 25.5t-4.5 14q-8 11 -32.5 28t-56 37.5t-63 41.5t-55 40t-31.5 33q-2 5 -4.5 19.5t-3.5 34t-2 37.5q-18 -14 -27.5 -24.5t-13 -20.5
t-3.5 -24q0 -16 2.5 -27.5t6.5 -21.5q10 -19 31 -34l56 -40q23 -16 47 -32.5t45.5 -32t36.5 -28t19 -21.5q5 -10 4.5 -22.5t-2.5 -20.5q-4 -9 -20.5 -20.5t-30.5 -18.5q1 12 1.5 24t0 22t-4.5 15q-8 11 -32.5 29t-56.5 39t-63.5 43t-54 42.5t-26.5 35.5q-3 11 -5 25.5
t-2 30.5t1.5 30.5t4.5 24.5q9 17 29 37.5t45.5 41t52 37t50 26.5t38.5 10q6 0 21.5 -0.5t37 -2t45 -3.5t45.5 -5t39 -6l-8 -172h-56l-15 102q-15 7 -35.5 12.5t-40.5 8.5t-34 3q-8 0 -14 -1.5t-9.5 -3.5t-5.5 -6q-4 -7 -5.5 -22t-1 -31.5t2.5 -30t6 -17.5q12 -13 33.5 -28
t48 -31t54 -33.5t51 -36t39.5 -36.5q3 -12 4.5 -34t1.5 -46.5t-1.5 -45.5t-4.5 -31q-9 -19 -31 -40.5t-49.5 -40.5t-52.5 -30.5t-40 -11.5q-19 0 -50.5 1t-67.5 2.5t-69 3t-56 3.5zM246 -271l-39 17q11 27 17 48t8 37q-14 7 -21 15t-9.5 15t-1.5 11l3 17q0 2 7 7.5t16.5 12
t17 11.5t9.5 5q3 0 10.5 -6t15.5 -14.5t14 -16.5t6 -12q0 -14 -5 -34t-13 -41t-17.5 -40t-17.5 -32z" />
    <glyph glyph-name="uni1E62" unicode="&#x1e62;" horiz-adv-x="506" 
d="M49 1l7 183h56l16 -106q20 -4 44.5 -9t49 -9.5t43.5 -7t27 -2.5q5 0 19.5 8t31.5 19.5t30.5 23.5t14.5 20q2 11 3 25.5t1 29t-1.5 25.5t-4.5 14q-8 11 -32.5 28t-56 37.5t-63 41.5t-55 40t-31.5 33q-2 5 -4.5 19.5t-3.5 34t-2 37.5q-18 -14 -27.5 -24.5t-13 -20.5
t-3.5 -24q0 -16 2.5 -27.5t6.5 -21.5q10 -19 31 -34l56 -40q23 -16 47 -32.5t45.5 -32t36.5 -28t19 -21.5q5 -10 4.5 -22.5t-2.5 -20.5q-4 -9 -20.5 -20.5t-30.5 -18.5q1 12 1.5 24t0 22t-4.5 15q-8 11 -32.5 29t-56.5 39t-63.5 43t-54 42.5t-26.5 35.5q-3 11 -5 25.5
t-2 30.5t1.5 30.5t4.5 24.5q9 17 29 37.5t45.5 41t52 37t50 26.5t38.5 10q6 0 21.5 -0.5t37 -2t45 -3.5t45.5 -5t39 -6l-8 -172h-56l-15 102q-15 7 -35.5 12.5t-40.5 8.5t-34 3q-8 0 -14 -1.5t-9.5 -3.5t-5.5 -6q-4 -7 -5.5 -22t-1 -31.5t2.5 -30t6 -17.5q12 -13 33.5 -28
t48 -31t54 -33.5t51 -36t39.5 -36.5q3 -12 4.5 -34t1.5 -46.5t-1.5 -45.5t-4.5 -31q-9 -19 -31 -40.5t-49.5 -40.5t-52.5 -30.5t-40 -11.5q-19 0 -50.5 1t-67.5 2.5t-69 3t-56 3.5zM201 -121q0 2 7.5 8t17.5 13.5t18.5 12.5t10.5 5q3 0 11.5 -6.5t17.5 -15.5t15 -17.5
t5 -12.5l-4 -18q0 -3 -7.5 -9t-17.5 -13t-18 -12t-11 -5q-4 0 -12 6.5t-16.5 16t-14 17.5t-5.5 11z" />
    <glyph glyph-name="uni1E9E" unicode="&#x1e9e;" horiz-adv-x="644" 
d="M92 543l-62 15v39q12 2 31 4.5t39 5t35 4t18 1.5t11 -7t14.5 -15.5t6.5 -11.5v-519l86 -15l-19 -37q-10 -1 -30.5 -4t-41.5 -5.5t-36.5 -4.5t-17.5 -2q-3 0 -11 7t-15.5 15t-7.5 11v519zM278 603h287l21 -35l-88 -14l-220 -14v63zM369 336q20 2 39.5 3t38.5 1
q63 0 105.5 -17.5t64 -52.5t21.5 -86q0 -22 -3.5 -46t-11.5 -50q-2 -7 -14 -19t-30.5 -25t-39 -25.5t-40 -20t-33.5 -7.5q-10 0 -36 2t-55 4.5t-49 3.5l11 52q24 0 56.5 1t60.5 2.5t38 3.5q9 2 21 17.5t21 43.5t9 67q0 43 -9.5 72t-32.5 29h-134zM340 184h52l16 -183h-82z
M498 587l88 -19l-168 -221l7 -14l-58 -45l-36 53zM267 603h25v-502q0 -6 -5 -21.5t-16 -35.5h-31v473q0 11 8.5 35t18.5 51z" />
    <glyph glyph-name="uni018F" unicode="&#x18f;" horiz-adv-x="555" 
d="M393 58q6 35 11.5 69t8.5 75t3 98q0 97 -15.5 152t-48 77.5t-83.5 22.5q-5 0 -29 -6.5t-60 -16.5t-78 -23l-17 69q29 7 63 15.5t62.5 14.5t38.5 6q132 0 199 -69t67 -224q0 -68 -8 -122t-22 -88q-10 -16 -28 -34t-38 -35zM319 -9q-88 0 -147 30.5t-89 95t-30 166.5
l286 18v-45l-185 -19q3 -52 13.5 -88t29 -57.5t46.5 -31t68 -9.5q3 0 8 1.5t12 4.5l-1 -57q-1 -2 -5 -5.5t-6 -3.5zM100 408l-15 167h82l-15 -167h-52zM299 0v462q0 11 8.5 35t18.5 51h25v-488q0 -6 -5 -23t-16 -37h-31z" />
    <glyph glyph-name="T" unicode="T" horiz-adv-x="445" 
d="M224 502q-19 0 -31.5 -22t-19.5 -55t-9.5 -68t-2.5 -61q0 -60 11.5 -113t39.5 -85.5t77 -32.5l130 1v-52q-13 -4 -40 -8t-56.5 -7.5t-52 -5.5t-28.5 -2q-60 0 -100 40t-60 106t-20 142q0 52 7.5 86.5t22.5 67.5q7 11 22.5 28t38.5 32t51 20zM454 591l-20 -78
q-22 -8 -46 -14.5t-46 -10t-40 -3.5q-25 0 -40 5t-29 10t-37 5q-6 0 -12.5 -0.5t-12.5 -2.5l-2 6l-156 17l19 95q65 -8 118.5 -16.5t92.5 -13.5t58 -5q14 0 33.5 1.5t46.5 6t61 11.5zM226 63v484h52v-427q0 -6 -5 -21.5t-16 -35.5h-31z" />
    <glyph glyph-name="Tbar" unicode="&#x166;" horiz-adv-x="445" 
d="M224 502q-19 0 -31.5 -22t-19.5 -55t-9.5 -68t-2.5 -61q0 -60 11.5 -113t39.5 -85.5t77 -32.5l130 1v-52q-13 -4 -40 -8t-56.5 -7.5t-52 -5.5t-28.5 -2q-60 0 -100 40t-60 106t-20 142q0 52 7.5 86.5t22.5 67.5q7 11 22.5 28t38.5 32t51 20zM454 591l-20 -78
q-22 -8 -46 -14.5t-46 -10t-40 -3.5q-25 0 -40 5t-29 10t-37 5q-6 0 -12.5 -0.5t-12.5 -2.5l-2 6l-156 17l19 95q65 -8 118.5 -16.5t92.5 -13.5t58 -5q14 0 33.5 1.5t46.5 6t61 11.5zM226 63v484h52v-427q0 -6 -5 -21.5t-16 -35.5h-31zM253 324l127 6l-1 -57l-126 6v45z
M112 279l-126 -6v57l126 -6v-45z" />
    <glyph glyph-name="Tcaron" unicode="&#x164;" horiz-adv-x="445" 
d="M224 502q-19 0 -31.5 -22t-19.5 -55t-9.5 -68t-2.5 -61q0 -60 11.5 -113t39.5 -85.5t77 -32.5l130 1v-52q-13 -4 -40 -8t-56.5 -7.5t-52 -5.5t-28.5 -2q-60 0 -100 40t-60 106t-20 142q0 52 7.5 86.5t22.5 67.5q7 11 22.5 28t38.5 32t51 20zM454 591l-20 -78
q-22 -8 -46 -14.5t-46 -10t-40 -3.5q-25 0 -40 5t-29 10t-37 5q-6 0 -12.5 -0.5t-12.5 -2.5l-2 6l-156 17l19 95q65 -8 118.5 -16.5t92.5 -13.5t58 -5q14 0 33.5 1.5t46.5 6t61 11.5zM226 63v484h52v-427q0 -6 -5 -21.5t-16 -35.5h-31zM230 644l-98 136l28 25l99 -84h8
l99 84l28 -25l-98 -136h-66z" />
    <glyph glyph-name="uni0162" unicode="&#x162;" horiz-adv-x="445" 
d="M224 502q-19 0 -31.5 -22t-19.5 -55t-9.5 -68t-2.5 -61q0 -60 11.5 -113t39.5 -85.5t77 -32.5l130 1v-52q-13 -4 -40 -8t-56.5 -7.5t-52 -5.5t-28.5 -2q-60 0 -100 40t-60 106t-20 142q0 52 7.5 86.5t22.5 67.5q7 11 22.5 28t38.5 32t51 20zM454 591l-20 -78
q-22 -8 -46 -14.5t-46 -10t-40 -3.5q-25 0 -40 5t-29 10t-37 5q-6 0 -12.5 -0.5t-12.5 -2.5l-2 6l-156 17l19 95q65 -8 118.5 -16.5t92.5 -13.5t58 -5q14 0 33.5 1.5t46.5 6t61 11.5zM226 63v484h52v-427q0 -6 -5 -21.5t-16 -35.5h-31zM234 -218l-21 33q34 18 54.5 31
t20.5 30q0 15 -21 23.5t-42 10.5l-6 24l27 77l42 -3l-7 -54q34 -4 61 -22.5t27 -42.5q0 -11 -2.5 -22.5t-7.5 -22.5q-7 -6 -20 -14t-37.5 -19.5t-67.5 -28.5z" />
    <glyph glyph-name="uni021A" unicode="&#x21a;" horiz-adv-x="445" 
d="M224 502q-19 0 -31.5 -22t-19.5 -55t-9.5 -68t-2.5 -61q0 -60 11.5 -113t39.5 -85.5t77 -32.5l130 1v-52q-13 -4 -40 -8t-56.5 -7.5t-52 -5.5t-28.5 -2q-60 0 -100 40t-60 106t-20 142q0 52 7.5 86.5t22.5 67.5q7 11 22.5 28t38.5 32t51 20zM454 591l-20 -78
q-22 -8 -46 -14.5t-46 -10t-40 -3.5q-25 0 -40 5t-29 10t-37 5q-6 0 -12.5 -0.5t-12.5 -2.5l-2 6l-156 17l19 95q65 -8 118.5 -16.5t92.5 -13.5t58 -5q14 0 33.5 1.5t46.5 6t61 11.5zM226 63v484h52v-427q0 -6 -5 -21.5t-16 -35.5h-31zM259 -271l-39 17q11 27 17 48t8 37
q-14 7 -21 15t-9.5 15t-1.5 11l3 17q0 2 7 7.5t16.5 12t17 11.5t9.5 5q3 0 10.5 -6t15.5 -14.5t14 -16.5t6 -12q0 -14 -5 -34t-13 -41t-17.5 -40t-17.5 -32z" />
    <glyph glyph-name="uni1E6C" unicode="&#x1e6c;" horiz-adv-x="445" 
d="M224 502q-19 0 -31.5 -22t-19.5 -55t-9.5 -68t-2.5 -61q0 -60 11.5 -113t39.5 -85.5t77 -32.5l130 1v-52q-13 -4 -40 -8t-56.5 -7.5t-52 -5.5t-28.5 -2q-60 0 -100 40t-60 106t-20 142q0 52 7.5 86.5t22.5 67.5q7 11 22.5 28t38.5 32t51 20zM454 591l-20 -78
q-22 -8 -46 -14.5t-46 -10t-40 -3.5q-25 0 -40 5t-29 10t-37 5q-6 0 -12.5 -0.5t-12.5 -2.5l-2 6l-156 17l19 95q65 -8 118.5 -16.5t92.5 -13.5t58 -5q14 0 33.5 1.5t46.5 6t61 11.5zM226 63v484h52v-427q0 -6 -5 -21.5t-16 -35.5h-31zM214 -121q0 2 7.5 8t17.5 13.5
t18.5 12.5t10.5 5q3 0 11.5 -6.5t17.5 -15.5t15 -17.5t5 -12.5l-4 -18q0 -3 -7.5 -9t-17.5 -13t-18 -12t-11 -5q-4 0 -12 6.5t-16.5 16t-14 17.5t-5.5 11z" />
    <glyph glyph-name="U" unicode="U" horiz-adv-x="585" 
d="M91 535l-62 31l13 46l34 -2t32 -2.5t26.5 -3.5t17.5 -4q3 -1 10.5 -8t14.5 -15t7 -11v-473q32 -10 63 -17t63 -9l93 9v-27q-16 -11 -38 -25t-39.5 -23.5t-21.5 -9.5q-49 2 -90.5 10t-76.5 20q-4 2 -15.5 17t-21 31.5t-9.5 22.5v443zM393 543l-62 15v39q16 3 43.5 6.5
t51.5 6t28 2.5q3 0 11 -7t14.5 -15.5t6.5 -11.5v-506l62 -31l-13 -46q-22 2 -44.5 3.5t-40 4t-25.5 4.5q-2 1 -10 9t-15 17t-7 13v497zM266 603h25v-480q0 -6 -5 -21.5t-16 -35.5h-31v451q0 11 8.5 35t18.5 51z" />
    <glyph glyph-name="Uacute" unicode="&#xda;" horiz-adv-x="585" 
d="M91 535l-62 31l13 46l34 -2t32 -2.5t26.5 -3.5t17.5 -4q3 -1 10.5 -8t14.5 -15t7 -11v-473q32 -10 63 -17t63 -9l93 9v-27q-16 -11 -38 -25t-39.5 -23.5t-21.5 -9.5q-49 2 -90.5 10t-76.5 20q-4 2 -15.5 17t-21 31.5t-9.5 22.5v443zM393 543l-62 15v39q16 3 43.5 6.5
t51.5 6t28 2.5q3 0 11 -7t14.5 -15.5t6.5 -11.5v-506l62 -31l-13 -46q-22 2 -44.5 3.5t-40 4t-25.5 4.5q-2 1 -10 9t-15 17t-7 13v497zM266 603h25v-480q0 -6 -5 -21.5t-16 -35.5h-31v451q0 11 8.5 35t18.5 51zM242 660l-15 36l163 94l40 -60l-4 -26q-25 -6 -57 -14
t-64.5 -15.5t-62.5 -14.5z" />
    <glyph glyph-name="Ubreve" unicode="&#x16c;" horiz-adv-x="585" 
d="M91 535l-62 31l13 46l34 -2t32 -2.5t26.5 -3.5t17.5 -4q3 -1 10.5 -8t14.5 -15t7 -11v-473q32 -10 63 -17t63 -9l93 9v-27q-16 -11 -38 -25t-39.5 -23.5t-21.5 -9.5q-49 2 -90.5 10t-76.5 20q-4 2 -15.5 17t-21 31.5t-9.5 22.5v443zM393 543l-62 15v39q16 3 43.5 6.5
t51.5 6t28 2.5q3 0 11 -7t14.5 -15.5t6.5 -11.5v-506l62 -31l-13 -46q-22 2 -44.5 3.5t-40 4t-25.5 4.5q-2 1 -10 9t-15 17t-7 13v497zM266 603h25v-480q0 -6 -5 -21.5t-16 -35.5h-31v451q0 11 8.5 35t18.5 51zM291 662q-32 0 -62 16.5t-52 40t-32 43.5l28 25
q25 -25 53.5 -42.5t64.5 -17.5t64.5 17.5t53.5 42.5l28 -25q-10 -20 -32 -43.5t-51.5 -40t-62.5 -16.5z" />
    <glyph glyph-name="uni01D3" unicode="&#x1d3;" horiz-adv-x="585" 
d="M91 535l-62 31l13 46l34 -2t32 -2.5t26.5 -3.5t17.5 -4q3 -1 10.5 -8t14.5 -15t7 -11v-473q32 -10 63 -17t63 -9l93 9v-27q-16 -11 -38 -25t-39.5 -23.5t-21.5 -9.5q-49 2 -90.5 10t-76.5 20q-4 2 -15.5 17t-21 31.5t-9.5 22.5v443zM393 543l-62 15v39q16 3 43.5 6.5
t51.5 6t28 2.5q3 0 11 -7t14.5 -15.5t6.5 -11.5v-506l62 -31l-13 -46q-22 2 -44.5 3.5t-40 4t-25.5 4.5q-2 1 -10 9t-15 17t-7 13v497zM266 603h25v-480q0 -6 -5 -21.5t-16 -35.5h-31v451q0 11 8.5 35t18.5 51zM260 644l-98 136l28 25l99 -84h8l99 84l28 -25l-98 -136h-66z
" />
    <glyph glyph-name="Ucircumflex" unicode="&#xdb;" horiz-adv-x="585" 
d="M91 535l-62 31l13 46l34 -2t32 -2.5t26.5 -3.5t17.5 -4q3 -1 10.5 -8t14.5 -15t7 -11v-473q32 -10 63 -17t63 -9l93 9v-27q-16 -11 -38 -25t-39.5 -23.5t-21.5 -9.5q-49 2 -90.5 10t-76.5 20q-4 2 -15.5 17t-21 31.5t-9.5 22.5v443zM393 543l-62 15v39q16 3 43.5 6.5
t51.5 6t28 2.5q3 0 11 -7t14.5 -15.5t6.5 -11.5v-506l62 -31l-13 -46q-22 2 -44.5 3.5t-40 4t-25.5 4.5q-2 1 -10 9t-15 17t-7 13v497zM266 603h25v-480q0 -6 -5 -21.5t-16 -35.5h-31v451q0 11 8.5 35t18.5 51zM190 658l-30 30l103 104h56l103 -104l-30 -30l-96 64h-11z" />
    <glyph glyph-name="uni0214" unicode="&#x214;" horiz-adv-x="585" 
d="M91 535l-62 31l13 46l34 -2t32 -2.5t26.5 -3.5t17.5 -4q3 -1 10.5 -8t14.5 -15t7 -11v-473q32 -10 63 -17t63 -9l93 9v-27q-16 -11 -38 -25t-39.5 -23.5t-21.5 -9.5q-49 2 -90.5 10t-76.5 20q-4 2 -15.5 17t-21 31.5t-9.5 22.5v443zM393 543l-62 15v39q16 3 43.5 6.5
t51.5 6t28 2.5q3 0 11 -7t14.5 -15.5t6.5 -11.5v-506l62 -31l-13 -46q-22 2 -44.5 3.5t-40 4t-25.5 4.5q-2 1 -10 9t-15 17t-7 13v497zM266 603h25v-480q0 -6 -5 -21.5t-16 -35.5h-31v451q0 11 8.5 35t18.5 51zM425 663q-43 14 -85.5 32t-79.5 31l-5 24l43 57l145 -110z
M231 666q-43 12 -86 29t-81 28l-5 24l40 58l149 -105z" />
    <glyph glyph-name="Udieresis" unicode="&#xdc;" horiz-adv-x="585" 
d="M91 535l-62 31l13 46l34 -2t32 -2.5t26.5 -3.5t17.5 -4q3 -1 10.5 -8t14.5 -15t7 -11v-473q32 -10 63 -17t63 -9l93 9v-27q-16 -11 -38 -25t-39.5 -23.5t-21.5 -9.5q-49 2 -90.5 10t-76.5 20q-4 2 -15.5 17t-21 31.5t-9.5 22.5v443zM393 543l-62 15v39q16 3 43.5 6.5
t51.5 6t28 2.5q3 0 11 -7t14.5 -15.5t6.5 -11.5v-506l62 -31l-13 -46q-22 2 -44.5 3.5t-40 4t-25.5 4.5q-2 1 -10 9t-15 17t-7 13v497zM266 603h25v-480q0 -6 -5 -21.5t-16 -35.5h-31v451q0 11 8.5 35t18.5 51zM330 736q0 2 7.5 8t17.5 13.5t18.5 12.5t10.5 5q3 0 11.5 -6.5
t17.5 -15.5t15 -17.5t5 -12.5l-4 -18q-1 -3 -8 -9t-17 -13t-18 -12t-11 -5q-4 0 -12 6.5t-16.5 16t-14 17.5t-5.5 11zM154 736q0 2 7.5 8t17.5 13.5t18.5 12.5t10.5 5q3 0 11.5 -6.5t17.5 -15.5t15 -17.5t5 -12.5l-4 -18q-1 -3 -8 -9t-17 -13t-18 -12t-11 -5q-4 0 -12 6.5
t-16.5 16t-14 17.5t-5.5 11z" />
    <glyph glyph-name="uni01D7" unicode="&#x1d7;" horiz-adv-x="585" 
d="M91 535l-62 31l13 46l34 -2t32 -2.5t26.5 -3.5t17.5 -4q3 -1 10.5 -8t14.5 -15t7 -11v-473q32 -10 63 -17t63 -9l93 9v-27q-16 -11 -38 -25t-39.5 -23.5t-21.5 -9.5q-49 2 -90.5 10t-76.5 20q-4 2 -15.5 17t-21 31.5t-9.5 22.5v443zM393 543l-62 15v39q16 3 43.5 6.5
t51.5 6t28 2.5q3 0 11 -7t14.5 -15.5t6.5 -11.5v-506l62 -31l-13 -46q-22 2 -44.5 3.5t-40 4t-25.5 4.5q-2 1 -10 9t-15 17t-7 13v497zM266 603h25v-480q0 -6 -5 -21.5t-16 -35.5h-31v451q0 11 8.5 35t18.5 51zM271 791l-23 30l96 102l49 -50v-25q-33 -17 -60 -29t-62 -28z
M331 736q0 2 7.5 8t17.5 13.5t18.5 12.5t10.5 5q3 0 11.5 -6.5t17.5 -15.5t15 -17.5t5 -12.5l-4 -18q-1 -3 -8 -9t-17 -13t-18 -12t-11 -5q-4 0 -12 6.5t-16.5 16t-14 17.5t-5.5 11zM155 736q0 2 7.5 8t17.5 13.5t18.5 12.5t10.5 5q3 0 11.5 -6.5t17.5 -15.5t15 -17.5
t5 -12.5l-4 -18q-1 -3 -8 -9t-17 -13t-18 -12t-11 -5q-4 0 -12 6.5t-16.5 16t-14 17.5t-5.5 11z" />
    <glyph glyph-name="uni01D9" unicode="&#x1d9;" horiz-adv-x="585" 
d="M91 535l-62 31l13 46l34 -2t32 -2.5t26.5 -3.5t17.5 -4q3 -1 10.5 -8t14.5 -15t7 -11v-473q32 -10 63 -17t63 -9l93 9v-27q-16 -11 -38 -25t-39.5 -23.5t-21.5 -9.5q-49 2 -90.5 10t-76.5 20q-4 2 -15.5 17t-21 31.5t-9.5 22.5v443zM393 543l-62 15v39q16 3 43.5 6.5
t51.5 6t28 2.5q3 0 11 -7t14.5 -15.5t6.5 -11.5v-506l62 -31l-13 -46q-22 2 -44.5 3.5t-40 4t-25.5 4.5q-2 1 -10 9t-15 17t-7 13v497zM266 603h25v-480q0 -6 -5 -21.5t-16 -35.5h-31v451q0 11 8.5 35t18.5 51zM256 817l-93 116l25 30l97 -74h8l97 74l25 -30l-93 -116h-66z
M330 736q0 2 7.5 8t17.5 13.5t18.5 12.5t10.5 5q3 0 11.5 -6.5t17.5 -15.5t15 -17.5t5 -12.5l-4 -18q-1 -3 -8 -9t-17 -13t-18 -12t-11 -5q-4 0 -12 6.5t-16.5 16t-14 17.5t-5.5 11zM154 736q0 2 7.5 8t17.5 13.5t18.5 12.5t10.5 5q3 0 11.5 -6.5t17.5 -15.5t15 -17.5
t5 -12.5l-4 -18q-1 -3 -8 -9t-17 -13t-18 -12t-11 -5q-4 0 -12 6.5t-16.5 16t-14 17.5t-5.5 11z" />
    <glyph glyph-name="uni01DB" unicode="&#x1db;" horiz-adv-x="585" 
d="M91 535l-62 31l13 46l34 -2t32 -2.5t26.5 -3.5t17.5 -4q3 -1 10.5 -8t14.5 -15t7 -11v-473q32 -10 63 -17t63 -9l93 9v-27q-16 -11 -38 -25t-39.5 -23.5t-21.5 -9.5q-49 2 -90.5 10t-76.5 20q-4 2 -15.5 17t-21 31.5t-9.5 22.5v443zM393 543l-62 15v39q16 3 43.5 6.5
t51.5 6t28 2.5q3 0 11 -7t14.5 -15.5t6.5 -11.5v-506l62 -31l-13 -46q-22 2 -44.5 3.5t-40 4t-25.5 4.5q-2 1 -10 9t-15 17t-7 13v497zM266 603h25v-480q0 -6 -5 -21.5t-16 -35.5h-31v451q0 11 8.5 35t18.5 51zM302 792q-35 16 -62 28t-60 29v25l49 50l96 -102zM330 736
q0 2 7.5 8t17.5 13.5t18.5 12.5t10.5 5q3 0 11.5 -6.5t17.5 -15.5t15 -17.5t5 -12.5l-4 -18q-1 -3 -8 -9t-17 -13t-18 -12t-11 -5q-4 0 -12 6.5t-16.5 16t-14 17.5t-5.5 11zM154 736q0 2 7.5 8t17.5 13.5t18.5 12.5t10.5 5q3 0 11.5 -6.5t17.5 -15.5t15 -17.5t5 -12.5
l-4 -18q-1 -3 -8 -9t-17 -13t-18 -12t-11 -5q-4 0 -12 6.5t-16.5 16t-14 17.5t-5.5 11z" />
    <glyph glyph-name="uni01D5" unicode="&#x1d5;" horiz-adv-x="585" 
d="M91 535l-62 31l13 46l34 -2t32 -2.5t26.5 -3.5t17.5 -4q3 -1 10.5 -8t14.5 -15t7 -11v-473q32 -10 63 -17t63 -9l93 9v-27q-16 -11 -38 -25t-39.5 -23.5t-21.5 -9.5q-49 2 -90.5 10t-76.5 20q-4 2 -15.5 17t-21 31.5t-9.5 22.5v443zM393 543l-62 15v39q16 3 43.5 6.5
t51.5 6t28 2.5q3 0 11 -7t14.5 -15.5t6.5 -11.5v-506l62 -31l-13 -46q-22 2 -44.5 3.5t-40 4t-25.5 4.5q-2 1 -10 9t-15 17t-7 13v497zM266 603h25v-480q0 -6 -5 -21.5t-16 -35.5h-31v451q0 11 8.5 35t18.5 51zM148 834v66h285v-66h-285zM329 736q0 2 7.5 8t17.5 13.5
t18.5 12.5t10.5 5q3 0 11.5 -6.5t17.5 -15.5t15 -17.5t5 -12.5l-4 -18q-1 -3 -8 -9t-17 -13t-18 -12t-11 -5q-4 0 -12 6.5t-16.5 16t-14 17.5t-5.5 11zM153 736q0 2 7.5 8t17.5 13.5t18.5 12.5t10.5 5q3 0 11.5 -6.5t17.5 -15.5t15 -17.5t5 -12.5l-4 -18q-1 -3 -8 -9
t-17 -13t-18 -12t-11 -5q-4 0 -12 6.5t-16.5 16t-14 17.5t-5.5 11z" />
    <glyph glyph-name="uni1EE4" unicode="&#x1ee4;" horiz-adv-x="585" 
d="M91 535l-62 31l13 46l34 -2t32 -2.5t26.5 -3.5t17.5 -4q3 -1 10.5 -8t14.5 -15t7 -11v-473q32 -10 63 -17t63 -9l93 9v-27q-16 -11 -38 -25t-39.5 -23.5t-21.5 -9.5q-49 2 -90.5 10t-76.5 20q-4 2 -15.5 17t-21 31.5t-9.5 22.5v443zM393 543l-62 15v39q16 3 43.5 6.5
t51.5 6t28 2.5q3 0 11 -7t14.5 -15.5t6.5 -11.5v-506l62 -31l-13 -46q-22 2 -44.5 3.5t-40 4t-25.5 4.5q-2 1 -10 9t-15 17t-7 13v497zM266 603h25v-480q0 -6 -5 -21.5t-16 -35.5h-31v451q0 11 8.5 35t18.5 51zM231 -121q0 2 7.5 8t17.5 13.5t18.5 12.5t10.5 5
q3 0 11.5 -6.5t17.5 -15.5t15 -17.5t5 -12.5l-4 -18q0 -3 -7.5 -9t-17.5 -13t-18 -12t-11 -5q-4 0 -12 6.5t-16.5 16t-14 17.5t-5.5 11z" />
    <glyph glyph-name="Ugrave" unicode="&#xd9;" horiz-adv-x="585" 
d="M91 535l-62 31l13 46l34 -2t32 -2.5t26.5 -3.5t17.5 -4q3 -1 10.5 -8t14.5 -15t7 -11v-473q32 -10 63 -17t63 -9l93 9v-27q-16 -11 -38 -25t-39.5 -23.5t-21.5 -9.5q-49 2 -90.5 10t-76.5 20q-4 2 -15.5 17t-21 31.5t-9.5 22.5v443zM393 543l-62 15v39q16 3 43.5 6.5
t51.5 6t28 2.5q3 0 11 -7t14.5 -15.5t6.5 -11.5v-506l62 -31l-13 -46q-22 2 -44.5 3.5t-40 4t-25.5 4.5q-2 1 -10 9t-15 17t-7 13v497zM266 603h25v-480q0 -6 -5 -21.5t-16 -35.5h-31v451q0 11 8.5 35t18.5 51zM351 660q-29 7 -62 14.5t-64.5 15.5t-57.5 14l-4 26l40 60
l163 -94z" />
    <glyph glyph-name="uni1EE6" unicode="&#x1ee6;" horiz-adv-x="585" 
d="M91 535l-62 31l13 46l34 -2t32 -2.5t26.5 -3.5t17.5 -4q3 -1 10.5 -8t14.5 -15t7 -11v-473q32 -10 63 -17t63 -9l93 9v-27q-16 -11 -38 -25t-39.5 -23.5t-21.5 -9.5q-49 2 -90.5 10t-76.5 20q-4 2 -15.5 17t-21 31.5t-9.5 22.5v443zM393 543l-62 15v39q16 3 43.5 6.5
t51.5 6t28 2.5q3 0 11 -7t14.5 -15.5t6.5 -11.5v-506l62 -31l-13 -46q-22 2 -44.5 3.5t-40 4t-25.5 4.5q-2 1 -10 9t-15 17t-7 13v497zM266 603h25v-480q0 -6 -5 -21.5t-16 -35.5h-31v451q0 11 8.5 35t18.5 51zM277 638l-20 34q27 18 40.5 37t13.5 34q0 14 -10.5 22.5
t-31.5 8.5q-6 0 -12 -0.5t-13 -2.5l-11 50q15 5 31 7.5t29 2.5q44 0 69 -21t25 -54v-10t-2 -10q-1 -11 -14.5 -28t-37 -35.5t-56.5 -34.5z" />
    <glyph glyph-name="Uhorn" unicode="&#x1af;" horiz-adv-x="585" 
d="M91 535l-62 31l13 46l34 -2t32 -2.5t26.5 -3.5t17.5 -4q3 -1 10.5 -8t14.5 -15t7 -11v-473q32 -10 63 -17t63 -9l93 9v-27q-16 -11 -38 -25t-39.5 -23.5t-21.5 -9.5q-49 2 -90.5 10t-76.5 20q-4 2 -15.5 17t-21 31.5t-9.5 22.5v443zM393 543l-62 15v39q16 3 43.5 6.5
t51.5 6t28 2.5q3 0 11 -7t14.5 -15.5t6.5 -11.5v-506l62 -31l-13 -46q-22 2 -44.5 3.5t-40 4t-25.5 4.5q-2 1 -10 9t-15 17t-7 13v497zM266 603h25v-480q0 -6 -5 -21.5t-16 -35.5h-31v451q0 11 8.5 35t18.5 51zM467 539l-6 38q20 0 41 14t37 38t21 55l53 -18q-5 -34 -29 -63
t-55.5 -46.5t-61.5 -17.5z" />
    <glyph glyph-name="uni1EE8" unicode="&#x1ee8;" horiz-adv-x="585" 
d="M91 535l-62 31l13 46l34 -2t32 -2.5t26.5 -3.5t17.5 -4q3 -1 10.5 -8t14.5 -15t7 -11v-473q32 -10 63 -17t63 -9l93 9v-27q-16 -11 -38 -25t-39.5 -23.5t-21.5 -9.5q-49 2 -90.5 10t-76.5 20q-4 2 -15.5 17t-21 31.5t-9.5 22.5v443zM393 543l-62 15v39q16 3 43.5 6.5
t51.5 6t28 2.5q3 0 11 -7t14.5 -15.5t6.5 -11.5v-506l62 -31l-13 -46q-22 2 -44.5 3.5t-40 4t-25.5 4.5q-2 1 -10 9t-15 17t-7 13v497zM266 603h25v-480q0 -6 -5 -21.5t-16 -35.5h-31v451q0 11 8.5 35t18.5 51zM467 539l-6 38q20 0 41 14t37 38t21 55l53 -18q-5 -34 -29 -63
t-55.5 -46.5t-61.5 -17.5zM242 660l-15 36l163 94l40 -60l-4 -26q-25 -6 -57 -14t-64.5 -15.5t-62.5 -14.5z" />
    <glyph glyph-name="uni1EF0" unicode="&#x1ef0;" horiz-adv-x="585" 
d="M91 535l-62 31l13 46l34 -2t32 -2.5t26.5 -3.5t17.5 -4q3 -1 10.5 -8t14.5 -15t7 -11v-473q32 -10 63 -17t63 -9l93 9v-27q-16 -11 -38 -25t-39.5 -23.5t-21.5 -9.5q-49 2 -90.5 10t-76.5 20q-4 2 -15.5 17t-21 31.5t-9.5 22.5v443zM393 543l-62 15v39q16 3 43.5 6.5
t51.5 6t28 2.5q3 0 11 -7t14.5 -15.5t6.5 -11.5v-506l62 -31l-13 -46q-22 2 -44.5 3.5t-40 4t-25.5 4.5q-2 1 -10 9t-15 17t-7 13v497zM266 603h25v-480q0 -6 -5 -21.5t-16 -35.5h-31v451q0 11 8.5 35t18.5 51zM467 539l-6 38q20 0 41 14t37 38t21 55l53 -18q-5 -34 -29 -63
t-55.5 -46.5t-61.5 -17.5zM231 -121q0 2 7.5 8t17.5 13.5t18.5 12.5t10.5 5q3 0 11.5 -6.5t17.5 -15.5t15 -17.5t5 -12.5l-4 -18q0 -3 -7.5 -9t-17.5 -13t-18 -12t-11 -5q-4 0 -12 6.5t-16.5 16t-14 17.5t-5.5 11z" />
    <glyph glyph-name="uni1EEA" unicode="&#x1eea;" horiz-adv-x="585" 
d="M91 535l-62 31l13 46l34 -2t32 -2.5t26.5 -3.5t17.5 -4q3 -1 10.5 -8t14.5 -15t7 -11v-473q32 -10 63 -17t63 -9l93 9v-27q-16 -11 -38 -25t-39.5 -23.5t-21.5 -9.5q-49 2 -90.5 10t-76.5 20q-4 2 -15.5 17t-21 31.5t-9.5 22.5v443zM393 543l-62 15v39q16 3 43.5 6.5
t51.5 6t28 2.5q3 0 11 -7t14.5 -15.5t6.5 -11.5v-506l62 -31l-13 -46q-22 2 -44.5 3.5t-40 4t-25.5 4.5q-2 1 -10 9t-15 17t-7 13v497zM266 603h25v-480q0 -6 -5 -21.5t-16 -35.5h-31v451q0 11 8.5 35t18.5 51zM467 539l-6 38q20 0 41 14t37 38t21 55l53 -18q-5 -34 -29 -63
t-55.5 -46.5t-61.5 -17.5zM351 660q-29 7 -62 14.5t-64.5 15.5t-57.5 14l-4 26l40 60l163 -94z" />
    <glyph glyph-name="uni1EEC" unicode="&#x1eec;" horiz-adv-x="585" 
d="M91 535l-62 31l13 46l34 -2t32 -2.5t26.5 -3.5t17.5 -4q3 -1 10.5 -8t14.5 -15t7 -11v-473q32 -10 63 -17t63 -9l93 9v-27q-16 -11 -38 -25t-39.5 -23.5t-21.5 -9.5q-49 2 -90.5 10t-76.5 20q-4 2 -15.5 17t-21 31.5t-9.5 22.5v443zM393 543l-62 15v39q16 3 43.5 6.5
t51.5 6t28 2.5q3 0 11 -7t14.5 -15.5t6.5 -11.5v-506l62 -31l-13 -46q-22 2 -44.5 3.5t-40 4t-25.5 4.5q-2 1 -10 9t-15 17t-7 13v497zM266 603h25v-480q0 -6 -5 -21.5t-16 -35.5h-31v451q0 11 8.5 35t18.5 51zM467 539l-6 38q20 0 41 14t37 38t21 55l53 -18q-5 -34 -29 -63
t-55.5 -46.5t-61.5 -17.5zM277 638l-20 34q27 18 40.5 37t13.5 34q0 14 -10.5 22.5t-31.5 8.5q-6 0 -12 -0.5t-13 -2.5l-11 50q15 5 31 7.5t29 2.5q44 0 69 -21t25 -54v-10t-2 -10q-1 -11 -14.5 -28t-37 -35.5t-56.5 -34.5z" />
    <glyph glyph-name="uni1EEE" unicode="&#x1eee;" horiz-adv-x="585" 
d="M91 535l-62 31l13 46l34 -2t32 -2.5t26.5 -3.5t17.5 -4q3 -1 10.5 -8t14.5 -15t7 -11v-473q32 -10 63 -17t63 -9l93 9v-27q-16 -11 -38 -25t-39.5 -23.5t-21.5 -9.5q-49 2 -90.5 10t-76.5 20q-4 2 -15.5 17t-21 31.5t-9.5 22.5v443zM393 543l-62 15v39q16 3 43.5 6.5
t51.5 6t28 2.5q3 0 11 -7t14.5 -15.5t6.5 -11.5v-506l62 -31l-13 -46q-22 2 -44.5 3.5t-40 4t-25.5 4.5q-2 1 -10 9t-15 17t-7 13v497zM266 603h25v-480q0 -6 -5 -21.5t-16 -35.5h-31v451q0 11 8.5 35t18.5 51zM467 539l-6 38q20 0 41 14t37 38t21 55l53 -18q-5 -34 -29 -63
t-55.5 -46.5t-61.5 -17.5zM355 657q-26 0 -51.5 9.5t-45.5 18.5t-30 9q-5 0 -16.5 -7t-23 -15.5t-15.5 -11.5l-32 27q6 8 17 21t24.5 26t26 22t21.5 9q20 0 47.5 -10t51.5 -20.5t34 -10.5q8 0 24.5 13.5t24.5 23.5l34 -29q-6 -8 -17 -20.5t-24.5 -25t-27 -21t-22.5 -8.5z
" />
    <glyph glyph-name="Uhungarumlaut" unicode="&#x170;" horiz-adv-x="585" 
d="M91 535l-62 31l13 46l34 -2t32 -2.5t26.5 -3.5t17.5 -4q3 -1 10.5 -8t14.5 -15t7 -11v-473q32 -10 63 -17t63 -9l93 9v-27q-16 -11 -38 -25t-39.5 -23.5t-21.5 -9.5q-49 2 -90.5 10t-76.5 20q-4 2 -15.5 17t-21 31.5t-9.5 22.5v443zM393 543l-62 15v39q16 3 43.5 6.5
t51.5 6t28 2.5q3 0 11 -7t14.5 -15.5t6.5 -11.5v-506l62 -31l-13 -46q-22 2 -44.5 3.5t-40 4t-25.5 4.5q-2 1 -10 9t-15 17t-7 13v497zM266 603h25v-480q0 -6 -5 -21.5t-16 -35.5h-31v451q0 11 8.5 35t18.5 51zM167 646l-18 34l145 110l43 -57l-5 -24q-37 -13 -79 -31
t-86 -32zM361 651l-17 34l149 105l40 -58l-5 -24q-37 -11 -80 -28t-87 -29z" />
    <glyph glyph-name="uni0216" unicode="&#x216;" horiz-adv-x="585" 
d="M91 535l-62 31l13 46l34 -2t32 -2.5t26.5 -3.5t17.5 -4q3 -1 10.5 -8t14.5 -15t7 -11v-473q32 -10 63 -17t63 -9l93 9v-27q-16 -11 -38 -25t-39.5 -23.5t-21.5 -9.5q-49 2 -90.5 10t-76.5 20q-4 2 -15.5 17t-21 31.5t-9.5 22.5v443zM393 543l-62 15v39q16 3 43.5 6.5
t51.5 6t28 2.5q3 0 11 -7t14.5 -15.5t6.5 -11.5v-506l62 -31l-13 -46q-22 2 -44.5 3.5t-40 4t-25.5 4.5q-2 1 -10 9t-15 17t-7 13v497zM266 603h25v-480q0 -6 -5 -21.5t-16 -35.5h-31v451q0 11 8.5 35t18.5 51zM291 787q33 0 62.5 -16.5t51.5 -40t32 -43.5l-28 -25
q-25 26 -53.5 43t-64.5 17t-64.5 -17t-53.5 -43l-28 25q10 20 32 43.5t52 40t62 16.5z" />
    <glyph glyph-name="Umacron" unicode="&#x16a;" horiz-adv-x="585" 
d="M91 535l-62 31l13 46l34 -2t32 -2.5t26.5 -3.5t17.5 -4q3 -1 10.5 -8t14.5 -15t7 -11v-473q32 -10 63 -17t63 -9l93 9v-27q-16 -11 -38 -25t-39.5 -23.5t-21.5 -9.5q-49 2 -90.5 10t-76.5 20q-4 2 -15.5 17t-21 31.5t-9.5 22.5v443zM393 543l-62 15v39q16 3 43.5 6.5
t51.5 6t28 2.5q3 0 11 -7t14.5 -15.5t6.5 -11.5v-506l62 -31l-13 -46q-22 2 -44.5 3.5t-40 4t-25.5 4.5q-2 1 -10 9t-15 17t-7 13v497zM266 603h25v-480q0 -6 -5 -21.5t-16 -35.5h-31v451q0 11 8.5 35t18.5 51zM152 664v62h285v-62h-285z" />
    <glyph glyph-name="Uogonek" unicode="&#x172;" horiz-adv-x="585" 
d="M91 535l-62 31l13 46l34 -2t32 -2.5t26.5 -3.5t17.5 -4q3 -1 10.5 -8t14.5 -15t7 -11v-473q32 -10 63 -17t63 -9l93 9v-27q-16 -11 -38 -25t-39.5 -23.5t-21.5 -9.5q-49 2 -90.5 10t-76.5 20q-4 2 -15.5 17t-21 31.5t-9.5 22.5v443zM393 543l-62 15v39q16 3 43.5 6.5
t51.5 6t28 2.5q3 0 11 -7t14.5 -15.5t6.5 -11.5v-506l62 -31l-13 -46q-22 2 -44.5 3.5t-40 4t-25.5 4.5q-2 1 -10 9t-15 17t-7 13v497zM266 603h25v-480q0 -6 -5 -21.5t-16 -35.5h-31v451q0 11 8.5 35t18.5 51zM386 -219q-19 0 -37 15t-30 38t-12 46q0 8 1 19t5 27
q19 18 47 38.5t56 39t47 30.5l22 -24q-22 -21 -46.5 -44.5t-41.5 -42t-17 -24.5q0 -34 7.5 -50t20.5 -16h69v-33q-3 -1 -23 -5.5t-40.5 -9t-27.5 -4.5z" />
    <glyph glyph-name="Uring" unicode="&#x16e;" horiz-adv-x="585" 
d="M91 535l-62 31l13 46l34 -2t32 -2.5t26.5 -3.5t17.5 -4q3 -1 10.5 -8t14.5 -15t7 -11v-473q32 -10 63 -17t63 -9l93 9v-27q-16 -11 -38 -25t-39.5 -23.5t-21.5 -9.5q-49 2 -90.5 10t-76.5 20q-4 2 -15.5 17t-21 31.5t-9.5 22.5v443zM393 543l-62 15v39q16 3 43.5 6.5
t51.5 6t28 2.5q3 0 11 -7t14.5 -15.5t6.5 -11.5v-506l62 -31l-13 -46q-22 2 -44.5 3.5t-40 4t-25.5 4.5q-2 1 -10 9t-15 17t-7 13v497zM266 603h25v-480q0 -6 -5 -21.5t-16 -35.5h-31v451q0 11 8.5 35t18.5 51zM291 655q-49 0 -75.5 24t-26.5 81q0 48 27.5 75t76.5 27
q50 0 77.5 -24t27.5 -81q0 -48 -28.5 -75t-78.5 -27zM291 696q13 0 23 3.5t19 7.5q2 8 3 20.5t1 28.5q0 40 -10.5 52.5t-33.5 12.5q-13 0 -21.5 -3t-17.5 -8q-1 -8 -2.5 -20.5t-1.5 -28.5q0 -40 9.5 -52.5t31.5 -12.5z" />
    <glyph glyph-name="Utilde" unicode="&#x168;" horiz-adv-x="585" 
d="M91 535l-62 31l13 46l34 -2t32 -2.5t26.5 -3.5t17.5 -4q3 -1 10.5 -8t14.5 -15t7 -11v-473q32 -10 63 -17t63 -9l93 9v-27q-16 -11 -38 -25t-39.5 -23.5t-21.5 -9.5q-49 2 -90.5 10t-76.5 20q-4 2 -15.5 17t-21 31.5t-9.5 22.5v443zM393 543l-62 15v39q16 3 43.5 6.5
t51.5 6t28 2.5q3 0 11 -7t14.5 -15.5t6.5 -11.5v-506l62 -31l-13 -46q-22 2 -44.5 3.5t-40 4t-25.5 4.5q-2 1 -10 9t-15 17t-7 13v497zM266 603h25v-480q0 -6 -5 -21.5t-16 -35.5h-31v451q0 11 8.5 35t18.5 51zM355 657q-26 0 -51.5 9.5t-45.5 18.5t-30 9q-5 0 -16.5 -7
t-23 -15.5t-15.5 -11.5l-32 27q6 8 17 21t24.5 26t26 22t21.5 9q20 0 47.5 -10t51.5 -20.5t34 -10.5q8 0 24.5 13.5t24.5 23.5l34 -29q-6 -8 -17 -20.5t-24.5 -25t-27 -21t-22.5 -8.5z" />
    <glyph glyph-name="V" unicode="V" horiz-adv-x="482" 
d="M376 543l-58 15v38q27 4 51 7.5t42 6t25 2.5t19 -11.5t16 -20.5l-122 -505q-6 -9 -17.5 -20.5t-26 -23.5t-30 -22.5t-30.5 -17.5l25 54zM156 14q-3 2 -12.5 10t-17.5 17.5t-10 15.5l-113 478l-42 31l16 46q15 -1 30.5 -2.5t29.5 -3.5t25.5 -4.5t17.5 -4.5
q6 -6 11.5 -14.5t8.5 -15.5l99 -480l101 -28l-55 -68q-8 1 -26 5t-35.5 9.5t-27.5 8.5zM180 603h24l73 -363q1 -5 3 -37t4.5 -74.5t2.5 -81.5l-18 -12l-102 494q-2 11 3 32.5t10 41.5z" />
    <glyph glyph-name="W" unicode="W" horiz-adv-x="678" 
d="M572 543l-58 15v38q27 4 51 7.5t42 6t25 2.5t19 -11.5t16 -20.5l-122 -507q-6 -9 -17.5 -20t-26 -23t-30 -22t-30.5 -17l25 52zM349 12q-3 2 -12 7.5t-16.5 12.5t-8.5 11l-100 492l-42 31l16 46q20 -1 40.5 -3.5t37.5 -5.5t25 -6q6 -6 11.5 -14.5t8.5 -15.5l83 -482
l104 -28l-55 -66q-3 1 -22 4.5t-39.5 8.5t-30.5 8zM159 12q-3 2 -12.5 10t-17.5 17.5t-10 15.5l-116 480l-42 31l16 46q20 -1 40.5 -3.5t37.5 -5.5t25 -6q6 -6 11.5 -14.5t8.5 -15.5l106 -498l66 -14l76 1v-14q-20 -14 -38.5 -26t-32 -18.5t-17.5 -6.5t-17 2t-30 5.5t-32 7
t-22 6.5zM390 603h24l61 -363q1 -4 2 -24t1.5 -48.5t1.5 -61t1 -61.5l-21 -12l-86 496q-1 11 5 32.5t11 41.5z" />
    <glyph glyph-name="Wacute" unicode="&#x1e82;" horiz-adv-x="678" 
d="M572 543l-58 15v38q27 4 51 7.5t42 6t25 2.5t19 -11.5t16 -20.5l-122 -507q-6 -9 -17.5 -20t-26 -23t-30 -22t-30.5 -17l25 52zM349 12q-3 2 -12 7.5t-16.5 12.5t-8.5 11l-100 492l-42 31l16 46q20 -1 40.5 -3.5t37.5 -5.5t25 -6q6 -6 11.5 -14.5t8.5 -15.5l83 -482
l104 -28l-55 -66q-3 1 -22 4.5t-39.5 8.5t-30.5 8zM159 12q-3 2 -12.5 10t-17.5 17.5t-10 15.5l-116 480l-42 31l16 46q20 -1 40.5 -3.5t37.5 -5.5t25 -6q6 -6 11.5 -14.5t8.5 -15.5l106 -498l66 -14l76 1v-14q-20 -14 -38.5 -26t-32 -18.5t-17.5 -6.5t-17 2t-30 5.5t-32 7
t-22 6.5zM390 603h24l61 -363q1 -4 2 -24t1.5 -48.5t1.5 -61t1 -61.5l-21 -12l-86 496q-1 11 5 32.5t11 41.5zM286 660l-15 36l163 94l40 -60l-4 -26q-25 -6 -57 -14t-64.5 -15.5t-62.5 -14.5z" />
    <glyph glyph-name="Wcircumflex" unicode="&#x174;" horiz-adv-x="678" 
d="M572 543l-58 15v38q27 4 51 7.5t42 6t25 2.5t19 -11.5t16 -20.5l-122 -507q-6 -9 -17.5 -20t-26 -23t-30 -22t-30.5 -17l25 52zM349 12q-3 2 -12 7.5t-16.5 12.5t-8.5 11l-100 492l-42 31l16 46q20 -1 40.5 -3.5t37.5 -5.5t25 -6q6 -6 11.5 -14.5t8.5 -15.5l83 -482
l104 -28l-55 -66q-3 1 -22 4.5t-39.5 8.5t-30.5 8zM159 12q-3 2 -12.5 10t-17.5 17.5t-10 15.5l-116 480l-42 31l16 46q20 -1 40.5 -3.5t37.5 -5.5t25 -6q6 -6 11.5 -14.5t8.5 -15.5l106 -498l66 -14l76 1v-14q-20 -14 -38.5 -26t-32 -18.5t-17.5 -6.5t-17 2t-30 5.5t-32 7
t-22 6.5zM390 603h24l61 -363q1 -4 2 -24t1.5 -48.5t1.5 -61t1 -61.5l-21 -12l-86 496q-1 11 5 32.5t11 41.5zM234 658l-30 30l103 104h56l103 -104l-30 -30l-96 64h-11z" />
    <glyph glyph-name="Wdieresis" unicode="&#x1e84;" horiz-adv-x="678" 
d="M572 543l-58 15v38q27 4 51 7.5t42 6t25 2.5t19 -11.5t16 -20.5l-122 -507q-6 -9 -17.5 -20t-26 -23t-30 -22t-30.5 -17l25 52zM349 12q-3 2 -12 7.5t-16.5 12.5t-8.5 11l-100 492l-42 31l16 46q20 -1 40.5 -3.5t37.5 -5.5t25 -6q6 -6 11.5 -14.5t8.5 -15.5l83 -482
l104 -28l-55 -66q-3 1 -22 4.5t-39.5 8.5t-30.5 8zM159 12q-3 2 -12.5 10t-17.5 17.5t-10 15.5l-116 480l-42 31l16 46q20 -1 40.5 -3.5t37.5 -5.5t25 -6q6 -6 11.5 -14.5t8.5 -15.5l106 -498l66 -14l76 1v-14q-20 -14 -38.5 -26t-32 -18.5t-17.5 -6.5t-17 2t-30 5.5t-32 7
t-22 6.5zM390 603h24l61 -363q1 -4 2 -24t1.5 -48.5t1.5 -61t1 -61.5l-21 -12l-86 496q-1 11 5 32.5t11 41.5zM374 736q0 2 7.5 8t17.5 13.5t18.5 12.5t10.5 5q3 0 11.5 -6.5t17.5 -15.5t15 -17.5t5 -12.5l-4 -18q-1 -3 -8 -9t-17 -13t-18 -12t-11 -5q-4 0 -12 6.5t-16.5 16
t-14 17.5t-5.5 11zM198 736q0 2 7.5 8t17.5 13.5t18.5 12.5t10.5 5q3 0 11.5 -6.5t17.5 -15.5t15 -17.5t5 -12.5l-4 -18q-1 -3 -8 -9t-17 -13t-18 -12t-11 -5q-4 0 -12 6.5t-16.5 16t-14 17.5t-5.5 11z" />
    <glyph glyph-name="Wgrave" unicode="&#x1e80;" horiz-adv-x="678" 
d="M572 543l-58 15v38q27 4 51 7.5t42 6t25 2.5t19 -11.5t16 -20.5l-122 -507q-6 -9 -17.5 -20t-26 -23t-30 -22t-30.5 -17l25 52zM349 12q-3 2 -12 7.5t-16.5 12.5t-8.5 11l-100 492l-42 31l16 46q20 -1 40.5 -3.5t37.5 -5.5t25 -6q6 -6 11.5 -14.5t8.5 -15.5l83 -482
l104 -28l-55 -66q-3 1 -22 4.5t-39.5 8.5t-30.5 8zM159 12q-3 2 -12.5 10t-17.5 17.5t-10 15.5l-116 480l-42 31l16 46q20 -1 40.5 -3.5t37.5 -5.5t25 -6q6 -6 11.5 -14.5t8.5 -15.5l106 -498l66 -14l76 1v-14q-20 -14 -38.5 -26t-32 -18.5t-17.5 -6.5t-17 2t-30 5.5t-32 7
t-22 6.5zM390 603h24l61 -363q1 -4 2 -24t1.5 -48.5t1.5 -61t1 -61.5l-21 -12l-86 496q-1 11 5 32.5t11 41.5zM395 660q-29 7 -62 14.5t-64.5 15.5t-57.5 14l-4 26l40 60l163 -94z" />
    <glyph glyph-name="X" unicode="X" horiz-adv-x="479" 
d="M7 557l28 65q30 -14 62 -28.5t60.5 -27.5t49.5 -22.5t30 -14.5l11 -41v-375l194 -32q7 -9 9 -25l-28 -65q-31 8 -69 17t-75 18t-63.5 16t-34.5 11l-26 44v375l-139 60q-7 9 -9 25zM337 332l106 9l-8 -68l-98 4v55zM235 272l-206 -21l7 73l199 1v-53zM208 512
q28 19 57.5 38.5t56 35.5t43.5 26t20 10q14 0 27.5 -2.5t25 -5.5t17.5 -6q4 -4 7 -10.5t3 -8.5q0 -11 -2.5 -23t-7 -22.5t-9 -18t-8.5 -8.5q-2 2 -14.5 8t-26.5 11.5t-23 5.5q-3 0 -19.5 -7t-41 -19t-51 -25t-48.5 -25zM245 99q-28 -21 -54.5 -40.5t-49 -34.5t-36.5 -24
t-17 -9q-14 0 -27.5 2.5t-24.5 6t-18 5.5q-4 5 -7 11t-3 8q0 11 3 23t7 23t8.5 18t8.5 8q3 -1 15 -7.5t26.5 -12t22.5 -5.5q3 0 16.5 7t34 18t44 24t45.5 25zM315 526l37 10v-386q0 -6 -7.5 -21.5t-18.5 -35.5h-28v371q0 8 5 25t12 37z" />
    <glyph glyph-name="Y" unicode="Y" horiz-adv-x="447" 
d="M157 55q-3 2 -12.5 10t-17.5 17.5t-10 15.5l-105 437l-42 31l16 46q20 -1 40.5 -3.5t37.5 -5.5t25 -6q6 -6 11.5 -14.5t8.5 -15.5l91 -439l87 -28l-32 -69q-8 1 -28 5.5t-40 10t-30 8.5zM355 543l-58 15v38q20 3 39 6t34.5 5t27 3.5t17.5 1.5q7 0 19 -11.5t16 -20.5
l-125 -464l-48 -257l49 -18v-50q-12 -1 -32 -3.5t-41 -4t-36 -3t-18 -1.5t-10.5 9.5t-14.5 20t-7 13.5l90 264zM189 603h24l64 -317q1 -5 3.5 -35.5t5.5 -73.5t4 -87l-21 -12l-93 451q-2 11 3 32.5t10 41.5z" />
    <glyph glyph-name="Yacute" unicode="&#xdd;" horiz-adv-x="447" 
d="M157 55q-3 2 -12.5 10t-17.5 17.5t-10 15.5l-105 437l-42 31l16 46q20 -1 40.5 -3.5t37.5 -5.5t25 -6q6 -6 11.5 -14.5t8.5 -15.5l91 -439l87 -28l-32 -69q-8 1 -28 5.5t-40 10t-30 8.5zM355 543l-58 15v38q20 3 39 6t34.5 5t27 3.5t17.5 1.5q7 0 19 -11.5t16 -20.5
l-125 -464l-48 -257l49 -18v-50q-12 -1 -32 -3.5t-41 -4t-36 -3t-18 -1.5t-10.5 9.5t-14.5 20t-7 13.5l90 264zM189 603h24l64 -317q1 -5 3.5 -35.5t5.5 -73.5t4 -87l-21 -12l-93 451q-2 11 3 32.5t10 41.5zM182 660l-15 36l163 94l40 -60l-4 -26q-25 -6 -57 -14
t-64.5 -15.5t-62.5 -14.5z" />
    <glyph glyph-name="Ycircumflex" unicode="&#x176;" horiz-adv-x="447" 
d="M157 55q-3 2 -12.5 10t-17.5 17.5t-10 15.5l-105 437l-42 31l16 46q20 -1 40.5 -3.5t37.5 -5.5t25 -6q6 -6 11.5 -14.5t8.5 -15.5l91 -439l87 -28l-32 -69q-8 1 -28 5.5t-40 10t-30 8.5zM355 543l-58 15v38q20 3 39 6t34.5 5t27 3.5t17.5 1.5q7 0 19 -11.5t16 -20.5
l-125 -464l-48 -257l49 -18v-50q-12 -1 -32 -3.5t-41 -4t-36 -3t-18 -1.5t-10.5 9.5t-14.5 20t-7 13.5l90 264zM189 603h24l64 -317q1 -5 3.5 -35.5t5.5 -73.5t4 -87l-21 -12l-93 451q-2 11 3 32.5t10 41.5zM130 658l-30 30l103 104h56l103 -104l-30 -30l-96 64h-11z" />
    <glyph glyph-name="Ydieresis" unicode="&#x178;" horiz-adv-x="447" 
d="M157 55q-3 2 -12.5 10t-17.5 17.5t-10 15.5l-105 437l-42 31l16 46q20 -1 40.5 -3.5t37.5 -5.5t25 -6q6 -6 11.5 -14.5t8.5 -15.5l91 -439l87 -28l-32 -69q-8 1 -28 5.5t-40 10t-30 8.5zM355 543l-58 15v38q20 3 39 6t34.5 5t27 3.5t17.5 1.5q7 0 19 -11.5t16 -20.5
l-125 -464l-48 -257l49 -18v-50q-12 -1 -32 -3.5t-41 -4t-36 -3t-18 -1.5t-10.5 9.5t-14.5 20t-7 13.5l90 264zM189 603h24l64 -317q1 -5 3.5 -35.5t5.5 -73.5t4 -87l-21 -12l-93 451q-2 11 3 32.5t10 41.5zM270 736q0 2 7.5 8t17.5 13.5t18.5 12.5t10.5 5q3 0 11.5 -6.5
t17.5 -15.5t15 -17.5t5 -12.5l-4 -18q-1 -3 -8 -9t-17 -13t-18 -12t-11 -5q-4 0 -12 6.5t-16.5 16t-14 17.5t-5.5 11zM94 736q0 2 7.5 8t17.5 13.5t18.5 12.5t10.5 5q3 0 11.5 -6.5t17.5 -15.5t15 -17.5t5 -12.5l-4 -18q-1 -3 -8 -9t-17 -13t-18 -12t-11 -5q-4 0 -12 6.5
t-16.5 16t-14 17.5t-5.5 11z" />
    <glyph glyph-name="uni1EF4" unicode="&#x1ef4;" horiz-adv-x="447" 
d="M157 55q-3 2 -12.5 10t-17.5 17.5t-10 15.5l-105 437l-42 31l16 46q20 -1 40.5 -3.5t37.5 -5.5t25 -6q6 -6 11.5 -14.5t8.5 -15.5l91 -439l87 -28l-32 -69q-8 1 -28 5.5t-40 10t-30 8.5zM355 543l-58 15v38q20 3 39 6t34.5 5t27 3.5t17.5 1.5q7 0 19 -11.5t16 -20.5
l-125 -464l-48 -257l49 -18v-50q-12 -1 -32 -3.5t-41 -4t-36 -3t-18 -1.5t-10.5 9.5t-14.5 20t-7 13.5l90 264zM189 603h24l64 -317q1 -5 3.5 -35.5t5.5 -73.5t4 -87l-21 -12l-93 451q-2 11 3 32.5t10 41.5zM345 -11q0 2 7.5 8t17.5 13.5t18.5 12.5t10.5 5q3 0 11.5 -6.5
t17.5 -15.5t15 -17.5t5 -12.5l-4 -18q0 -3 -7.5 -9t-17.5 -13t-18 -12t-11 -5q-4 0 -12 6.5t-16.5 16t-14 17.5t-5.5 11z" />
    <glyph glyph-name="Ygrave" unicode="&#x1ef2;" horiz-adv-x="447" 
d="M157 55q-3 2 -12.5 10t-17.5 17.5t-10 15.5l-105 437l-42 31l16 46q20 -1 40.5 -3.5t37.5 -5.5t25 -6q6 -6 11.5 -14.5t8.5 -15.5l91 -439l87 -28l-32 -69q-8 1 -28 5.5t-40 10t-30 8.5zM355 543l-58 15v38q20 3 39 6t34.5 5t27 3.5t17.5 1.5q7 0 19 -11.5t16 -20.5
l-125 -464l-48 -257l49 -18v-50q-12 -1 -32 -3.5t-41 -4t-36 -3t-18 -1.5t-10.5 9.5t-14.5 20t-7 13.5l90 264zM189 603h24l64 -317q1 -5 3.5 -35.5t5.5 -73.5t4 -87l-21 -12l-93 451q-2 11 3 32.5t10 41.5zM291 660q-29 7 -62 14.5t-64.5 15.5t-57.5 14l-4 26l40 60
l163 -94z" />
    <glyph glyph-name="uni1EF6" unicode="&#x1ef6;" horiz-adv-x="447" 
d="M157 55q-3 2 -12.5 10t-17.5 17.5t-10 15.5l-105 437l-42 31l16 46q20 -1 40.5 -3.5t37.5 -5.5t25 -6q6 -6 11.5 -14.5t8.5 -15.5l91 -439l87 -28l-32 -69q-8 1 -28 5.5t-40 10t-30 8.5zM355 543l-58 15v38q20 3 39 6t34.5 5t27 3.5t17.5 1.5q7 0 19 -11.5t16 -20.5
l-125 -464l-48 -257l49 -18v-50q-12 -1 -32 -3.5t-41 -4t-36 -3t-18 -1.5t-10.5 9.5t-14.5 20t-7 13.5l90 264zM189 603h24l64 -317q1 -5 3.5 -35.5t5.5 -73.5t4 -87l-21 -12l-93 451q-2 11 3 32.5t10 41.5zM217 638l-20 34q27 18 40.5 37t13.5 34q0 14 -10.5 22.5
t-31.5 8.5q-6 0 -12 -0.5t-13 -2.5l-11 50q15 5 31 7.5t29 2.5q44 0 69 -21t25 -54v-10t-2 -10q-1 -11 -14.5 -28t-37 -35.5t-56.5 -34.5z" />
    <glyph glyph-name="uni0232" unicode="&#x232;" horiz-adv-x="447" 
d="M157 55q-3 2 -12.5 10t-17.5 17.5t-10 15.5l-105 437l-42 31l16 46q20 -1 40.5 -3.5t37.5 -5.5t25 -6q6 -6 11.5 -14.5t8.5 -15.5l91 -439l87 -28l-32 -69q-8 1 -28 5.5t-40 10t-30 8.5zM355 543l-58 15v38q20 3 39 6t34.5 5t27 3.5t17.5 1.5q7 0 19 -11.5t16 -20.5
l-125 -464l-48 -257l49 -18v-50q-12 -1 -32 -3.5t-41 -4t-36 -3t-18 -1.5t-10.5 9.5t-14.5 20t-7 13.5l90 264zM189 603h24l64 -317q1 -5 3.5 -35.5t5.5 -73.5t4 -87l-21 -12l-93 451q-2 11 3 32.5t10 41.5zM92 664v62h285v-62h-285z" />
    <glyph glyph-name="uni1EF8" unicode="&#x1ef8;" horiz-adv-x="447" 
d="M157 55q-3 2 -12.5 10t-17.5 17.5t-10 15.5l-105 437l-42 31l16 46q20 -1 40.5 -3.5t37.5 -5.5t25 -6q6 -6 11.5 -14.5t8.5 -15.5l91 -439l87 -28l-32 -69q-8 1 -28 5.5t-40 10t-30 8.5zM355 543l-58 15v38q20 3 39 6t34.5 5t27 3.5t17.5 1.5q7 0 19 -11.5t16 -20.5
l-125 -464l-48 -257l49 -18v-50q-12 -1 -32 -3.5t-41 -4t-36 -3t-18 -1.5t-10.5 9.5t-14.5 20t-7 13.5l90 264zM189 603h24l64 -317q1 -5 3.5 -35.5t5.5 -73.5t4 -87l-21 -12l-93 451q-2 11 3 32.5t10 41.5zM295 657q-26 0 -51.5 9.5t-45.5 18.5t-30 9q-5 0 -16.5 -7
t-23 -15.5t-15.5 -11.5l-32 27q6 8 17 21t24.5 26t26 22t21.5 9q20 0 47.5 -10t51.5 -20.5t34 -10.5q8 0 24.5 13.5t24.5 23.5l34 -29q-6 -8 -17 -20.5t-24.5 -25t-27 -21t-22.5 -8.5z" />
    <glyph glyph-name="Z" unicode="Z" horiz-adv-x="502" 
d="M395 578l-334 -578l-27 9q-2 20 -2 41t1.5 39.5t4 32.5t6.5 21l224 397l-172 14l-9 -126h-55l-13 175q34 1 75 2t84 2.5t82 2.5t68.5 1.5t43.5 0.5q5 0 13.5 -12t9.5 -22zM137 25l334 578l27 -9q-2 -14 -7 -35t-11 -39.5t-11 -27.5l-246 -427l182 -16l12 135h54l11 -184
q-44 -1 -93.5 -2.5t-95.5 -3t-82 -2.5t-53 -1q-5 0 -12 12t-9 22zM333 355l134 14l-8 -78l-126 4v60zM198 301l-162 -27l7 84l155 1v-58z" />
    <glyph glyph-name="Zacute" unicode="&#x179;" horiz-adv-x="502" 
d="M395 578l-334 -578l-27 9q-2 20 -2 41t1.5 39.5t4 32.5t6.5 21l224 397l-172 14l-9 -126h-55l-13 175q34 1 75 2t84 2.5t82 2.5t68.5 1.5t43.5 0.5q5 0 13.5 -12t9.5 -22zM137 25l334 578l27 -9q-2 -14 -7 -35t-11 -39.5t-11 -27.5l-246 -427l182 -16l12 135h54l11 -184
q-44 -1 -93.5 -2.5t-95.5 -3t-82 -2.5t-53 -1q-5 0 -12 12t-9 22zM333 355l134 14l-8 -78l-126 4v60zM198 301l-162 -27l7 84l155 1v-58zM197 660l-15 36l163 94l40 -60l-4 -26q-25 -6 -57 -14t-64.5 -15.5t-62.5 -14.5z" />
    <glyph glyph-name="Zcaron" unicode="&#x17d;" horiz-adv-x="502" 
d="M395 578l-334 -578l-27 9q-2 20 -2 41t1.5 39.5t4 32.5t6.5 21l224 397l-172 14l-9 -126h-55l-13 175q34 1 75 2t84 2.5t82 2.5t68.5 1.5t43.5 0.5q5 0 13.5 -12t9.5 -22zM137 25l334 578l27 -9q-2 -14 -7 -35t-11 -39.5t-11 -27.5l-246 -427l182 -16l12 135h54l11 -184
q-44 -1 -93.5 -2.5t-95.5 -3t-82 -2.5t-53 -1q-5 0 -12 12t-9 22zM333 355l134 14l-8 -78l-126 4v60zM198 301l-162 -27l7 84l155 1v-58zM215 644l-98 136l28 25l99 -84h8l99 84l28 -25l-98 -136h-66z" />
    <glyph glyph-name="Zdotaccent" unicode="&#x17b;" horiz-adv-x="502" 
d="M395 578l-334 -578l-27 9q-2 20 -2 41t1.5 39.5t4 32.5t6.5 21l224 397l-172 14l-9 -126h-55l-13 175q34 1 75 2t84 2.5t82 2.5t68.5 1.5t43.5 0.5q5 0 13.5 -12t9.5 -22zM137 25l334 578l27 -9q-2 -14 -7 -35t-11 -39.5t-11 -27.5l-246 -427l182 -16l12 135h54l11 -184
q-44 -1 -93.5 -2.5t-95.5 -3t-82 -2.5t-53 -1q-5 0 -12 12t-9 22zM333 355l134 14l-8 -78l-126 4v60zM198 301l-162 -27l7 84l155 1v-58zM195 741q0 2 7.5 8t17.5 13.5t18.5 12.5t10.5 5q3 0 11.5 -6.5t17.5 -15.5t15 -17.5t5 -12.5l-4 -18q-1 -3 -8 -9t-17 -13t-18 -12
t-11 -5q-4 0 -12 6.5t-16.5 16t-14 17.5t-5.5 11z" />
    <glyph glyph-name="Cacute.loclPLK" horiz-adv-x="447" 
d="M162 544q-6 -36 -11.5 -69.5t-8.5 -72t-3 -90.5q0 -101 17.5 -154.5t47 -73t63.5 -19.5l140 1v-52q-13 -4 -41.5 -8t-60 -7.5t-55.5 -5.5t-30 -2q-44 0 -85.5 30t-68 93.5t-26.5 162.5q0 69 8.5 126t21.5 91q11 16 29 34.5t37 34.5zM204 63v460q0 11 8.5 35t18.5 51h25
v-489q0 -6 -5 -21.5t-16 -35.5h-31zM409 429h-54l-12 102q-12 3 -30 6t-34.5 5t-27.5 2q-10 0 -17.5 -0.5t-12.5 -1.5l10 67q5 2 8 2.5t7 0.5q10 0 40.5 -1.5t67.5 -3.5t67 -5zM251 653l-34 30l88 140l65 -39l11 -37q-31 -23 -64.5 -47.5t-65.5 -46.5z" />
    <glyph glyph-name="Nacute.loclPLK" horiz-adv-x="586" 
d="M92 543l-62 15v39q12 2 31 4.5t39 5t35 4t18 1.5t11 -7t14.5 -15.5t6.5 -11.5v-519l86 -15l-19 -37q-10 -1 -30.5 -4t-41.5 -5.5t-36.5 -4.5t-17.5 -2q-3 0 -11 7t-15.5 15t-7.5 11v519zM412 25v442q0 28 -6 43t-19 21t-34 6q-12 0 -25 -4.5t-25.5 -12t-24.5 -16.5
l-38 39q13 8 30.5 19.5t35.5 22.5t31.5 18.5t17.5 8.5q27 2 59.5 -3t53.5 -18q16 -19 26.5 -52t10.5 -78v-401l62 -15v-39q-12 -2 -31 -4.5t-39 -5t-35 -4t-18 -1.5t-11 7.5t-14.5 15.5t-6.5 11zM292 543v-442q0 -6 -5 -21.5t-16 -35.5h-31v499h52zM308 653l-34 30l88 140
l65 -39l11 -37q-31 -23 -64.5 -47.5t-65.5 -46.5z" />
    <glyph glyph-name="Oacute.loclPLK" horiz-adv-x="542" 
d="M162 545q-6 -35 -11.5 -69t-8.5 -75t-3 -98q0 -72 8 -120.5t26 -77.5t49 -41.5t76 -12.5q8 0 28 9t38 19.5t20 14.5q5 22 9.5 50.5t7 66.5t2.5 89q0 79 -12.5 135t-43 85.5t-85.5 29.5h-8t-10 -1l-13 60q4 2 8.5 2.5t6.5 0.5q81 0 138.5 -30.5t87.5 -95t30 -168.5
q0 -69 -8 -122.5t-17 -87.5q-13 -17 -36.5 -37.5t-50.5 -38.5t-50 -29.5t-34 -11.5q-66 0 -116 17t-83 52.5t-50 91t-17 131.5q0 69 8.5 123.5t21.5 88.5q11 17 29 35t37 34zM231 609h25v-508q0 -6 -5 -21.5t-16 -35.5h-31v479q0 11 8.5 35t18.5 51zM266 653l-34 30l88 140
l65 -39l11 -37q-31 -23 -64.5 -47.5t-65.5 -46.5z" />
    <glyph glyph-name="Sacute.loclPLK" horiz-adv-x="506" 
d="M49 1l7 183h56l16 -106q20 -4 44.5 -9t49 -9.5t43.5 -7t27 -2.5q5 0 19.5 8t31.5 19.5t30.5 23.5t14.5 20q2 11 3 25.5t1 29t-1.5 25.5t-4.5 14q-8 11 -32.5 28t-56 37.5t-63 41.5t-55 40t-31.5 33q-2 5 -4.5 19.5t-3.5 34t-2 37.5q-18 -14 -27.5 -24.5t-13 -20.5
t-3.5 -24q0 -16 2.5 -27.5t6.5 -21.5q10 -19 31 -34l56 -40q23 -16 47 -32.5t45.5 -32t36.5 -28t19 -21.5q5 -10 4.5 -22.5t-2.5 -20.5q-4 -9 -20.5 -20.5t-30.5 -18.5q1 12 1.5 24t0 22t-4.5 15q-8 11 -32.5 29t-56.5 39t-63.5 43t-54 42.5t-26.5 35.5q-3 11 -5 25.5
t-2 30.5t1.5 30.5t4.5 24.5q9 17 29 37.5t45.5 41t52 37t50 26.5t38.5 10q6 0 21.5 -0.5t37 -2t45 -3.5t45.5 -5t39 -6l-8 -172h-56l-15 102q-15 7 -35.5 12.5t-40.5 8.5t-34 3q-8 0 -14 -1.5t-9.5 -3.5t-5.5 -6q-4 -7 -5.5 -22t-1 -31.5t2.5 -30t6 -17.5q12 -13 33.5 -28
t48 -31t54 -33.5t51 -36t39.5 -36.5q3 -12 4.5 -34t1.5 -46.5t-1.5 -45.5t-4.5 -31q-9 -19 -31 -40.5t-49.5 -40.5t-52.5 -30.5t-40 -11.5q-19 0 -50.5 1t-67.5 2.5t-69 3t-56 3.5zM269 653l-34 30l88 140l65 -39l11 -37q-31 -23 -64.5 -47.5t-65.5 -46.5z" />
    <glyph glyph-name="Zacute.loclPLK" horiz-adv-x="502" 
d="M395 578l-334 -578l-27 9q-2 20 -2 41t1.5 39.5t4 32.5t6.5 21l224 397l-172 14l-9 -126h-55l-13 175q34 1 75 2t84 2.5t82 2.5t68.5 1.5t43.5 0.5q5 0 13.5 -12t9.5 -22zM137 25l334 578l27 -9q-2 -14 -7 -35t-11 -39.5t-11 -27.5l-246 -427l182 -16l12 135h54l11 -184
q-44 -1 -93.5 -2.5t-95.5 -3t-82 -2.5t-53 -1q-5 0 -12 12t-9 22zM333 355l134 14l-8 -78l-126 4v60zM198 301l-162 -27l7 84l155 1v-58zM239 653l-34 30l88 140l65 -39l11 -37q-31 -23 -64.5 -47.5t-65.5 -46.5z" />
    <glyph glyph-name="A.ss01" horiz-adv-x="575" 
d="M6 0v38l62 20q5 18 17 57.5t27.5 91.5t32.5 109.5t33 112.5t29.5 99t20.5 68q14 2 32.5 4.5t36 4.5t29 3.5t12.5 1.5q3 0 9.5 -4l6.5 -4l163 -544l62 -20v-38h-229v43l68 20l-39 139h-186l-37 -139l71 -20v-43h-221zM208 255h156q-9 30 -19.5 68.5l-21 77t-18.5 71
t-13 51.5h-12q-5 -20 -17 -62.5t-26 -96.5t-29 -109z" />
    <glyph glyph-name="Aacute.ss01" horiz-adv-x="575" 
d="M6 0v38l62 20q5 18 17 57.5t27.5 91.5t32.5 109.5t33 112.5t29.5 99t20.5 68q14 2 32.5 4.5t36 4.5t29 3.5t12.5 1.5q3 0 9.5 -4l6.5 -4l163 -544l62 -20v-38h-229v43l68 20l-39 139h-186l-37 -139l71 -20v-43h-221zM208 255h156q-9 30 -19.5 68.5l-21 77t-18.5 71
t-13 51.5h-12q-5 -20 -17 -62.5t-26 -96.5t-29 -109zM240 660l-15 36l163 94l40 -60l-4 -26q-25 -6 -57 -14t-64.5 -15.5t-62.5 -14.5z" />
    <glyph glyph-name="Abreve.ss01" horiz-adv-x="575" 
d="M6 0v38l62 20q5 18 17 57.5t27.5 91.5t32.5 109.5t33 112.5t29.5 99t20.5 68q14 2 32.5 4.5t36 4.5t29 3.5t12.5 1.5q3 0 9.5 -4l6.5 -4l163 -544l62 -20v-38h-229v43l68 20l-39 139h-186l-37 -139l71 -20v-43h-221zM208 255h156q-9 30 -19.5 68.5l-21 77t-18.5 71
t-13 51.5h-12q-5 -20 -17 -62.5t-26 -96.5t-29 -109zM289 662q-32 0 -62 16.5t-52 40t-32 43.5l28 25q25 -25 53.5 -42.5t64.5 -17.5t64.5 17.5t53.5 42.5l28 -25q-10 -20 -32 -43.5t-51.5 -40t-62.5 -16.5z" />
    <glyph glyph-name="uni1EAE.ss01" horiz-adv-x="575" 
d="M6 0v38l62 20q5 18 17 57.5t27.5 91.5t32.5 109.5t33 112.5t29.5 99t20.5 68q14 2 32.5 4.5t36 4.5t29 3.5t12.5 1.5q3 0 9.5 -4l6.5 -4l163 -544l62 -20v-38h-229v43l68 20l-39 139h-186l-37 -139l71 -20v-43h-221zM208 255h156q-9 30 -19.5 68.5l-21 77t-18.5 71
t-13 51.5h-12q-5 -20 -17 -62.5t-26 -96.5t-29 -109zM289 657q-32 0 -62 16.5t-52 40t-32 43.5l28 25q25 -25 53.5 -42.5t64.5 -17.5t64.5 17.5t53.5 42.5l28 -25q-10 -20 -32 -43.5t-51.5 -40t-62.5 -16.5zM256 779l-23 30l96 102l49 -50v-25q-33 -17 -60 -29t-62 -28z" />
    <glyph glyph-name="uni1EB6.ss01" horiz-adv-x="575" 
d="M6 0v38l62 20q5 18 17 57.5t27.5 91.5t32.5 109.5t33 112.5t29.5 99t20.5 68q14 2 32.5 4.5t36 4.5t29 3.5t12.5 1.5q3 0 9.5 -4l6.5 -4l163 -544l62 -20v-38h-229v43l68 20l-39 139h-186l-37 -139l71 -20v-43h-221zM208 255h156q-9 30 -19.5 68.5l-21 77t-18.5 71
t-13 51.5h-12q-5 -20 -17 -62.5t-26 -96.5t-29 -109zM189 -121q0 2 7.5 8t17.5 13.5t18.5 12.5t10.5 5q3 0 11.5 -6.5t17.5 -15.5t15 -17.5t5 -12.5l-4 -18q0 -3 -7.5 -9t-17.5 -13t-18 -12t-11 -5q-4 0 -12 6.5t-16.5 16t-14 17.5t-5.5 11zM289 662q-32 0 -62 16.5t-52 40
t-32 43.5l28 25q25 -25 53.5 -42.5t64.5 -17.5t64.5 17.5t53.5 42.5l28 -25q-10 -20 -32 -43.5t-51.5 -40t-62.5 -16.5z" />
    <glyph glyph-name="uni1EB0.ss01" horiz-adv-x="575" 
d="M6 0v38l62 20q5 18 17 57.5t27.5 91.5t32.5 109.5t33 112.5t29.5 99t20.5 68q14 2 32.5 4.5t36 4.5t29 3.5t12.5 1.5q3 0 9.5 -4l6.5 -4l163 -544l62 -20v-38h-229v43l68 20l-39 139h-186l-37 -139l71 -20v-43h-221zM208 255h156q-9 30 -19.5 68.5l-21 77t-18.5 71
t-13 51.5h-12q-5 -20 -17 -62.5t-26 -96.5t-29 -109zM289 657q-32 0 -62 16.5t-52 40t-32 43.5l28 25q25 -25 53.5 -42.5t64.5 -17.5t64.5 17.5t53.5 42.5l28 -25q-10 -20 -32 -43.5t-51.5 -40t-62.5 -16.5zM322 779q-35 16 -62 28t-60 29v25l49 50l96 -102z" />
    <glyph glyph-name="uni1EB2.ss01" horiz-adv-x="575" 
d="M6 0v38l62 20q5 18 17 57.5t27.5 91.5t32.5 109.5t33 112.5t29.5 99t20.5 68q14 2 32.5 4.5t36 4.5t29 3.5t12.5 1.5q3 0 9.5 -4l6.5 -4l163 -544l62 -20v-38h-229v43l68 20l-39 139h-186l-37 -139l71 -20v-43h-221zM208 255h156q-9 30 -19.5 68.5l-21 77t-18.5 71
t-13 51.5h-12q-5 -20 -17 -62.5t-26 -96.5t-29 -109zM289 647q-32 0 -62 16.5t-52 40t-32 43.5l28 25q25 -25 53.5 -42.5t64.5 -17.5t64.5 17.5t53.5 42.5l28 -25q-10 -20 -32 -43.5t-51.5 -40t-62.5 -16.5zM276 765l-17 28q23 15 33.5 30.5t10.5 27.5q0 11 -8.5 18t-25.5 7
q-4 0 -9.5 -0.5t-10.5 -1.5l-9 42q26 8 46 8q38 0 60 -21t18 -57q-2 -14 -25 -37.5t-63 -43.5z" />
    <glyph glyph-name="uni1EB4.ss01" horiz-adv-x="575" 
d="M6 0v38l62 20q5 18 17 57.5t27.5 91.5t32.5 109.5t33 112.5t29.5 99t20.5 68q14 2 32.5 4.5t36 4.5t29 3.5t12.5 1.5q3 0 9.5 -4l6.5 -4l163 -544l62 -20v-38h-229v43l68 20l-39 139h-186l-37 -139l71 -20v-43h-221zM208 255h156q-9 30 -19.5 68.5l-21 77t-18.5 71
t-13 51.5h-12q-5 -20 -17 -62.5t-26 -96.5t-29 -109zM289 654q-32 0 -62 16.5t-52 40t-32 43.5l28 25q25 -25 53.5 -42.5t64.5 -17.5t64.5 17.5t53.5 42.5l28 -25q-10 -20 -32 -43.5t-51.5 -40t-62.5 -16.5zM350 807q-26 0 -51.5 9.5t-45.5 18.5t-30 9q-5 0 -16.5 -7
t-23 -15.5t-15.5 -11.5l-32 27q6 8 17 21t24.5 26t26 22t21.5 9q20 0 47.5 -10t51.5 -20.5t34 -10.5q8 0 24.5 13.5t24.5 23.5l34 -29q-6 -8 -17 -20.5t-24.5 -25t-27 -21t-22.5 -8.5z" />
    <glyph glyph-name="uni01CD.ss01" horiz-adv-x="575" 
d="M6 0v38l62 20q5 18 17 57.5t27.5 91.5t32.5 109.5t33 112.5t29.5 99t20.5 68q14 2 32.5 4.5t36 4.5t29 3.5t12.5 1.5q3 0 9.5 -4l6.5 -4l163 -544l62 -20v-38h-229v43l68 20l-39 139h-186l-37 -139l71 -20v-43h-221zM208 255h156q-9 30 -19.5 68.5l-21 77t-18.5 71
t-13 51.5h-12q-5 -20 -17 -62.5t-26 -96.5t-29 -109zM258 644l-98 136l28 25l99 -84h8l99 84l28 -25l-98 -136h-66z" />
    <glyph glyph-name="Acircumflex.ss01" horiz-adv-x="575" 
d="M6 0v38l62 20q5 18 17 57.5t27.5 91.5t32.5 109.5t33 112.5t29.5 99t20.5 68q14 2 32.5 4.5t36 4.5t29 3.5t12.5 1.5q3 0 9.5 -4l6.5 -4l163 -544l62 -20v-38h-229v43l68 20l-39 139h-186l-37 -139l71 -20v-43h-221zM208 255h156q-9 30 -19.5 68.5l-21 77t-18.5 71
t-13 51.5h-12q-5 -20 -17 -62.5t-26 -96.5t-29 -109zM188 658l-30 30l103 104h56l103 -104l-30 -30l-96 64h-11z" />
    <glyph glyph-name="uni1EA4.ss01" horiz-adv-x="575" 
d="M6 0v38l62 20q5 18 17 57.5t27.5 91.5t32.5 109.5t33 112.5t29.5 99t20.5 68q14 2 32.5 4.5t36 4.5t29 3.5t12.5 1.5q3 0 9.5 -4l6.5 -4l163 -544l62 -20v-38h-229v43l68 20l-39 139h-186l-37 -139l71 -20v-43h-221zM208 255h156q-9 30 -19.5 68.5l-21 77t-18.5 71
t-13 51.5h-12q-5 -20 -17 -62.5t-26 -96.5t-29 -109zM182 664l-23 30l96 91h66l96 -91l-23 -30l-102 44h-8zM233 791l-21 32l100 91l44 -54l-2 -25q-34 -14 -59.5 -22.5t-61.5 -21.5z" />
    <glyph glyph-name="uni1EAC.ss01" horiz-adv-x="575" 
d="M6 0v38l62 20q5 18 17 57.5t27.5 91.5t32.5 109.5t33 112.5t29.5 99t20.5 68q14 2 32.5 4.5t36 4.5t29 3.5t12.5 1.5q3 0 9.5 -4l6.5 -4l163 -544l62 -20v-38h-229v43l68 20l-39 139h-186l-37 -139l71 -20v-43h-221zM208 255h156q-9 30 -19.5 68.5l-21 77t-18.5 71
t-13 51.5h-12q-5 -20 -17 -62.5t-26 -96.5t-29 -109zM188 658l-30 30l103 104h56l103 -104l-30 -30l-96 64h-11zM189 -121q0 2 7.5 8t17.5 13.5t18.5 12.5t10.5 5q3 0 11.5 -6.5t17.5 -15.5t15 -17.5t5 -12.5l-4 -18q0 -3 -7.5 -9t-17.5 -13t-18 -12t-11 -5q-4 0 -12 6.5
t-16.5 16t-14 17.5t-5.5 11z" />
    <glyph glyph-name="uni1EA6.ss01" horiz-adv-x="575" 
d="M6 0v38l62 20q5 18 17 57.5t27.5 91.5t32.5 109.5t33 112.5t29.5 99t20.5 68q14 2 32.5 4.5t36 4.5t29 3.5t12.5 1.5q3 0 9.5 -4l6.5 -4l163 -544l62 -20v-38h-229v43l68 20l-39 139h-186l-37 -139l71 -20v-43h-221zM208 255h156q-9 30 -19.5 68.5l-21 77t-18.5 71
t-13 51.5h-12q-5 -20 -17 -62.5t-26 -96.5t-29 -109zM182 664l-23 30l96 91h66l96 -91l-23 -30l-102 44h-8zM343 791q-36 13 -61 21.5t-60 22.5l-2 25l44 54l100 -91z" />
    <glyph glyph-name="uni1EA8.ss01" horiz-adv-x="575" 
d="M6 0v38l62 20q5 18 17 57.5t27.5 91.5t32.5 109.5t33 112.5t29.5 99t20.5 68q14 2 32.5 4.5t36 4.5t29 3.5t12.5 1.5q3 0 9.5 -4l6.5 -4l163 -544l62 -20v-38h-229v43l68 20l-39 139h-186l-37 -139l71 -20v-43h-221zM208 255h156q-9 30 -19.5 68.5l-21 77t-18.5 71
t-13 51.5h-12q-5 -20 -17 -62.5t-26 -96.5t-29 -109zM275 807l-17 28q23 15 33.5 30.5t10.5 27.5q0 11 -8.5 18t-25.5 7q-4 0 -9.5 -0.5t-10.5 -1.5l-9 42q26 8 46 8q38 0 60 -21t18 -57q-2 -14 -25 -37.5t-63 -43.5zM182 664l-23 30l96 91h66l96 -91l-23 -30l-102 44h-8z
" />
    <glyph glyph-name="uni1EAA.ss01" horiz-adv-x="575" 
d="M6 0v38l62 20q5 18 17 57.5t27.5 91.5t32.5 109.5t33 112.5t29.5 99t20.5 68q14 2 32.5 4.5t36 4.5t29 3.5t12.5 1.5q3 0 9.5 -4l6.5 -4l163 -544l62 -20v-38h-229v43l68 20l-39 139h-186l-37 -139l71 -20v-43h-221zM208 255h156q-9 30 -19.5 68.5l-21 77t-18.5 71
t-13 51.5h-12q-5 -20 -17 -62.5t-26 -96.5t-29 -109zM255 802h66l98 -136l-28 -25l-99 84h-8l-99 -84l-28 25zM349 841q-26 0 -51.5 9.5t-45.5 18.5t-30 9q-5 0 -16.5 -7t-23 -15.5t-15.5 -11.5l-32 27q6 8 17 21t24.5 26t26 22t21.5 9q20 0 47.5 -10t51.5 -20.5t34 -10.5
q8 0 24.5 13.5t24.5 23.5l34 -29q-6 -8 -17 -20.5t-24.5 -25t-27 -21t-22.5 -8.5z" />
    <glyph glyph-name="uni0200.ss01" horiz-adv-x="575" 
d="M6 0v38l62 20q5 18 17 57.5t27.5 91.5t32.5 109.5t33 112.5t29.5 99t20.5 68q14 2 32.5 4.5t36 4.5t29 3.5t12.5 1.5q3 0 9.5 -4l6.5 -4l163 -544l62 -20v-38h-229v43l68 20l-39 139h-186l-37 -139l71 -20v-43h-221zM208 255h156q-9 30 -19.5 68.5l-21 77t-18.5 71
t-13 51.5h-12q-5 -20 -17 -62.5t-26 -96.5t-29 -109zM423 663q-43 14 -85.5 32t-79.5 31l-5 24l43 57l145 -110zM229 666q-43 12 -86 29t-81 28l-5 24l40 58l149 -105z" />
    <glyph glyph-name="Adieresis.ss01" horiz-adv-x="575" 
d="M6 0v38l62 20q5 18 17 57.5t27.5 91.5t32.5 109.5t33 112.5t29.5 99t20.5 68q14 2 32.5 4.5t36 4.5t29 3.5t12.5 1.5q3 0 9.5 -4l6.5 -4l163 -544l62 -20v-38h-229v43l68 20l-39 139h-186l-37 -139l71 -20v-43h-221zM208 255h156q-9 30 -19.5 68.5l-21 77t-18.5 71
t-13 51.5h-12q-5 -20 -17 -62.5t-26 -96.5t-29 -109zM328 736q0 2 7.5 8t17.5 13.5t18.5 12.5t10.5 5q3 0 11.5 -6.5t17.5 -15.5t15 -17.5t5 -12.5l-4 -18q-1 -3 -8 -9t-17 -13t-18 -12t-11 -5q-4 0 -12 6.5t-16.5 16t-14 17.5t-5.5 11zM152 736q0 2 7.5 8t17.5 13.5
t18.5 12.5t10.5 5q3 0 11.5 -6.5t17.5 -15.5t15 -17.5t5 -12.5l-4 -18q-1 -3 -8 -9t-17 -13t-18 -12t-11 -5q-4 0 -12 6.5t-16.5 16t-14 17.5t-5.5 11z" />
    <glyph glyph-name="uni1EA0.ss01" horiz-adv-x="575" 
d="M6 0v38l62 20q5 18 17 57.5t27.5 91.5t32.5 109.5t33 112.5t29.5 99t20.5 68q14 2 32.5 4.5t36 4.5t29 3.5t12.5 1.5q3 0 9.5 -4l6.5 -4l163 -544l62 -20v-38h-229v43l68 20l-39 139h-186l-37 -139l71 -20v-43h-221zM208 255h156q-9 30 -19.5 68.5l-21 77t-18.5 71
t-13 51.5h-12q-5 -20 -17 -62.5t-26 -96.5t-29 -109zM189 -121q0 2 7.5 8t17.5 13.5t18.5 12.5t10.5 5q3 0 11.5 -6.5t17.5 -15.5t15 -17.5t5 -12.5l-4 -18q0 -3 -7.5 -9t-17.5 -13t-18 -12t-11 -5q-4 0 -12 6.5t-16.5 16t-14 17.5t-5.5 11z" />
    <glyph glyph-name="Agrave.ss01" horiz-adv-x="575" 
d="M6 0v38l62 20q5 18 17 57.5t27.5 91.5t32.5 109.5t33 112.5t29.5 99t20.5 68q14 2 32.5 4.5t36 4.5t29 3.5t12.5 1.5q3 0 9.5 -4l6.5 -4l163 -544l62 -20v-38h-229v43l68 20l-39 139h-186l-37 -139l71 -20v-43h-221zM208 255h156q-9 30 -19.5 68.5l-21 77t-18.5 71
t-13 51.5h-12q-5 -20 -17 -62.5t-26 -96.5t-29 -109zM349 660q-29 7 -62 14.5t-64.5 15.5t-57.5 14l-4 26l40 60l163 -94z" />
    <glyph glyph-name="uni1EA2.ss01" horiz-adv-x="575" 
d="M6 0v38l62 20q5 18 17 57.5t27.5 91.5t32.5 109.5t33 112.5t29.5 99t20.5 68q14 2 32.5 4.5t36 4.5t29 3.5t12.5 1.5q3 0 9.5 -4l6.5 -4l163 -544l62 -20v-38h-229v43l68 20l-39 139h-186l-37 -139l71 -20v-43h-221zM208 255h156q-9 30 -19.5 68.5l-21 77t-18.5 71
t-13 51.5h-12q-5 -20 -17 -62.5t-26 -96.5t-29 -109zM275 638l-20 34q27 18 40.5 37t13.5 34q0 14 -10.5 22.5t-31.5 8.5q-6 0 -12 -0.5t-13 -2.5l-11 50q15 5 31 7.5t29 2.5q44 0 69 -21t25 -54v-10t-2 -10q-1 -11 -14.5 -28t-37 -35.5t-56.5 -34.5z" />
    <glyph glyph-name="uni0202.ss01" horiz-adv-x="575" 
d="M6 0v38l62 20q5 18 17 57.5t27.5 91.5t32.5 109.5t33 112.5t29.5 99t20.5 68q14 2 32.5 4.5t36 4.5t29 3.5t12.5 1.5q3 0 9.5 -4l6.5 -4l163 -544l62 -20v-38h-229v43l68 20l-39 139h-186l-37 -139l71 -20v-43h-221zM208 255h156q-9 30 -19.5 68.5l-21 77t-18.5 71
t-13 51.5h-12q-5 -20 -17 -62.5t-26 -96.5t-29 -109zM289 787q33 0 62.5 -16.5t51.5 -40t32 -43.5l-28 -25q-25 26 -53.5 43t-64.5 17t-64.5 -17t-53.5 -43l-28 25q10 20 32 43.5t52 40t62 16.5z" />
    <glyph glyph-name="Amacron.ss01" horiz-adv-x="575" 
d="M6 0v38l62 20q5 18 17 57.5t27.5 91.5t32.5 109.5t33 112.5t29.5 99t20.5 68q14 2 32.5 4.5t36 4.5t29 3.5t12.5 1.5q3 0 9.5 -4l6.5 -4l163 -544l62 -20v-38h-229v43l68 20l-39 139h-186l-37 -139l71 -20v-43h-221zM208 255h156q-9 30 -19.5 68.5l-21 77t-18.5 71
t-13 51.5h-12q-5 -20 -17 -62.5t-26 -96.5t-29 -109zM150 664v62h285v-62h-285z" />
    <glyph glyph-name="Aogonek.ss01" horiz-adv-x="575" 
d="M6 0v38l62 20q5 18 17 57.5t27.5 91.5t32.5 109.5t33 112.5t29.5 99t20.5 68q14 2 32.5 4.5t36 4.5t29 3.5t12.5 1.5q3 0 9.5 -4l6.5 -4l163 -544l62 -20v-38h-229v43l68 20l-39 139h-186l-37 -139l71 -20v-43h-221zM208 255h156q-9 30 -19.5 68.5l-21 77t-18.5 71
t-13 51.5h-12q-5 -20 -17 -62.5t-26 -96.5t-29 -109zM450 -229q-19 0 -37 15t-30 38t-12 46q0 8 1 19t5 27q19 18 47 38.5t56 39t47 30.5l22 -24q-22 -21 -46.5 -44.5t-41.5 -42t-17 -24.5q0 -34 7.5 -50t20.5 -16h69v-33q-3 -1 -23 -5.5t-40.5 -9t-27.5 -4.5z" />
    <glyph glyph-name="Aring.ss01" horiz-adv-x="575" 
d="M6 0v38l62 20q5 18 17 57.5t27.5 91.5t32.5 109.5t33 112.5t29.5 99t20.5 68q14 2 32.5 4.5t36 4.5t29 3.5t12.5 1.5q3 0 9.5 -4l6.5 -4l163 -544l62 -20v-38h-229v43l68 20l-39 139h-186l-37 -139l71 -20v-43h-221zM208 255h156q-9 30 -19.5 68.5l-21 77t-18.5 71
t-13 51.5h-12q-5 -20 -17 -62.5t-26 -96.5t-29 -109zM289 655q-49 0 -75.5 24t-26.5 81q0 48 27.5 75t76.5 27q50 0 77.5 -24t27.5 -81q0 -48 -28.5 -75t-78.5 -27zM289 696q13 0 23 3.5t19 7.5q2 8 3 20.5t1 28.5q0 40 -10.5 52.5t-33.5 12.5q-13 0 -21.5 -3t-17.5 -8
q-1 -8 -2.5 -20.5t-1.5 -28.5q0 -40 9.5 -52.5t31.5 -12.5z" />
    <glyph glyph-name="Aringacute.ss01" horiz-adv-x="575" 
d="M6 0v38l62 20q5 18 17 57.5t27.5 91.5t32.5 109.5t33 112.5t29.5 99t20.5 68q14 2 32.5 4.5t36 4.5t29 3.5t12.5 1.5q3 0 9.5 -4l6.5 -4l163 -544l62 -20v-38h-229v43l68 20l-39 139h-186l-37 -139l71 -20v-43h-221zM208 255h156q-9 30 -19.5 68.5l-21 77t-18.5 71
t-13 51.5h-12q-5 -20 -17 -62.5t-26 -96.5t-29 -109zM288 655q-43 0 -65.5 20.5t-22.5 69.5q0 42 23.5 65t66.5 23q42 0 66 -20.5t24 -69.5q0 -41 -24.5 -64.5t-67.5 -23.5zM288 693q10 0 18.5 2.5t15.5 6.5q2 7 2.5 17t0.5 23q0 33 -8.5 43t-26.5 10q-10 0 -17.5 -2
t-14.5 -7q-3 -13 -3 -40q0 -32 7 -42.5t26 -10.5zM235 855l-16 31l145 98l37 -54l-5 -23q-34 -11 -77 -25t-84 -27z" />
    <glyph glyph-name="Atilde.ss01" horiz-adv-x="575" 
d="M6 0v38l62 20q5 18 17 57.5t27.5 91.5t32.5 109.5t33 112.5t29.5 99t20.5 68q14 2 32.5 4.5t36 4.5t29 3.5t12.5 1.5q3 0 9.5 -4l6.5 -4l163 -544l62 -20v-38h-229v43l68 20l-39 139h-186l-37 -139l71 -20v-43h-221zM208 255h156q-9 30 -19.5 68.5l-21 77t-18.5 71
t-13 51.5h-12q-5 -20 -17 -62.5t-26 -96.5t-29 -109zM353 657q-26 0 -51.5 9.5t-45.5 18.5t-30 9q-5 0 -16.5 -7t-23 -15.5t-15.5 -11.5l-32 27q6 8 17 21t24.5 26t26 22t21.5 9q20 0 47.5 -10t51.5 -20.5t34 -10.5q8 0 24.5 13.5t24.5 23.5l34 -29q-6 -8 -17 -20.5
t-24.5 -25t-27 -21t-22.5 -8.5z" />
    <glyph glyph-name="AE.ss01" horiz-adv-x="751" 
d="M6 0v38l62 20l215 487l-69 20v38h487l-13 -175h-54l-11 126l-150 -14v-198l139 -5v-47l-139 -5v-220l174 -16l16 130h54l4 -179h-403v38l62 20v145h-162l-60 -140l69 -20v-43h-221zM231 256h149v284h-23z" />
    <glyph glyph-name="AEacute.ss01" horiz-adv-x="751" 
d="M6 0v38l62 20l215 487l-69 20v38h487l-13 -175h-54l-11 126l-150 -14v-198l139 -5v-47l-139 -5v-220l174 -16l16 130h54l4 -179h-403v38l62 20v145h-162l-60 -140l69 -20v-43h-221zM231 256h149v284h-23zM400 707l-15 36l163 94l40 -60l-4 -26q-25 -6 -57 -14
t-64.5 -15.5t-62.5 -14.5z" />
    <glyph glyph-name="B.ss01" horiz-adv-x="511" 
d="M42 0v38l62 20v487l-62 20v38h247q74 0 114 -33t40 -123q0 -43 -16.5 -68.5t-37.5 -39t-36 -20.5v-6q57 -10 93.5 -46t36.5 -93q0 -67 -25 -105t-66 -53.5t-91 -15.5h-259zM197 61l132 -14q30 0 43 31t13 108q0 31 -6 48.5t-17 26t-26.5 10.5t-35.5 2h-103v-212zM197 330
h69q26 0 43.5 7.5t26.5 29.5t9 65q0 65 -9 94.5t-34 29.5l-105 -12v-214z" />
    <glyph glyph-name="C.ss01" horiz-adv-x="456" 
d="M239 612q8 0 29 -1t48.5 -2.5t56.5 -3t51 -3.5l-12 -173h-54l-12 102q-18 4 -42.5 6t-46.5 3.5t-33 1.5t-18.5 -1.5t-13.5 -4.5q-25 -13 -37.5 -73t-12.5 -151q0 -101 17.5 -154.5t47 -73t63.5 -19.5h72l17 127l51 -1l1 -177q-13 -4 -41.5 -8t-60.5 -7.5t-56 -5.5t-30 -2
q-44 0 -85.5 30t-68 93.5t-26.5 162.5q0 69 8.5 126t21.5 91q12 19 35 39.5t49 38.5t48.5 29t33.5 11z" />
    <glyph glyph-name="Cacute.ss01" horiz-adv-x="456" 
d="M239 612q8 0 29 -1t48.5 -2.5t56.5 -3t51 -3.5l-12 -173h-54l-12 102q-18 4 -42.5 6t-46.5 3.5t-33 1.5t-18.5 -1.5t-13.5 -4.5q-25 -13 -37.5 -73t-12.5 -151q0 -101 17.5 -154.5t47 -73t63.5 -19.5h72l17 127l51 -1l1 -177q-13 -4 -41.5 -8t-60.5 -7.5t-56 -5.5t-30 -2
q-44 0 -85.5 30t-68 93.5t-26.5 162.5q0 69 8.5 126t21.5 91q12 19 35 39.5t49 38.5t48.5 29t33.5 11zM212 660l-15 36l163 94l40 -60l-4 -26q-25 -6 -57 -14t-64.5 -15.5t-62.5 -14.5z" />
    <glyph glyph-name="Ccaron.ss01" horiz-adv-x="456" 
d="M239 612q8 0 29 -1t48.5 -2.5t56.5 -3t51 -3.5l-12 -173h-54l-12 102q-18 4 -42.5 6t-46.5 3.5t-33 1.5t-18.5 -1.5t-13.5 -4.5q-25 -13 -37.5 -73t-12.5 -151q0 -101 17.5 -154.5t47 -73t63.5 -19.5h72l17 127l51 -1l1 -177q-13 -4 -41.5 -8t-60.5 -7.5t-56 -5.5t-30 -2
q-44 0 -85.5 30t-68 93.5t-26.5 162.5q0 69 8.5 126t21.5 91q12 19 35 39.5t49 38.5t48.5 29t33.5 11zM230 644l-98 136l28 25l99 -84h8l99 84l28 -25l-98 -136h-66z" />
    <glyph glyph-name="Ccedilla.ss01" horiz-adv-x="456" 
d="M239 612q8 0 29 -1t48.5 -2.5t56.5 -3t51 -3.5l-12 -173h-54l-12 102q-18 4 -42.5 6t-46.5 3.5t-33 1.5t-18.5 -1.5t-13.5 -4.5q-25 -13 -37.5 -73t-12.5 -151q0 -101 17.5 -154.5t47 -73t63.5 -19.5h72l17 127l51 -1l1 -177q-13 -4 -41.5 -8t-60.5 -7.5t-56 -5.5t-30 -2
q-44 0 -85.5 30t-68 93.5t-26.5 162.5q0 69 8.5 126t21.5 91q12 19 35 39.5t49 38.5t48.5 29t33.5 11zM207 -218l-21 33q34 18 54.5 31t20.5 30q0 15 -21 23.5t-42 10.5l-6 24l27 77l42 -3l-7 -54q34 -4 61 -22.5t27 -42.5q0 -11 -2.5 -22.5t-7.5 -22.5q-7 -6 -20 -14
t-37.5 -19.5t-67.5 -28.5z" />
    <glyph glyph-name="Ccircumflex.ss01" horiz-adv-x="456" 
d="M239 612q8 0 29 -1t48.5 -2.5t56.5 -3t51 -3.5l-12 -173h-54l-12 102q-18 4 -42.5 6t-46.5 3.5t-33 1.5t-18.5 -1.5t-13.5 -4.5q-25 -13 -37.5 -73t-12.5 -151q0 -101 17.5 -154.5t47 -73t63.5 -19.5h72l17 127l51 -1l1 -177q-13 -4 -41.5 -8t-60.5 -7.5t-56 -5.5t-30 -2
q-44 0 -85.5 30t-68 93.5t-26.5 162.5q0 69 8.5 126t21.5 91q12 19 35 39.5t49 38.5t48.5 29t33.5 11zM160 658l-30 30l103 104h56l103 -104l-30 -30l-96 64h-11z" />
    <glyph glyph-name="Cdotaccent.ss01" horiz-adv-x="456" 
d="M239 612q8 0 29 -1t48.5 -2.5t56.5 -3t51 -3.5l-12 -173h-54l-12 102q-18 4 -42.5 6t-46.5 3.5t-33 1.5t-18.5 -1.5t-13.5 -4.5q-25 -13 -37.5 -73t-12.5 -151q0 -101 17.5 -154.5t47 -73t63.5 -19.5h72l17 127l51 -1l1 -177q-13 -4 -41.5 -8t-60.5 -7.5t-56 -5.5t-30 -2
q-44 0 -85.5 30t-68 93.5t-26.5 162.5q0 69 8.5 126t21.5 91q12 19 35 39.5t49 38.5t48.5 29t33.5 11zM210 741q0 2 7.5 8t17.5 13.5t18.5 12.5t10.5 5q3 0 11.5 -6.5t17.5 -15.5t15 -17.5t5 -12.5l-4 -18q-1 -3 -8 -9t-17 -13t-18 -12t-11 -5q-4 0 -12 6.5t-16.5 16
t-14 17.5t-5.5 11z" />
    <glyph glyph-name="D.ss01" horiz-adv-x="574" 
d="M42 0v38l62 20v487l-62 20v38h277q38 0 75.5 -14t68 -47t49 -88t18.5 -136q0 -166 -56.5 -242t-154.5 -76h-277zM197 63l141 -16q29 0 50 32.5t32 92t11 140.5q0 65 -11 120.5t-32 89.5t-50 34l-141 -14v-479z" />
    <glyph glyph-name="uni01C4.ss01" horiz-adv-x="1051" 
d="M42 0v38l62 20v487l-62 20v38h277q38 0 75.5 -14t68 -47t49 -88t18.5 -136q0 -166 -56.5 -242t-154.5 -76h-277zM197 63l141 -16q29 0 50 32.5t32 92t11 140.5q0 65 -11 120.5t-32 89.5t-50 34l-141 -14v-479zM620 0v38l259 502l-169 14l-9 -126h-55l-13 175h363v-38
l-257 -500l203 -16l12 135h54l11 -184h-399zM785 644l-98 136l28 25l99 -84h8l99 84l28 -25l-98 -136h-66z" />
    <glyph glyph-name="Eth.ss01" horiz-adv-x="574" 
d="M42 0v38l62 20v487l-62 20v38h277q38 0 75.5 -14t68 -47t49 -88t18.5 -136q0 -166 -56.5 -242t-154.5 -76h-277zM197 63l141 -16q29 0 50 32.5t32 92t11 140.5q0 65 -11 120.5t-32 89.5t-50 34l-141 -14v-479zM14 281v49h316l-1 -49h-315z" />
    <glyph glyph-name="Dcaron.ss01" horiz-adv-x="574" 
d="M42 0v38l62 20v487l-62 20v38h277q38 0 75.5 -14t68 -47t49 -88t18.5 -136q0 -166 -56.5 -242t-154.5 -76h-277zM197 63l141 -16q29 0 50 32.5t32 92t11 140.5q0 65 -11 120.5t-32 89.5t-50 34l-141 -14v-479zM256 644l-98 136l28 25l99 -84h8l99 84l28 -25l-98 -136h-66
z" />
    <glyph glyph-name="Dcroat.ss01" horiz-adv-x="574" 
d="M42 0v38l62 20v487l-62 20v38h277q38 0 75.5 -14t68 -47t49 -88t18.5 -136q0 -166 -56.5 -242t-154.5 -76h-277zM197 63l141 -16q29 0 50 32.5t32 92t11 140.5q0 65 -11 120.5t-32 89.5t-50 34l-141 -14v-479zM14 281v49h316l-1 -49h-315z" />
    <glyph glyph-name="uni01C5.ss01" horiz-adv-x="967" 
d="M42 0v38l62 20v487l-62 20v38h277q38 0 75.5 -14t68 -47t49 -88t18.5 -136q0 -166 -56.5 -242t-154.5 -76h-277zM197 63l141 -16q29 0 50 32.5t32 92t11 140.5q0 65 -11 120.5t-32 89.5t-50 34l-141 -14v-479zM635 0q-5 7 -13 24t-10 22q51 83 93.5 160t95.5 168l-2 12
l-110 6l-9 -66h-52l-8 122h275q4 -6 12 -20.5t11 -24.5q-46 -82 -92 -162.5t-93 -160.5v-14l134 -6l12 84h51l3 -144h-298zM735 519l-98 136l28 25l99 -84h8l99 84l28 -25l-98 -136h-66z" />
    <glyph glyph-name="E.ss01" horiz-adv-x="475" 
d="M42 0v38l62 20v487l-62 20v38h398l-13 -175h-54l-11 126l-165 -14v-198l146 -5v-47l-146 -5v-220l174 -16l16 130h54l4 -179h-403z" />
    <glyph glyph-name="Eacute.ss01" horiz-adv-x="475" 
d="M42 0v38l62 20v487l-62 20v38h398l-13 -175h-54l-11 126l-165 -14v-198l146 -5v-47l-146 -5v-220l174 -16l16 130h54l4 -179h-403zM204 660l-15 36l163 94l40 -60l-4 -26q-25 -6 -57 -14t-64.5 -15.5t-62.5 -14.5z" />
    <glyph glyph-name="Ebreve.ss01" horiz-adv-x="475" 
d="M42 0v38l62 20v487l-62 20v38h398l-13 -175h-54l-11 126l-165 -14v-198l146 -5v-47l-146 -5v-220l174 -16l16 130h54l4 -179h-403zM253 662q-32 0 -62 16.5t-52 40t-32 43.5l28 25q25 -25 53.5 -42.5t64.5 -17.5t64.5 17.5t53.5 42.5l28 -25q-10 -20 -32 -43.5t-51.5 -40
t-62.5 -16.5z" />
    <glyph glyph-name="Ecaron.ss01" horiz-adv-x="475" 
d="M42 0v38l62 20v487l-62 20v38h398l-13 -175h-54l-11 126l-165 -14v-198l146 -5v-47l-146 -5v-220l174 -16l16 130h54l4 -179h-403zM222 644l-98 136l28 25l99 -84h8l99 84l28 -25l-98 -136h-66z" />
    <glyph glyph-name="Ecircumflex.ss01" horiz-adv-x="475" 
d="M42 0v38l62 20v487l-62 20v38h398l-13 -175h-54l-11 126l-165 -14v-198l146 -5v-47l-146 -5v-220l174 -16l16 130h54l4 -179h-403zM152 658l-30 30l103 104h56l103 -104l-30 -30l-96 64h-11z" />
    <glyph glyph-name="uni1EBE.ss01" horiz-adv-x="475" 
d="M42 0v38l62 20v487l-62 20v38h398l-13 -175h-54l-11 126l-165 -14v-198l146 -5v-47l-146 -5v-220l174 -16l16 130h54l4 -179h-403zM146 664l-23 30l96 91h66l96 -91l-23 -30l-102 44h-8zM197 791l-21 32l100 91l44 -54l-2 -25q-34 -14 -59.5 -22.5t-61.5 -21.5z" />
    <glyph glyph-name="uni1EC6.ss01" horiz-adv-x="475" 
d="M42 0v38l62 20v487l-62 20v38h398l-13 -175h-54l-11 126l-165 -14v-198l146 -5v-47l-146 -5v-220l174 -16l16 130h54l4 -179h-403zM158 -121q0 2 7.5 8t17.5 13.5t18.5 12.5t10.5 5q3 0 11.5 -6.5t17.5 -15.5t15 -17.5t5 -12.5l-4 -18q0 -3 -7.5 -9t-17.5 -13t-18 -12
t-11 -5q-4 0 -12 6.5t-16.5 16t-14 17.5t-5.5 11zM152 658l-30 30l103 104h56l103 -104l-30 -30l-96 64h-11z" />
    <glyph glyph-name="uni1EC0.ss01" horiz-adv-x="475" 
d="M42 0v38l62 20v487l-62 20v38h398l-13 -175h-54l-11 126l-165 -14v-198l146 -5v-47l-146 -5v-220l174 -16l16 130h54l4 -179h-403zM146 664l-23 30l96 91h66l96 -91l-23 -30l-102 44h-8zM307 791q-36 13 -61 21.5t-60 22.5l-2 25l44 54l100 -91z" />
    <glyph glyph-name="uni1EC2.ss01" horiz-adv-x="475" 
d="M42 0v38l62 20v487l-62 20v38h398l-13 -175h-54l-11 126l-165 -14v-198l146 -5v-47l-146 -5v-220l174 -16l16 130h54l4 -179h-403zM239 807l-17 28q23 15 33.5 30.5t10.5 27.5q0 11 -8.5 18t-25.5 7q-4 0 -9.5 -0.5t-10.5 -1.5l-9 42q26 8 46 8q38 0 60 -21t18 -57
q-2 -14 -25 -37.5t-63 -43.5zM146 664l-23 30l96 91h66l96 -91l-23 -30l-102 44h-8z" />
    <glyph glyph-name="uni1EC4.ss01" horiz-adv-x="475" 
d="M42 0v38l62 20v487l-62 20v38h398l-13 -175h-54l-11 126l-165 -14v-198l146 -5v-47l-146 -5v-220l174 -16l16 130h54l4 -179h-403zM219 802h66l98 -136l-28 -25l-99 84h-8l-99 -84l-28 25zM313 841q-26 0 -51.5 9.5t-45.5 18.5t-30 9q-5 0 -16.5 -7t-23 -15.5
t-15.5 -11.5l-32 27q6 8 17 21t24.5 26t26 22t21.5 9q20 0 47.5 -10t51.5 -20.5t34 -10.5q8 0 24.5 13.5t24.5 23.5l34 -29q-6 -8 -17 -20.5t-24.5 -25t-27 -21t-22.5 -8.5z" />
    <glyph glyph-name="uni0204.ss01" horiz-adv-x="475" 
d="M42 0v38l62 20v487l-62 20v38h398l-13 -175h-54l-11 126l-165 -14v-198l146 -5v-47l-146 -5v-220l174 -16l16 130h54l4 -179h-403zM387 663q-43 14 -85.5 32t-79.5 31l-5 24l43 57l145 -110zM193 666q-43 12 -86 29t-81 28l-5 24l40 58l149 -105z" />
    <glyph glyph-name="Edieresis.ss01" horiz-adv-x="475" 
d="M42 0v38l62 20v487l-62 20v38h398l-13 -175h-54l-11 126l-165 -14v-198l146 -5v-47l-146 -5v-220l174 -16l16 130h54l4 -179h-403zM292 736q0 2 7.5 8t17.5 13.5t18.5 12.5t10.5 5q3 0 11.5 -6.5t17.5 -15.5t15 -17.5t5 -12.5l-4 -18q-1 -3 -8 -9t-17 -13t-18 -12t-11 -5
q-4 0 -12 6.5t-16.5 16t-14 17.5t-5.5 11zM116 736q0 2 7.5 8t17.5 13.5t18.5 12.5t10.5 5q3 0 11.5 -6.5t17.5 -15.5t15 -17.5t5 -12.5l-4 -18q-1 -3 -8 -9t-17 -13t-18 -12t-11 -5q-4 0 -12 6.5t-16.5 16t-14 17.5t-5.5 11z" />
    <glyph glyph-name="Edotaccent.ss01" horiz-adv-x="475" 
d="M42 0v38l62 20v487l-62 20v38h398l-13 -175h-54l-11 126l-165 -14v-198l146 -5v-47l-146 -5v-220l174 -16l16 130h54l4 -179h-403zM202 741q0 2 7.5 8t17.5 13.5t18.5 12.5t10.5 5q3 0 11.5 -6.5t17.5 -15.5t15 -17.5t5 -12.5l-4 -18q-1 -3 -8 -9t-17 -13t-18 -12t-11 -5
q-4 0 -12 6.5t-16.5 16t-14 17.5t-5.5 11z" />
    <glyph glyph-name="uni1EB8.ss01" horiz-adv-x="475" 
d="M42 0v38l62 20v487l-62 20v38h398l-13 -175h-54l-11 126l-165 -14v-198l146 -5v-47l-146 -5v-220l174 -16l16 130h54l4 -179h-403zM158 -121q0 2 7.5 8t17.5 13.5t18.5 12.5t10.5 5q3 0 11.5 -6.5t17.5 -15.5t15 -17.5t5 -12.5l-4 -18q0 -3 -7.5 -9t-17.5 -13t-18 -12
t-11 -5q-4 0 -12 6.5t-16.5 16t-14 17.5t-5.5 11z" />
    <glyph glyph-name="Egrave.ss01" horiz-adv-x="475" 
d="M42 0v38l62 20v487l-62 20v38h398l-13 -175h-54l-11 126l-165 -14v-198l146 -5v-47l-146 -5v-220l174 -16l16 130h54l4 -179h-403zM313 660q-29 7 -62 14.5t-64.5 15.5t-57.5 14l-4 26l40 60l163 -94z" />
    <glyph glyph-name="uni1EBA.ss01" horiz-adv-x="475" 
d="M42 0v38l62 20v487l-62 20v38h398l-13 -175h-54l-11 126l-165 -14v-198l146 -5v-47l-146 -5v-220l174 -16l16 130h54l4 -179h-403zM239 638l-20 34q27 18 40.5 37t13.5 34q0 14 -10.5 22.5t-31.5 8.5q-6 0 -12 -0.5t-13 -2.5l-11 50q15 5 31 7.5t29 2.5q44 0 69 -21
t25 -54v-10t-2 -10q-1 -11 -14.5 -28t-37 -35.5t-56.5 -34.5z" />
    <glyph glyph-name="uni0206.ss01" horiz-adv-x="475" 
d="M42 0v38l62 20v487l-62 20v38h398l-13 -175h-54l-11 126l-165 -14v-198l146 -5v-47l-146 -5v-220l174 -16l16 130h54l4 -179h-403zM253 787q33 0 62.5 -16.5t51.5 -40t32 -43.5l-28 -25q-25 26 -53.5 43t-64.5 17t-64.5 -17t-53.5 -43l-28 25q10 20 32 43.5t52 40
t62 16.5z" />
    <glyph glyph-name="Emacron.ss01" horiz-adv-x="475" 
d="M42 0v38l62 20v487l-62 20v38h398l-13 -175h-54l-11 126l-165 -14v-198l146 -5v-47l-146 -5v-220l174 -16l16 130h54l4 -179h-403zM114 664v62h285v-62h-285z" />
    <glyph glyph-name="Eogonek.ss01" horiz-adv-x="475" 
d="M42 0v38l62 20v487l-62 20v38h398l-13 -175h-54l-11 126l-165 -14v-198l146 -5v-47l-146 -5v-220l174 -16l16 130h54l4 -179h-403zM346 -229q-19 0 -37 15t-30 38t-12 46q0 8 1 19t5 27q19 18 47 38.5t56 39t47 30.5l22 -24q-22 -21 -46.5 -44.5t-41.5 -42t-17 -24.5
q0 -34 7.5 -50t20.5 -16h69v-33q-3 -1 -23 -5.5t-40.5 -9t-27.5 -4.5z" />
    <glyph glyph-name="uni1EBC.ss01" horiz-adv-x="475" 
d="M42 0v38l62 20v487l-62 20v38h398l-13 -175h-54l-11 126l-165 -14v-198l146 -5v-47l-146 -5v-220l174 -16l16 130h54l4 -179h-403zM317 657q-26 0 -51.5 9.5t-45.5 18.5t-30 9q-5 0 -16.5 -7t-23 -15.5t-15.5 -11.5l-32 27q6 8 17 21t24.5 26t26 22t21.5 9q20 0 47.5 -10
t51.5 -20.5t34 -10.5q8 0 24.5 13.5t24.5 23.5l34 -29q-6 -8 -17 -20.5t-24.5 -25t-27 -21t-22.5 -8.5z" />
    <glyph glyph-name="F.ss01" horiz-adv-x="443" 
d="M42 0v38l62 20v487l-62 20v38h379l-13 -175h-54l-11 126l-146 -14v-215l139 -5v-47l-139 -5v-203l100 -22v-43h-255z" />
    <glyph glyph-name="G.ss01" horiz-adv-x="534" 
d="M239 612q8 0 32 -1t55.5 -3t63.5 -4t54 -4l-12 -171h-54l-12 99q-18 4 -47.5 7t-56.5 5t-38 2t-18.5 -1.5t-13.5 -4.5q-25 -13 -37.5 -73t-12.5 -151q0 -76 9 -125.5t25.5 -77t38 -39t45.5 -11.5l109 10v159l-93 17v46h231v-39l-52 -13v-180q-9 -6 -30 -15t-47 -18
t-52 -17t-45 -13t-25 -5q-59 0 -107.5 31t-77 94.5t-28.5 160.5q0 69 8.5 126t21.5 91q12 19 35 39.5t49 38.5t48.5 29t33.5 11z" />
    <glyph glyph-name="Gbreve.ss01" horiz-adv-x="534" 
d="M239 612q8 0 32 -1t55.5 -3t63.5 -4t54 -4l-12 -171h-54l-12 99q-18 4 -47.5 7t-56.5 5t-38 2t-18.5 -1.5t-13.5 -4.5q-25 -13 -37.5 -73t-12.5 -151q0 -76 9 -125.5t25.5 -77t38 -39t45.5 -11.5l109 10v159l-93 17v46h231v-39l-52 -13v-180q-9 -6 -30 -15t-47 -18
t-52 -17t-45 -13t-25 -5q-59 0 -107.5 31t-77 94.5t-28.5 160.5q0 69 8.5 126t21.5 91q12 19 35 39.5t49 38.5t48.5 29t33.5 11zM284 662q-32 0 -62 16.5t-52 40t-32 43.5l28 25q25 -25 53.5 -42.5t64.5 -17.5t64.5 17.5t53.5 42.5l28 -25q-10 -20 -32 -43.5t-51.5 -40
t-62.5 -16.5z" />
    <glyph glyph-name="Gcaron.ss01" horiz-adv-x="534" 
d="M239 612q8 0 32 -1t55.5 -3t63.5 -4t54 -4l-12 -171h-54l-12 99q-18 4 -47.5 7t-56.5 5t-38 2t-18.5 -1.5t-13.5 -4.5q-25 -13 -37.5 -73t-12.5 -151q0 -76 9 -125.5t25.5 -77t38 -39t45.5 -11.5l109 10v159l-93 17v46h231v-39l-52 -13v-180q-9 -6 -30 -15t-47 -18
t-52 -17t-45 -13t-25 -5q-59 0 -107.5 31t-77 94.5t-28.5 160.5q0 69 8.5 126t21.5 91q12 19 35 39.5t49 38.5t48.5 29t33.5 11zM253 644l-98 136l28 25l99 -84h8l99 84l28 -25l-98 -136h-66z" />
    <glyph glyph-name="Gcircumflex.ss01" horiz-adv-x="534" 
d="M239 612q8 0 32 -1t55.5 -3t63.5 -4t54 -4l-12 -171h-54l-12 99q-18 4 -47.5 7t-56.5 5t-38 2t-18.5 -1.5t-13.5 -4.5q-25 -13 -37.5 -73t-12.5 -151q0 -76 9 -125.5t25.5 -77t38 -39t45.5 -11.5l109 10v159l-93 17v46h231v-39l-52 -13v-180q-9 -6 -30 -15t-47 -18
t-52 -17t-45 -13t-25 -5q-59 0 -107.5 31t-77 94.5t-28.5 160.5q0 69 8.5 126t21.5 91q12 19 35 39.5t49 38.5t48.5 29t33.5 11zM183 658l-30 30l103 104h56l103 -104l-30 -30l-96 64h-11z" />
    <glyph glyph-name="uni0122.ss01" horiz-adv-x="534" 
d="M239 612q8 0 32 -1t55.5 -3t63.5 -4t54 -4l-12 -171h-54l-12 99q-18 4 -47.5 7t-56.5 5t-38 2t-18.5 -1.5t-13.5 -4.5q-25 -13 -37.5 -73t-12.5 -151q0 -76 9 -125.5t25.5 -77t38 -39t45.5 -11.5l109 10v159l-93 17v46h231v-39l-52 -13v-180q-9 -6 -30 -15t-47 -18
t-52 -17t-45 -13t-25 -5q-59 0 -107.5 31t-77 94.5t-28.5 160.5q0 69 8.5 126t21.5 91q12 19 35 39.5t49 38.5t48.5 29t33.5 11zM258 -271l-39 17q11 27 17 48t8 37q-14 7 -21 15t-9.5 15t-1.5 11l3 17q0 2 7 7.5t16.5 12t17 11.5t9.5 5q3 0 10.5 -6t15.5 -14.5t14 -16.5
t6 -12q0 -14 -5 -34t-13 -41t-17.5 -40t-17.5 -32z" />
    <glyph glyph-name="Gdotaccent.ss01" horiz-adv-x="534" 
d="M239 612q8 0 32 -1t55.5 -3t63.5 -4t54 -4l-12 -171h-54l-12 99q-18 4 -47.5 7t-56.5 5t-38 2t-18.5 -1.5t-13.5 -4.5q-25 -13 -37.5 -73t-12.5 -151q0 -76 9 -125.5t25.5 -77t38 -39t45.5 -11.5l109 10v159l-93 17v46h231v-39l-52 -13v-180q-9 -6 -30 -15t-47 -18
t-52 -17t-45 -13t-25 -5q-59 0 -107.5 31t-77 94.5t-28.5 160.5q0 69 8.5 126t21.5 91q12 19 35 39.5t49 38.5t48.5 29t33.5 11zM233 741q0 2 7.5 8t17.5 13.5t18.5 12.5t10.5 5q3 0 11.5 -6.5t17.5 -15.5t15 -17.5t5 -12.5l-4 -18q-1 -3 -8 -9t-17 -13t-18 -12t-11 -5
q-4 0 -12 6.5t-16.5 16t-14 17.5t-5.5 11z" />
    <glyph glyph-name="H.ss01" horiz-adv-x="621" 
d="M42 0v38l62 20v487l-62 20v38h221v-43l-66 -20v-203h227v203l-66 20v43h221v-38l-62 -20v-487l62 -20v-38h-221v43l66 20v221h-227v-221l66 -20v-43h-221z" />
    <glyph glyph-name="Hbar.ss01" horiz-adv-x="621" 
d="M42 0v38l62 20v487l-62 20v38h221v-43l-66 -20v-203h227v203l-66 20v43h221v-38l-62 -20v-487l62 -20v-38h-221v43l66 20v221h-227v-221l66 -20v-43h-221zM52 421v49h516l-1 -49h-515z" />
    <glyph glyph-name="Hcircumflex.ss01" horiz-adv-x="621" 
d="M42 0v38l62 20v487l-62 20v38h221v-43l-66 -20v-203h227v203l-66 20v43h221v-38l-62 -20v-487l62 -20v-38h-221v43l66 20v221h-227v-221l66 -20v-43h-221zM209 658l-30 30l103 104h56l103 -104l-30 -30l-96 64h-11z" />
    <glyph glyph-name="uni1E24.ss01" horiz-adv-x="621" 
d="M42 0v38l62 20v487l-62 20v38h221v-43l-66 -20v-203h227v203l-66 20v43h221v-38l-62 -20v-487l62 -20v-38h-221v43l66 20v221h-227v-221l66 -20v-43h-221zM212 -121q0 2 7.5 8t17.5 13.5t18.5 12.5t10.5 5q3 0 11.5 -6.5t17.5 -15.5t15 -17.5t5 -12.5l-4 -18
q0 -3 -7.5 -9t-17.5 -13t-18 -12t-11 -5q-4 0 -12 6.5t-16.5 16t-14 17.5t-5.5 11z" />
    <glyph glyph-name="I.ss01" horiz-adv-x="306" 
d="M43 0v38l62 20v487l-63 20v38h222v-43l-66 -20v-477l66 -20v-43h-221z" />
    <glyph glyph-name="IJ.ss01" horiz-adv-x="607" 
d="M43 0v38l62 20v487l-63 20v38h222v-43l-66 -20v-477l66 -20v-43h-221zM368 -123q-12 0 -42.5 8.5t-57.5 15.5v47h37t44.5 1t28.5 2q15 3 22 25t8.5 49.5t1.5 44.5v475l-65 20v38h223v-38l-65 -20v-507q0 -19 -11 -40.5t-27.5 -43t-35.5 -39t-35.5 -28t-25.5 -10.5z" />
    <glyph glyph-name="Iacute.ss01" horiz-adv-x="306" 
d="M43 0v38l62 20v487l-63 20v38h222v-43l-66 -20v-477l66 -20v-43h-221zM105 660l-15 36l163 94l40 -60l-4 -26q-25 -6 -57 -14t-64.5 -15.5t-62.5 -14.5z" />
    <glyph glyph-name="Ibreve.ss01" horiz-adv-x="306" 
d="M43 0v38l62 20v487l-63 20v38h222v-43l-66 -20v-477l66 -20v-43h-221zM154 662q-32 0 -62 16.5t-52 40t-32 43.5l28 25q25 -25 53.5 -42.5t64.5 -17.5t64.5 17.5t53.5 42.5l28 -25q-10 -20 -32 -43.5t-51.5 -40t-62.5 -16.5z" />
    <glyph glyph-name="uni01CF.ss01" horiz-adv-x="306" 
d="M43 0v38l62 20v487l-63 20v38h222v-43l-66 -20v-477l66 -20v-43h-221zM123 644l-98 136l28 25l99 -84h8l99 84l28 -25l-98 -136h-66z" />
    <glyph glyph-name="Icircumflex.ss01" horiz-adv-x="306" 
d="M43 0v38l62 20v487l-63 20v38h222v-43l-66 -20v-477l66 -20v-43h-221zM53 658l-30 30l103 104h56l103 -104l-30 -30l-96 64h-11z" />
    <glyph glyph-name="uni0208.ss01" horiz-adv-x="306" 
d="M43 0v38l62 20v487l-63 20v38h222v-43l-66 -20v-477l66 -20v-43h-221zM288 663q-43 14 -85.5 32t-79.5 31l-5 24l43 57l145 -110zM94 666q-43 12 -86 29t-81 28l-5 24l40 58l149 -105z" />
    <glyph glyph-name="Idieresis.ss01" horiz-adv-x="306" 
d="M43 0v38l62 20v487l-63 20v38h222v-43l-66 -20v-477l66 -20v-43h-221zM193 736q0 2 7.5 8t17.5 13.5t18.5 12.5t10.5 5q3 0 11.5 -6.5t17.5 -15.5t15 -17.5t5 -12.5l-4 -18q-1 -3 -8 -9t-17 -13t-18 -12t-11 -5q-4 0 -12 6.5t-16.5 16t-14 17.5t-5.5 11zM17 736
q0 2 7.5 8t17.5 13.5t18.5 12.5t10.5 5q3 0 11.5 -6.5t17.5 -15.5t15 -17.5t5 -12.5l-4 -18q-1 -3 -8 -9t-17 -13t-18 -12t-11 -5q-4 0 -12 6.5t-16.5 16t-14 17.5t-5.5 11z" />
    <glyph glyph-name="Idotaccent.ss01" horiz-adv-x="306" 
d="M43 0v38l62 20v487l-63 20v38h222v-43l-66 -20v-477l66 -20v-43h-221zM103 741q0 2 7.5 8t17.5 13.5t18.5 12.5t10.5 5q3 0 11.5 -6.5t17.5 -15.5t15 -17.5t5 -12.5l-4 -18q-1 -3 -8 -9t-17 -13t-18 -12t-11 -5q-4 0 -12 6.5t-16.5 16t-14 17.5t-5.5 11z" />
    <glyph glyph-name="uni1ECA.ss01" horiz-adv-x="306" 
d="M43 0v38l62 20v487l-63 20v38h222v-43l-66 -20v-477l66 -20v-43h-221zM56 -121q0 2 7.5 8t17.5 13.5t18.5 12.5t10.5 5q3 0 11.5 -6.5t17.5 -15.5t15 -17.5t5 -12.5l-4 -18q0 -3 -7.5 -9t-17.5 -13t-18 -12t-11 -5q-4 0 -12 6.5t-16.5 16t-14 17.5t-5.5 11z" />
    <glyph glyph-name="Igrave.ss01" horiz-adv-x="306" 
d="M43 0v38l62 20v487l-63 20v38h222v-43l-66 -20v-477l66 -20v-43h-221zM214 660q-29 7 -62 14.5t-64.5 15.5t-57.5 14l-4 26l40 60l163 -94z" />
    <glyph glyph-name="uni1EC8.ss01" horiz-adv-x="306" 
d="M43 0v38l62 20v487l-63 20v38h222v-43l-66 -20v-477l66 -20v-43h-221zM140 638l-20 34q27 18 40.5 37t13.5 34q0 14 -10.5 22.5t-31.5 8.5q-6 0 -12 -0.5t-13 -2.5l-11 50q15 5 31 7.5t29 2.5q44 0 69 -21t25 -54v-10t-2 -10q-1 -11 -14.5 -28t-37 -35.5t-56.5 -34.5z
" />
    <glyph glyph-name="uni020A.ss01" horiz-adv-x="306" 
d="M43 0v38l62 20v487l-63 20v38h222v-43l-66 -20v-477l66 -20v-43h-221zM154 787q33 0 62.5 -16.5t51.5 -40t32 -43.5l-28 -25q-25 26 -53.5 43t-64.5 17t-64.5 -17t-53.5 -43l-28 25q10 20 32 43.5t52 40t62 16.5z" />
    <glyph glyph-name="Imacron.ss01" horiz-adv-x="306" 
d="M43 0v38l62 20v487l-63 20v38h222v-43l-66 -20v-477l66 -20v-43h-221zM15 664v62h285v-62h-285z" />
    <glyph glyph-name="Iogonek.ss01" horiz-adv-x="306" 
d="M43 0v38l62 20v487l-63 20v38h222v-43l-66 -20v-477l66 -20v-43h-221zM164 -229q-19 0 -37 15t-30 38t-12 46q0 8 1 19t5 27q19 18 47 38.5t56 39t47 30.5l22 -24q-22 -21 -46.5 -44.5t-41.5 -42t-17 -24.5q0 -34 7.5 -50t20.5 -16h69v-33q-3 -1 -23 -5.5t-40.5 -9
t-27.5 -4.5z" />
    <glyph glyph-name="Itilde.ss01" horiz-adv-x="306" 
d="M43 0v38l62 20v487l-63 20v38h222v-43l-66 -20v-477l66 -20v-43h-221zM218 657q-26 0 -51.5 9.5t-45.5 18.5t-30 9q-5 0 -16.5 -7t-23 -15.5t-15.5 -11.5l-32 27q6 8 17 21t24.5 26t26 22t21.5 9q20 0 47.5 -10t51.5 -20.5t34 -10.5q8 0 24.5 13.5t24.5 23.5l34 -29
q-6 -8 -17 -20.5t-24.5 -25t-27 -21t-22.5 -8.5z" />
    <glyph glyph-name="J.ss01" horiz-adv-x="301" 
d="M62 -123q-12 0 -42.5 8.5t-57.5 15.5v47h37t44.5 1t28.5 2q15 3 22 25t8.5 49.5t1.5 44.5v475l-65 20v38h223v-38l-65 -20v-507q0 -19 -11 -40.5t-27.5 -43t-35.5 -39t-35.5 -28t-25.5 -10.5z" />
    <glyph glyph-name="Jcircumflex.ss01" horiz-adv-x="301" 
d="M62 -123q-12 0 -42.5 8.5t-57.5 15.5v47h37t44.5 1t28.5 2q15 3 22 25t8.5 49.5t1.5 44.5v475l-65 20v38h223v-38l-65 -20v-507q0 -19 -11 -40.5t-27.5 -43t-35.5 -39t-35.5 -28t-25.5 -10.5zM50 658l-30 30l103 104h56l103 -104l-30 -30l-96 64h-11z" />
    <glyph glyph-name="K.ss01" horiz-adv-x="538" 
d="M427 0q-16 24 -42 61.5t-56 80.5t-57 83t-45 67v28l153 220l-65 20v43h221v-38l-62 -20l-163 -225q17 -24 44 -60.5t57 -76t57 -73.5t43 -52l50 -16v-42h-135zM42 0v38l62 20v487l-62 20v38h221v-43l-66 -20v-477l66 -20v-43h-221z" />
    <glyph glyph-name="uni0136.ss01" horiz-adv-x="538" 
d="M427 0q-16 24 -42 61.5t-56 80.5t-57 83t-45 67v28l153 220l-65 20v43h221v-38l-62 -20l-163 -225q17 -24 44 -60.5t57 -76t57 -73.5t43 -52l50 -16v-42h-135zM42 0v38l62 20v487l-62 20v38h221v-43l-66 -20v-477l66 -20v-43h-221zM300 -271l-39 17q11 27 17 48t8 37
q-14 7 -21 15t-9.5 15t-1.5 11l3 17q0 2 7 7.5t16.5 12t17 11.5t9.5 5q3 0 10.5 -6t15.5 -14.5t14 -16.5t6 -12q0 -14 -5 -34t-13 -41t-17.5 -40t-17.5 -32z" />
    <glyph glyph-name="L.ss01" horiz-adv-x="460" 
d="M42 0v38l62 20v487l-62 20v38h231v-43l-76 -20v-475l181 -16l16 130h54l4 -179h-410z" />
    <glyph glyph-name="uni01C7.ss01" horiz-adv-x="761" 
d="M42 0v38l62 20v487l-62 20v38h231v-43l-76 -20v-475l181 -16l16 130h54l4 -179h-410zM522 -123q-12 0 -42.5 8.5t-57.5 15.5v47h37t44.5 1t28.5 2q15 3 22 25t8.5 49.5t1.5 44.5v475l-65 20v38h223v-38l-65 -20v-507q0 -19 -11 -40.5t-27.5 -43t-35.5 -39t-35.5 -28
t-25.5 -10.5z" />
    <glyph glyph-name="Lacute.ss01" horiz-adv-x="460" 
d="M42 0v38l62 20v487l-62 20v38h231v-43l-76 -20v-475l181 -16l16 130h54l4 -179h-410zM101 660l-15 36l163 94l40 -60l-4 -26q-25 -6 -57 -14t-64.5 -15.5t-62.5 -14.5z" />
    <glyph glyph-name="Lcaron.ss01" horiz-adv-x="460" 
d="M42 0v38l62 20v487l-62 20v38h231v-43l-76 -20v-475l181 -16l16 130h54l4 -179h-410zM410 480l-32 16q5 16 9.5 38t6.5 42q-7 5 -12 9t-5 6l3 77q14 2 27.5 3.5t31.5 1.5q3 0 7.5 -4.5t8.5 -10t4 -8.5v-22q0 -24 -7.5 -52.5t-19 -54t-22.5 -41.5z" />
    <glyph glyph-name="uni013B.ss01" horiz-adv-x="460" 
d="M42 0v38l62 20v487l-62 20v38h231v-43l-76 -20v-475l181 -16l16 130h54l4 -179h-410zM240 -271l-39 17q11 27 17 48t8 37q-14 7 -21 15t-9.5 15t-1.5 11l3 17q0 2 7 7.5t16.5 12t17 11.5t9.5 5q3 0 10.5 -6t15.5 -14.5t14 -16.5t6 -12q0 -14 -5 -34t-13 -41t-17.5 -40
t-17.5 -32z" />
    <glyph glyph-name="Ldot.ss01" horiz-adv-x="460" 
d="M42 0v38l62 20v487l-62 20v38h231v-43l-76 -20v-475l181 -16l16 130h54l4 -179h-410zM322 378q0 2 6.5 7.5t15.5 11.5l16.5 11t9.5 5q3 0 10.5 -6t16 -14t14 -16t4.5 -11l-3 -17q-1 -2 -7.5 -7.5t-15.5 -12t-16.5 -11t-9.5 -4.5q-3 0 -10.5 6t-15.5 14.5t-13 16t-5 10.5z
" />
    <glyph glyph-name="uni01C8.ss01" horiz-adv-x="679" 
d="M42 0v38l62 20v487l-62 20v38h231v-43l-76 -20v-475l181 -16l16 130h54l4 -179h-410zM486 -189l-23 34q28 29 42 57.5t19 56t5 54.5v379l-48 10v39l13.5 2.5t32 5.5t34 5.5t18.5 2.5q4 0 13.5 -7.5t18 -16.5t8.5 -14v-441q0 -30 -20.5 -63.5t-51 -61.5t-61.5 -42z
M519 611q0 2 8.5 8.5t19.5 14.5t20 13.5t11 5.5q4 0 13 -7t18.5 -17t16.5 -19t6 -14l-4 -20q-1 -3 -9 -9.5t-18.5 -14t-19.5 -13t-12 -5.5q-4 0 -13 7.5t-18 17.5t-15.5 19t-6.5 12z" />
    <glyph glyph-name="Lslash.ss01" horiz-adv-x="460" 
d="M42 0v38l62 20v487l-62 20v38h231v-43l-76 -20v-475l181 -16l16 130h54l4 -179h-410zM36 309l272 122l14 -3l1 -50l-273 -123l-13 3z" />
    <glyph glyph-name="M.ss01" horiz-adv-x="789" 
d="M42 0v38l62 20l18 487l-62 20v38h194l136 -479h12l135 479h195v-38l-62 -20l19 -487l62 -20v-38h-221v43l66 20l-8 428h-7l-5.5 -20t-13.5 -50.5t-17 -63t-17 -56.5l-77 -253q-14 -2 -31 -4.5t-33 -4.5t-26 -3.5t-11 -1.5q-3 0 -9.5 4l-6.5 4l-76 253q-5 16 -12 40.5
t-14 51.5t-13.5 50.5t-10.5 38.5l-4 15h-7l-8 -428l66 -20v-43h-213z" />
    <glyph glyph-name="N.ss01" horiz-adv-x="597" 
d="M391 -7q-3 0 -9.5 4l-6.5 4l-118 294q-8 20 -20 51.5t-23.5 63.5t-19.5 54l-8 22h-7l10 -387v-36l66 -20v-43h-213v38l62 20v487l-62 20v38h184l137 -335q5 -13 15.5 -42.5t21 -61.5t18 -54.5l7.5 -22.5h8l-10 418v35l-66 20v43h213v-38l-62 -20v-538q-11 -2 -26 -4
t-30.5 -3.5t-29 -3t-22 -2.5t-9.5 -1z" />
    <glyph glyph-name="uni01CA.ss01" horiz-adv-x="898" 
d="M391 -7q-3 0 -9.5 4l-6.5 4l-118 294q-8 20 -20 51.5t-23.5 63.5t-19.5 54l-8 22h-7l10 -387v-36l66 -20v-43h-213v38l62 20v487l-62 20v38h184l137 -335q5 -13 15.5 -42.5t21 -61.5t18 -54.5l7.5 -22.5h8l-10 418v35l-66 20v43h213v-38l-62 -20v-538q-11 -2 -26 -4
t-30.5 -3.5t-29 -3t-22 -2.5t-9.5 -1zM659 -123q-12 0 -42.5 8.5t-57.5 15.5v47h37t44.5 1t28.5 2q15 3 22 25t8.5 49.5t1.5 44.5v475l-65 20v38h223v-38l-65 -20v-507q0 -19 -11 -40.5t-27.5 -43t-35.5 -39t-35.5 -28t-25.5 -10.5z" />
    <glyph glyph-name="Nacute.ss01" horiz-adv-x="597" 
d="M391 -7q-3 0 -9.5 4l-6.5 4l-118 294q-8 20 -20 51.5t-23.5 63.5t-19.5 54l-8 22h-7l10 -387v-36l66 -20v-43h-213v38l62 20v487l-62 20v38h184l137 -335q5 -13 15.5 -42.5t21 -61.5t18 -54.5l7.5 -22.5h8l-10 418v35l-66 20v43h213v-38l-62 -20v-538q-11 -2 -26 -4
t-30.5 -3.5t-29 -3t-22 -2.5t-9.5 -1zM252 660l-15 36l163 94l40 -60l-4 -26q-25 -6 -57 -14t-64.5 -15.5t-62.5 -14.5z" />
    <glyph glyph-name="Ncaron.ss01" horiz-adv-x="597" 
d="M391 -7q-3 0 -9.5 4l-6.5 4l-118 294q-8 20 -20 51.5t-23.5 63.5t-19.5 54l-8 22h-7l10 -387v-36l66 -20v-43h-213v38l62 20v487l-62 20v38h184l137 -335q5 -13 15.5 -42.5t21 -61.5t18 -54.5l7.5 -22.5h8l-10 418v35l-66 20v43h213v-38l-62 -20v-538q-11 -2 -26 -4
t-30.5 -3.5t-29 -3t-22 -2.5t-9.5 -1zM270 644l-98 136l28 25l99 -84h8l99 84l28 -25l-98 -136h-66z" />
    <glyph glyph-name="uni0145.ss01" horiz-adv-x="597" 
d="M391 -7q-3 0 -9.5 4l-6.5 4l-118 294q-8 20 -20 51.5t-23.5 63.5t-19.5 54l-8 22h-7l10 -387v-36l66 -20v-43h-213v38l62 20v487l-62 20v38h184l137 -335q5 -13 15.5 -42.5t21 -61.5t18 -54.5l7.5 -22.5h8l-10 418v35l-66 20v43h213v-38l-62 -20v-538q-11 -2 -26 -4
t-30.5 -3.5t-29 -3t-22 -2.5t-9.5 -1zM300 -271l-39 17q11 27 17 48t8 37q-14 7 -21 15t-9.5 15t-1.5 11l3 17q0 2 7 7.5t16.5 12t17 11.5t9.5 5q3 0 10.5 -6t15.5 -14.5t14 -16.5t6 -12q0 -14 -5 -34t-13 -41t-17.5 -40t-17.5 -32z" />
    <glyph glyph-name="Eng.ss01" horiz-adv-x="597" 
d="M421 -6l-144 301q-9 19 -24 50.5t-30.5 64t-26 54.5l-10.5 22h-7l10 -387v-36l66 -20v-43h-213v38l62 20v487l-62 20v38h184l155 -335l18 -40.5t17 -39l7 -16.5h8l-8 333v35l-66 20v43h213v-38l-62 -20v-538zM373 -153q-12 0 -42.5 8.5t-57.5 15.5v47h39t48.5 1t30.5 2
q15 3 22 25t8.5 49.5t1.5 44.5l85 -32q0 -23 -16.5 -51t-39.5 -53t-45 -41t-34 -16z" />
    <glyph glyph-name="uni019D.ss01" horiz-adv-x="597" 
d="M226 603l137 -335q5 -13 15.5 -41.5t21 -59.5t18 -53l7.5 -22h8l-10 413v35l-66 20v43h213v-38l-62 -20v-538q-14 -2 -34 -4.5t-39.5 -4.5t-32.5 -3.5t-14 -1.5l-16 8l-115 294q-10 25 -22.5 58t-25.5 68t-23 65h-7l11 -478q0 -23 -15.5 -51t-38.5 -53t-44.5 -41
t-33.5 -16t-43 8.5t-57 15.5v47h38t46.5 1t29.5 2q15 3 22 25t8.5 49.5t1.5 44.5v505l-62 20v38h184z" />
    <glyph glyph-name="uni01CB.ss01" horiz-adv-x="816" 
d="M391 -7q-3 0 -9.5 4l-6.5 4l-118 294q-8 20 -20 51.5t-23.5 63.5t-19.5 54l-8 22h-7l10 -387v-36l66 -20v-43h-213v38l62 20v487l-62 20v38h184l137 -335q5 -13 15.5 -42.5t21 -61.5t18 -54.5l7.5 -22.5h8l-10 418v35l-66 20v43h213v-38l-62 -20v-538q-11 -2 -26 -4
t-30.5 -3.5t-29 -3t-22 -2.5t-9.5 -1zM623 -189l-23 34q28 29 42 57.5t19 56t5 54.5v379l-48 10v39l13.5 2.5t32 5.5t34 5.5t18.5 2.5q4 0 13.5 -7.5t18 -16.5t8.5 -14v-441q0 -30 -20.5 -63.5t-51 -61.5t-61.5 -42zM656 611q0 2 8.5 8.5t19.5 14.5t20 13.5t11 5.5
q4 0 13 -7t18.5 -17t16.5 -19t6 -14l-4 -20q-1 -3 -9 -9.5t-18.5 -14t-19.5 -13t-12 -5.5q-4 0 -13 7.5t-18 17.5t-15.5 19t-6.5 12z" />
    <glyph glyph-name="Ntilde.ss01" horiz-adv-x="597" 
d="M391 -7q-3 0 -9.5 4l-6.5 4l-118 294q-8 20 -20 51.5t-23.5 63.5t-19.5 54l-8 22h-7l10 -387v-36l66 -20v-43h-213v38l62 20v487l-62 20v38h184l137 -335q5 -13 15.5 -42.5t21 -61.5t18 -54.5l7.5 -22.5h8l-10 418v35l-66 20v43h213v-38l-62 -20v-538q-11 -2 -26 -4
t-30.5 -3.5t-29 -3t-22 -2.5t-9.5 -1zM365 657q-26 0 -51.5 9.5t-45.5 18.5t-30 9q-5 0 -16.5 -7t-23 -15.5t-15.5 -11.5l-32 27q6 8 17 21t24.5 26t26 22t21.5 9q20 0 47.5 -10t51.5 -20.5t34 -10.5q8 0 24.5 13.5t24.5 23.5l34 -29q-6 -8 -17 -20.5t-24.5 -25t-27 -21
t-22.5 -8.5z" />
    <glyph glyph-name="O.ss01" horiz-adv-x="548" 
d="M309 -9q-66 0 -116 17t-83 52.5t-50 91t-17 131.5q0 70 8.5 124t21.5 88q12 19 34.5 39.5t48.5 38t48.5 28.5t34.5 11q88 0 147 -30.5t89 -95t30 -168.5q0 -69 -8 -122.5t-17 -87.5q-13 -17 -36.5 -37.5t-50.5 -38.5t-50 -29.5t-34 -11.5zM301 51q8 0 28 9t38 19.5
t20 14.5q5 22 9.5 50.5t7 66.5t2.5 89q0 79 -12.5 135t-43 85.5t-85.5 29.5q-16 0 -37.5 -2t-35.5 -10q-25 -13 -37.5 -73.5t-12.5 -161.5q0 -72 8 -120.5t26 -77.5t49 -41.5t76 -12.5z" />
    <glyph glyph-name="Oacute.ss01" horiz-adv-x="548" 
d="M309 -9q-66 0 -116 17t-83 52.5t-50 91t-17 131.5q0 70 8.5 124t21.5 88q12 19 34.5 39.5t48.5 38t48.5 28.5t34.5 11q88 0 147 -30.5t89 -95t30 -168.5q0 -69 -8 -122.5t-17 -87.5q-13 -17 -36.5 -37.5t-50.5 -38.5t-50 -29.5t-34 -11.5zM301 51q8 0 28 9t38 19.5
t20 14.5q5 22 9.5 50.5t7 66.5t2.5 89q0 79 -12.5 135t-43 85.5t-85.5 29.5q-16 0 -37.5 -2t-35.5 -10q-25 -13 -37.5 -73.5t-12.5 -161.5q0 -72 8 -120.5t26 -77.5t49 -41.5t76 -12.5zM221 660l-15 36l163 94l40 -60l-4 -26q-25 -6 -57 -14t-64.5 -15.5t-62.5 -14.5z" />
    <glyph glyph-name="Obreve.ss01" horiz-adv-x="548" 
d="M309 -9q-66 0 -116 17t-83 52.5t-50 91t-17 131.5q0 70 8.5 124t21.5 88q12 19 34.5 39.5t48.5 38t48.5 28.5t34.5 11q88 0 147 -30.5t89 -95t30 -168.5q0 -69 -8 -122.5t-17 -87.5q-13 -17 -36.5 -37.5t-50.5 -38.5t-50 -29.5t-34 -11.5zM301 51q8 0 28 9t38 19.5
t20 14.5q5 22 9.5 50.5t7 66.5t2.5 89q0 79 -12.5 135t-43 85.5t-85.5 29.5q-16 0 -37.5 -2t-35.5 -10q-25 -13 -37.5 -73.5t-12.5 -161.5q0 -72 8 -120.5t26 -77.5t49 -41.5t76 -12.5zM270 662q-32 0 -62 16.5t-52 40t-32 43.5l28 25q25 -25 53.5 -42.5t64.5 -17.5
t64.5 17.5t53.5 42.5l28 -25q-10 -20 -32 -43.5t-51.5 -40t-62.5 -16.5z" />
    <glyph glyph-name="uni01D1.ss01" horiz-adv-x="548" 
d="M309 -9q-66 0 -116 17t-83 52.5t-50 91t-17 131.5q0 70 8.5 124t21.5 88q12 19 34.5 39.5t48.5 38t48.5 28.5t34.5 11q88 0 147 -30.5t89 -95t30 -168.5q0 -69 -8 -122.5t-17 -87.5q-13 -17 -36.5 -37.5t-50.5 -38.5t-50 -29.5t-34 -11.5zM301 51q8 0 28 9t38 19.5
t20 14.5q5 22 9.5 50.5t7 66.5t2.5 89q0 79 -12.5 135t-43 85.5t-85.5 29.5q-16 0 -37.5 -2t-35.5 -10q-25 -13 -37.5 -73.5t-12.5 -161.5q0 -72 8 -120.5t26 -77.5t49 -41.5t76 -12.5zM239 644l-98 136l28 25l99 -84h8l99 84l28 -25l-98 -136h-66z" />
    <glyph glyph-name="Ocircumflex.ss01" horiz-adv-x="548" 
d="M309 -9q-66 0 -116 17t-83 52.5t-50 91t-17 131.5q0 70 8.5 124t21.5 88q12 19 34.5 39.5t48.5 38t48.5 28.5t34.5 11q88 0 147 -30.5t89 -95t30 -168.5q0 -69 -8 -122.5t-17 -87.5q-13 -17 -36.5 -37.5t-50.5 -38.5t-50 -29.5t-34 -11.5zM301 51q8 0 28 9t38 19.5
t20 14.5q5 22 9.5 50.5t7 66.5t2.5 89q0 79 -12.5 135t-43 85.5t-85.5 29.5q-16 0 -37.5 -2t-35.5 -10q-25 -13 -37.5 -73.5t-12.5 -161.5q0 -72 8 -120.5t26 -77.5t49 -41.5t76 -12.5zM169 658l-30 30l103 104h56l103 -104l-30 -30l-96 64h-11z" />
    <glyph glyph-name="uni1ED0.ss01" horiz-adv-x="548" 
d="M309 -9q-66 0 -116 17t-83 52.5t-50 91t-17 131.5q0 70 8.5 124t21.5 88q12 19 34.5 39.5t48.5 38t48.5 28.5t34.5 11q88 0 147 -30.5t89 -95t30 -168.5q0 -69 -8 -122.5t-17 -87.5q-13 -17 -36.5 -37.5t-50.5 -38.5t-50 -29.5t-34 -11.5zM301 51q8 0 28 9t38 19.5
t20 14.5q5 22 9.5 50.5t7 66.5t2.5 89q0 79 -12.5 135t-43 85.5t-85.5 29.5q-16 0 -37.5 -2t-35.5 -10q-25 -13 -37.5 -73.5t-12.5 -161.5q0 -72 8 -120.5t26 -77.5t49 -41.5t76 -12.5zM163 664l-23 30l96 91h66l96 -91l-23 -30l-102 44h-8zM214 791l-21 32l100 91l44 -54
l-2 -25q-34 -14 -59.5 -22.5t-61.5 -21.5z" />
    </font>
</defs>
</svg>
